SplineFontDB: 3.0
FontName: Jost-BlackItalic
FullName: Jost* 900 Black Italic
FamilyName: Jost* Black
Weight: Black
Copyright: This typeface is licensed under the SIL open font license.
UComments: "2018-6-8: Created with FontForge (http://fontforge.org)"
Version: 003.400
ItalicAngle: -10
UnderlinePosition: -100
UnderlineWidth: 50
Ascent: 800
Descent: 200
InvalidEm: 0
LayerCount: 2
Layer: 0 0 "Back" 1
Layer: 1 0 "Fore" 0
XUID: [1021 69 1495626776 760146]
FSType: 0
OS2Version: 0
OS2_WeightWidthSlopeOnly: 0
OS2_UseTypoMetrics: 0
CreationTime: 1528480336
ModificationTime: 1562964746
PfmFamily: 17
TTFWeight: 900
TTFWidth: 5
LineGap: 100
VLineGap: 0
OS2TypoAscent: 825
OS2TypoAOffset: 0
OS2TypoDescent: -225
OS2TypoDOffset: 0
OS2TypoLinegap: 100
OS2WinAscent: 900
OS2WinAOffset: 0
OS2WinDescent: 300
OS2WinDOffset: 0
HheadAscent: 1030
HheadAOffset: 0
HheadDescent: -350
HheadDOffset: 0
OS2CapHeight: 700
OS2XHeight: 460
OS2Vendor: 'PfEd'
Lookup: 1 0 0 "alt a" { "alt a"  } ['ss01' ('DFLT' <'dflt' > 'latn' <'dflt' > ) ]
Lookup: 1 0 0 "Tabular Numbers lookup" { "Tabular Numbers lookup"  } ['tnum' ('DFLT' <'dflt' > 'grek' <'dflt' > 'latn' <'dflt' > ) ]
Lookup: 258 0 0 "Lets get our kern on" { "kernin like nobodys business" [150,0,4] } ['kern' ('DFLT' <'dflt' > 'latn' <'dflt' > ) ]
MarkAttachClasses: 1
DEI: 91125
KernClass2: 16 14 "kernin like nobodys business"
 43 slash seven V W Wcircumflex uni040E uni0423
 175 quotedbl quotesingle asterisk grave dieresis ordfeminine macron degree acute ordmasculine circumflex breve dotaccent ring tilde quoteleft quoteright quotedblleft quotedblright
 25 nine question F P uni0420
 131 A L backslash Agrave Aacute Acircumflex Atilde Adieresis Aring Amacron Abreve Aogonek Lacute uni013B Lslash uni0410 uni0414 uni041C
 58 three eight B C germandbls uni0411 uni0412 uni0417 uni0421
 29 K X Z uni0416 uni041A uni0425

StartChar: H
Encoding: 72 72 0
Width: 805
VWidth: 0
Flags: HMW
LayerCount: 2
Fore
SplineSet
129.5 265 m 1
 163.5 460 l 1
 710.5 460 l 1
 676.5 265 l 1
 129.5 265 l 1
615 700 m 1
 832 700 l 1
 712 0 l 1
 495 0 l 1
 615 700 l 1
159 700 m 1
 376 700 l 1
 255.5 0 l 1
 39 0 l 1
 159 700 l 1
EndSplineSet
EndChar

StartChar: O
Encoding: 79 79 1
Width: 815
VWidth: 0
Flags: HMW
LayerCount: 2
Fore
SplineSet
289 350 m 0
 275 262 307.5 180 405 178.5 c 0
 503.5 177 574.5 255.5 591.5 350 c 0
 606 438.5 576 520.5 475.5 521.5 c 0
 377 522.5 305.5 444.5 289 350 c 0
60 350 m 0
 92 564.5 278.5 720 497 720 c 0
 714 720 850.5 558.5 820.5 350 c 0
 788.5 134.5 607 -30.5 381.5 -30 c 0
 160 -29.5 30 141.5 60 350 c 0
EndSplineSet
EndChar

StartChar: I
Encoding: 73 73 2
Width: 354
VWidth: 0
Flags: HMW
LayerCount: 2
Fore
SplineSet
159 700 m 1
 380.5 700 l 1
 260.5 0 l 1
 39 0 l 1
 159 700 l 1
EndSplineSet
EndChar

StartChar: C
Encoding: 67 67 3
Width: 689
VWidth: 0
Flags: HMW
LayerCount: 2
Fore
SplineSet
297.5 350 m 0
 281 253.5 341 189 437 187.5 c 0
 527.5 186.5 592.5 230.5 648 272 c 1
 615 47 l 1
 553.5 8.5 488.5 -20 398 -20 c 0
 169.5 -20 28.5 137 60 350 c 0
 93 568.5 278 720 512 720 c 0
 599.5 720 658.5 693 714.5 652.5 c 1
 680.5 427 l 1
 639.5 474.5 587.5 512.5 504 512.5 c 0
 405 512 315.5 450.5 297.5 350 c 0
EndSplineSet
EndChar

StartChar: E
Encoding: 69 69 4
Width: 616
VWidth: 0
Flags: HMW
LayerCount: 2
Fore
SplineSet
186 0 m 1
 217 175 l 1
 563 175 l 1
 532 0 l 1
 186 0 l 1
276 525 m 1
 306.5 700 l 1
 652.5 700 l 1
 622 525 l 1
 276 525 l 1
233 275 m 1
 263 445 l 1
 589.5 445 l 1
 559.5 275 l 1
 233 275 l 1
159 700 m 1
 366 700 l 1
 246 0 l 1
 39 0 l 1
 159 700 l 1
EndSplineSet
EndChar

StartChar: F
Encoding: 70 70 6
Width: 567
VWidth: 0
Flags: HMW
LayerCount: 2
Fore
SplineSet
274 515 m 1
 306.5 700 l 1
 613.5 700 l 1
 581 515 l 1
 274 515 l 1
228 245 m 1
 258 415 l 1
 555.5 415 l 1
 525.5 245 l 1
 228 245 l 1
159 700 m 1
 366 700 l 1
 246 0 l 1
 39 0 l 1
 159 700 l 1
EndSplineSet
EndChar

StartChar: G
Encoding: 71 71 7
Width: 813
VWidth: 0
Flags: HMW
LayerCount: 2
Fore
SplineSet
428.5 240 m 1
 457 399.5 l 1
 818 399.5 l 1
 800 168.5 655.5 -30 396.5 -30 c 0
 171.5 -30 29 136.5 60 350 c 0
 93.5 571 287.5 720 516.5 720 c 0
 659 720 753 645.5 815.5 542.5 c 1
 604 452 l 1
 585 497 557 534.5 497 534.5 c 0
 394 534.5 304.5 458.5 286 350 c 0
 269.5 246 311.5 155.5 420.5 155.5 c 0
 497.312 155.5 542.725 185.6185 574.8215 240 c 1
 428.5 240 l 1
EndSplineSet
EndChar

StartChar: T
Encoding: 84 84 8
Width: 601
VWidth: 0
Flags: HMW
LayerCount: 2
Fore
SplineSet
57 505 m 1
 91 700 l 1
 696 700 l 1
 662 505 l 1
 468.5 505 l 1
 382 0 l 1
 165 0 l 1
 251.5 505 l 1
 57 505 l 1
EndSplineSet
EndChar

StartChar: L
Encoding: 76 76 9
Width: 558
VWidth: 0
Flags: HMW
LayerCount: 2
Fore
SplineSet
159 700 m 1
 376 700 l 1
 287.5 185 l 1
 564.5 185 l 1
 532 0 l 1
 39 0 l 1
 159 700 l 1
EndSplineSet
EndChar

StartChar: D
Encoding: 68 68 10
Width: 742
VWidth: 0
Flags: HMW
LayerCount: 2
Fore
SplineSet
159 700 m 1
 384.5 700 l 1
 264.5 0 l 1
 39 0 l 1
 159 700 l 1
313.5 0 m 2
 186 0 l 1
 219.5 190 l 1
 324.5 190 l 2
 415.5 190 502.5 230 521.5 350 c 0
 539 466 479 510.5 390.5 510.5 c 2
 273 510.5 l 1
 306.5 700 l 1
 421 700 l 2
 645.5 700 779 560.5 747.5 350 c 0
 715 135 544.5 0 313.5 0 c 2
EndSplineSet
EndChar

StartChar: Q
Encoding: 81 81 11
Width: 881
VWidth: 0
Flags: HMW
LayerCount: 2
Fore
SplineSet
289 350 m 0
 273 247 323.5 159.5 426 158.5 c 0
 524 157.5 598 225.5 615.5 320 c 0
 632 413 597 520 480 521.5 c 0
 381.5 522.5 306 445 289 350 c 0
60 350 m 0
 92 565 283.5 720.5 502 720 c 0
 719 719.5 850 557.5 820.5 350 c 0
 788.5 135 612 -30.5 386.5 -30 c 0
 165 -29.5 30 141 60 350 c 0
360.5 300 m 1
 562 300 l 1
 857 -20 l 1
 645.5 -20 l 1
 360.5 300 l 1
EndSplineSet
EndChar

StartChar: A
Encoding: 65 65 12
Width: 756
VWidth: 0
Flags: HMW
LayerCount: 2
Fore
SplineSet
187 90 m 1
 215 248 l 1
 577.5 248 l 1
 549.5 90 l 1
 187 90 l 1
415.5 382 m 1
 302.5 188.5 l 1
 311 138 l 1
 214.5 0 l 1
 -36.5 0 l 1
 478 752.5 l 1
 733.5 0 l 1
 493.5 0 l 1
 447.5 132.5 l 1
 467.5 189 l 1
 415.5 382 l 1
EndSplineSet
EndChar

StartChar: R
Encoding: 82 82 13
Width: 679
VWidth: 0
Flags: HMW
LayerCount: 2
Fore
SplineSet
292.5 300 m 1
 507.5 300 l 1
 650 0 l 1
 406 0 l 1
 292.5 300 l 1
159 700 m 1
 376 700 l 1
 255.5 0 l 1
 39 0 l 1
 159 700 l 1
266 514.5 m 1
 297 700 l 1
 440.5 700 l 2
 614.5 700 709 606.5 691.5 460 c 0
 673.584 311.6695 550 220 370.5 220 c 2
 214 220 l 1
 243.5 385 l 1
 368 385 l 2
 416.5 385 456.5 408 464.5 450.5 c 0
 471.5 490.5 446 514 400 514.5 c 2
 266 514.5 l 1
EndSplineSet
EndChar

StartChar: V
Encoding: 86 86 14
Width: 756
VWidth: 0
Flags: HMW
LayerCount: 2
Fore
SplineSet
415 362 m 1
 597 699.5 l 1
 856.5 699.5 l 1
 355 -52.5 l 1
 87 700 l 1
 337.5 700 l 1
 415 362 l 1
EndSplineSet
EndChar

StartChar: M
Encoding: 77 77 15
Width: 912
VWidth: 0
Flags: HMW
LayerCount: 2
Fore
SplineSet
316.543 285.339 m 1
 232 0 l 1
 -1 0 l 1
 251.5 735 l 1
 486.5 358.5 l 1
 857.5 740.5 l 1
 856.5 0 l 1
 626.5 0 l 1
 639.957 278.339 l 1
 443 63.5 l 1
 316.543 285.339 l 1
EndSplineSet
EndChar

StartChar: W
Encoding: 87 87 16
Width: 1077
VWidth: 0
Flags: HMW
LayerCount: 2
Fore
SplineSet
760.0895 353.3205 m 1
 908 700 l 1
 1171.5 699.5 l 1
 744.5 -46.5 l 1
 571 301 l 1
 287 -48 l 1
 91.5 700 l 1
 348 700 l 1
 388.4105 356.3205 l 1
 633.5 738 l 1
 760.0895 353.3205 l 1
EndSplineSet
EndChar

StartChar: N
Encoding: 78 78 17
Width: 781
VWidth: 0
Flags: HMW
LayerCount: 2
Fore
SplineSet
600.5 700 m 1
 807.5 700 l 1
 682.5 -33 l 1
 301 318.2955 l 1
 246 0 l 1
 39 0 l 1
 164 733 l 1
 545 381.7045 l 1
 600.5 700 l 1
EndSplineSet
EndChar

StartChar: a
Encoding: 97 97 18
Width: 625
VWidth: 0
Flags: HMW
LayerCount: 2
Fore
SplineSet
438 460 m 1
 631 460 l 1
 551.5 0 l 1
 359 0 l 1
 438 460 l 1
39.5 230.5 m 0
 57 368.5 165 470 283 470 c 0
 406.5 470 460.5 355.5 445 229.5 c 0
 427.5 97.5 335.5 -9.5 213 -9.5 c 0
 94.5 -9.5 23.5 97.5 39.5 230.5 c 0
241.5 229.5 m 0
 235 187 256 142 301 140.5 c 0
 345 139 390.5 182 398.5 230.5 c 0
 405 275.5 383 318 340.5 319.5 c 0
 294 321 249.5 275.5 241.5 229.5 c 0
EndSplineSet
Substitution2: "alt a" a.alt
EndChar

StartChar: X
Encoding: 88 88 19
Width: 742
VWidth: 0
Flags: HMW
LayerCount: 2
Fore
SplineSet
548 699.5 m 1
 823 699.5 l 1
 544.5 349.5 l 1
 723.5 0 l 1
 459.5 0 l 1
 388 193 l 1
 253.5 0 l 1
 -21.5 0 l 1
 278.5 358.5 l 1
 116.5 700 l 1
 381 700 l 1
 437 534 l 1
 548 699.5 l 1
EndSplineSet
EndChar

StartChar: K
Encoding: 75 75 20
Width: 757
VWidth: 0
Flags: HMW
LayerCount: 2
Fore
SplineSet
159 700 m 1
 385.5 700 l 1
 265.5 0 l 1
 39 0 l 1
 159 700 l 1
587.5 699.5 m 1
 846 699.5 l 1
 519 367.5 l 1
 733.5 0 l 1
 480 0 l 1
 265.5 370 l 1
 587.5 699.5 l 1
EndSplineSet
EndChar

StartChar: Y
Encoding: 89 89 21
Width: 698
VWidth: 0
Flags: HMW
LayerCount: 2
Fore
SplineSet
545 699.5 m 1
 800.5 699.5 l 1
 479 269.8535 l 1
 433.5 0 l 1
 211.5 0 l 1
 261 279.0095 l 1
 89 700 l 1
 334 700 l 1
 401 477.5 l 1
 545 699.5 l 1
EndSplineSet
EndChar

StartChar: B
Encoding: 66 66 22
Width: 706
VWidth: 0
Flags: HMW
LayerCount: 2
Fore
SplineSet
253 335 m 1
 269.5 425 l 1
 375 425 l 2
 418.5 425 453.5 446.5 460.5 484 c 0
 466.5 519.5 443.5 534.5 403 535 c 2
 349 535 l 1
 282.5 164.5 l 1
 350 164.5 l 2
 396.5 165.5 448.5 175 456 227.5 c 0
 462.5 272 421 278.5 379.5 279.5 c 2
 243.5 280 l 1
 265 400 l 1
 418.5 400 l 2
 546 400 694.5 337.5 674.5 191.5 c 0
 654 48.5 523 -8.3276e-15 362.5 0 c 2
 39 0 l 1
 159 700 l 1
 450 700 l 2
 580 700 711 646 692 519.5 c 0
 673.5 394 539 335 400 335 c 2
 253 335 l 1
EndSplineSet
EndChar

StartChar: Z
Encoding: 90 90 23
Width: 645
VWidth: 0
Flags: HMW
LayerCount: 2
Fore
SplineSet
125 505 m 1
 159 700 l 1
 732.5 699.5 l 1
 345.5 185.5 l 1
 598.5 185 l 1
 566 0 l 1
 -27 0 l 1
 352 504.5 l 1
 125 505 l 1
EndSplineSet
EndChar

StartChar: o
Encoding: 111 111 24
Width: 597
VWidth: 0
Flags: HMW
LayerCount: 2
Fore
SplineSet
46 230.5 m 0
 65 376.5 196 471 348.5 471 c 0
 497.5 471 607 374 588.5 229.5 c 0
 569.5 83.5 438.5 -10 286 -10 c 0
 137.5 -10 27.5 86 46 230.5 c 0
243 229.5 m 0
 237 184.5 258 147 300 145.5 c 0
 343 144 384.5 182.5 391.5 230.5 c 0
 397.5 275.5 376.5 314 334.5 315.5 c 0
 291.5 317 250 277.5 243 229.5 c 0
EndSplineSet
EndChar

StartChar: J
Encoding: 74 74 25
Width: 373
VWidth: 0
Flags: HMW
LayerCount: 2
Fore
SplineSet
-112 -39.5 m 1
 -90.5 -54 -63.5 -71 -38 -70.5 c 0
 -2 -70 32.5 -40.5 39 5.5 c 2
 159 700 l 1
 400 700 l 1
 272.5 -50.5 l 2
 249 -193.5 113.5 -250 -28 -250 c 0
 -113 -250 -190 -222 -250.5 -188 c 1
 -112 -39.5 l 1
EndSplineSet
EndChar

StartChar: t
Encoding: 116 116 26
Width: 354
VWidth: 0
Flags: HMW
LayerCount: 2
Fore
SplineSet
55 460 m 1
 403 460 l 1
 375.5 305 l 1
 27.5 305 l 1
 55 460 l 1
164.5 620 m 1
 347.5 620 l 1
 241 0 l 1
 58 0 l 1
 164.5 620 l 1
EndSplineSet
EndChar

StartChar: d
Encoding: 100 100 27
Width: 625
VWidth: 0
Flags: HMW
LayerCount: 2
Fore
SplineSet
493 780 m 1
 685.5 780 l 1
 551.5 0 l 1
 359 0 l 1
 493 780 l 1
39.5 230.5 m 0
 57 368.5 165 470 283 470 c 0
 406.5 470 460.5 355.5 445 229.5 c 0
 427.5 97.5 335.5 -9.5 213 -9.5 c 0
 94.5 -9.5 23.5 97.5 39.5 230.5 c 0
241.5 229.5 m 0
 235 187 256 142 301 140.5 c 0
 345 139 390.5 182 398.5 230.5 c 0
 405 275.5 383 318 340.5 319.5 c 0
 294 321 249.5 275.5 241.5 229.5 c 0
EndSplineSet
EndChar

StartChar: l
Encoding: 108 108 28
Width: 286
VWidth: 0
Flags: HMW
LayerCount: 2
Fore
SplineSet
153 780 m 1
 346 780 l 1
 212 0 l 1
 19.5 0 l 1
 153 780 l 1
EndSplineSet
EndChar

StartChar: i
Encoding: 105 105 29
Width: 277
VWidth: 0
Flags: HMW
LayerCount: 2
Fore
SplineSet
110 621.5 m 0
 110 680.5 158 719.5 218 719.5 c 0
 278 719.5 326 680.5 326 621.5 c 0
 326 562.5 278 523.5 218 523.5 c 0
 158 523.5 110 562.5 110 621.5 c 0
97.5 460 m 1
 282.5 460 l 1
 203.5 0 l 1
 18.5 0 l 1
 97.5 460 l 1
EndSplineSet
EndChar

StartChar: r
Encoding: 114 114 30
Width: 444
VWidth: 0
Flags: HMW
LayerCount: 2
Fore
SplineSet
286.5 460 m 1
 207 0 l 1
 19.5 0 l 1
 98.5 460 l 1
 286.5 460 l 1
385.5 262.5 m 1
 373.5 277 358.5 289.5 335.5 290 c 0
 292 291 247 246.5 240.5 194.5 c 1
 227 281 l 1
 244 377 330.5 472 410 472 c 0
 443.5 472 471 451.5 487 428 c 1
 385.5 262.5 l 1
EndSplineSet
EndChar

StartChar: c
Encoding: 99 99 31
Width: 488
VWidth: 0
Flags: HMW
LayerCount: 2
Fore
SplineSet
243 229.5 m 0
 234.5 175 270.5 140.5 323 139 c 0
 370.5 137.5 416.5 161.5 451.5 196.5 c 1
 429 21 l 1
 391 2.5 351 -10 290.5 -10 c 0
 139 -10 27 84.5 46 230.5 c 0
 65.5 378 198 470 354 470 c 0
 414 470 452.5 456.5 490 440.5 c 1
 466.5 264 l 1
 439.5 302 399 322 360.5 322 c 0
 301.5 322 252 280.5 243 229.5 c 0
EndSplineSet
EndChar

StartChar: b
Encoding: 98 98 32
Width: 625
VWidth: 0
Flags: HMW
LayerCount: 2
Fore
SplineSet
346 780 m 1
 212 0 l 1
 19.5 0 l 1
 153 780 l 1
 346 780 l 1
610.5 229.5 m 0
 593 91.5 485.5 -10 367.5 -10 c 0
 244 -10 189.5 104.5 205 230.5 c 0
 222.5 362.5 315 469.5 437.5 469.5 c 0
 556 469.5 626.5 362.5 610.5 229.5 c 0
409 230.5 m 0
 415.5 273 394 318 349 319.5 c 0
 305 321 259.5 278 251.5 229.5 c 0
 245 184.5 267.5 142 310 140.5 c 0
 356.5 139 401 184.5 409 230.5 c 0
EndSplineSet
EndChar

StartChar: p
Encoding: 112 112 33
Width: 625
VWidth: 0
Flags: HMW
LayerCount: 2
Fore
SplineSet
174.5 -220 m 1
 -18 -220 l 1
 98.5 460 l 1
 291 460 l 1
 174.5 -220 l 1
610.5 229.5 m 0
 592.5 85.5 485.5 -20.5 365.5 -20 c 0
 233.5 -19.5 199.5 105 215 230 c 0
 232.5 362 309.5 479 439 479.5 c 0
 560 480 626.5 367.5 610.5 229.5 c 0
409 231 m 0
 415.5 275 391 307.5 347.5 309.5 c 0
 305 311.5 258.5 277 251.5 229 c 0
 245 182.5 270.5 152.5 311.5 150.5 c 0
 356.5 148.5 402 185.5 409 231 c 0
EndSplineSet
EndChar

StartChar: q
Encoding: 113 113 34
Width: 625
VWidth: 0
Flags: HMW
LayerCount: 2
Fore
SplineSet
321.5 -220 m 1
 438 460 l 1
 631 460 l 1
 514 -220 l 1
 321.5 -220 l 1
39.5 230.5 m 0
 57.5 374.5 164.5 480.5 284.5 480 c 0
 416.5 479.5 451 355 435.5 230 c 0
 418 98 341 -19 211.5 -19.5 c 0
 90.5 -20 23.5 92.5 39.5 230.5 c 0
241.5 229 m 0
 235 185 259.5 152.5 303 150.5 c 0
 345.5 148.5 391.5 183 398.5 231 c 0
 405 277.5 379.5 307.5 338.5 309.5 c 0
 293.5 311.5 248.5 274.5 241.5 229 c 0
EndSplineSet
EndChar

StartChar: h
Encoding: 104 104 35
Width: 577
VWidth: 0
Flags: HMW
LayerCount: 2
Fore
SplineSet
346 780 m 1
 212 0 l 1
 19.5 0 l 1
 153 780 l 1
 346 780 l 1
361 280 m 2
 365 311 365.5 341 329.5 345 c 0
 294 349 268 314.5 260 280 c 1
 232.5 281 l 1
 250.5 384.5 304.5 480 425 481 c 0
 542 482 570.5 409.5 555.5 310 c 2
 503 0 l 1
 310.5 0 l 1
 361 280 l 2
EndSplineSet
EndChar

StartChar: n
Encoding: 110 110 36
Width: 587
VWidth: 0
Flags: HMW
LayerCount: 2
Fore
SplineSet
291 460 m 1
 212 0 l 1
 19.5 0 l 1
 98.5 460 l 1
 291 460 l 1
361 280 m 2
 365 311 365 341 329 345 c 0
 293.5 349 268 315 260 280.5 c 1
 231.5 271 l 1
 249 374.5 302.5 470 423 471 c 0
 539.5 472 579 400.5 563.5 300 c 2
 513 0 l 1
 310.5 0 l 1
 361 280 l 2
EndSplineSet
EndChar

StartChar: m
Encoding: 109 109 37
Width: 820
VWidth: 0
Flags: HMW
LayerCount: 2
Fore
SplineSet
332 280.5 m 2
 334.5 309.5 335 341 306.5 345 c 0
 279 349.5 255.5 313 250 280.5 c 1
 221.5 271 l 1
 239 373 295 470 409 471 c 0
 518.5 472 538 406.5 526 310 c 2
 474 0 l 1
 281 0 l 1
 332 280.5 l 2
281.5 460 m 1
 202.5 0 l 1
 19.5 0 l 1
 98.5 460 l 1
 281.5 460 l 1
796.5 300 m 2
 746 0 l 1
 553 0 l 1
 603.5 280 l 2
 606 309 607 341 578.5 345 c 0
 551 349.5 527 313 521.5 280.5 c 1
 464.5 271 l 1
 484.5 375.5 564.5 470.5 680.5 471 c 0
 791.5 471.5 809 396.5 796.5 300 c 2
EndSplineSet
EndChar

StartChar: k
Encoding: 107 107 38
Width: 640
VWidth: 0
Flags: HMW
LayerCount: 2
Fore
SplineSet
153 780 m 1
 336 780 l 1
 202.5 0 l 1
 19.5 0 l 1
 153 780 l 1
435.5 459.5 m 1
 668.5 459.5 l 1
 440 266 l 1
 601 0 l 1
 388 0 l 1
 219 275 l 1
 435.5 459.5 l 1
EndSplineSet
EndChar

StartChar: u
Encoding: 117 117 39
Width: 587
VWidth: 0
Flags: HMW
LayerCount: 2
Fore
SplineSet
320 0 m 1
 399.5 460 l 1
 592 460 l 1
 513 0 l 1
 320 0 l 1
250.5 180 m 1
 247.5 148.5 246 119 282 115 c 0
 317.5 111 343.5 145 351.5 179.5 c 1
 380 189 l 1
 362.5 85.5 308.5 -10 188 -11 c 0
 71.5 -12 35 58.5 48 160 c 1
 98.5 460 l 1
 301 460 l 1
 250.5 180 l 1
EndSplineSet
EndChar

StartChar: e
Encoding: 101 101 40
Width: 591
VWidth: 0
Flags: HMW
LayerCount: 2
Fore
SplineSet
145 190.5 m 1
 158.5 283.5 l 1
 386.691 283.5 l 1
 384.482 320.135 371.521 349.5 334 349.5 c 0
 281.5 349.5 253 303 243.5 249.5 c 1
 238 229.5 l 1
 231 166.5 248 124.5 295.5 121 c 0
 338.5 118.5 373.5 138.5 395.5 164.5 c 1
 569 135.5 l 1
 510.5 47 422.5 -10 295.5 -10 c 0
 126.5 -10 27 86 46 230 c 0
 48 247 51.5 263 56.5 279 c 0
 93 396.5 198.5 470 348.5 470 c 0
 509 470 596.5 382.5 579.5 239 c 0
 577.5 227 575 209 571.5 190.5 c 1
 145 190.5 l 1
EndSplineSet
EndChar

StartChar: g
Encoding: 103 103 41
Width: 616
VWidth: 0
Flags: HMW
LayerCount: 2
Fore
SplineSet
3 -34.5 m 1
 183.5 -35.5 l 1
 189.5 -78.5 207 -94 247.5 -94.5 c 0
 308.5 -95.5 350.5 -49 360 10.5 c 2
 438 460 l 1
 621 460 l 1
 544.5 9.5 l 2
 518 -159 402.5 -244 244 -244.5 c 0
 77.5 -245 7.5 -166 3 -34.5 c 1
41.5 240.5 m 0
 59 378.5 166 470 283 470 c 0
 405.5 470 463 366.5 447 239.5 c 0
 430 108 338 10 216.5 10 c 0
 99.5 10 25.5 107 41.5 240.5 c 0
243 239 m 0
 236.5 195 261 162.5 304.5 160.5 c 0
 347 158.5 393.5 193 400.5 241 c 0
 407 287.5 381.5 319.5 340.5 319.5 c 0
 290.5 319.5 250 284.5 243 239 c 0
EndSplineSet
EndChar

StartChar: f
Encoding: 102 102 42
Width: 367
VWidth: 0
Flags: HMW
LayerCount: 2
Fore
SplineSet
55 460 m 1
 412.5 460 l 1
 385.5 305 l 1
 27.5 305 l 1
 55 460 l 1
418.5 605.5 m 1
 408 618.5 397 630 379.5 630.5 c 0
 349.5 631 326 605 321.5 574.5 c 2
 221.5 0 l 1
 39 0 l 1
 145.5 630.5 l 2
 164.5 730.5 242 800 364 799.5 c 0
 433 799.5 474.5 769.5 507 741.5 c 1
 418.5 605.5 l 1
EndSplineSet
EndChar

StartChar: s
Encoding: 115 115 43
Width: 473
VWidth: 0
Flags: HMW
LayerCount: 2
Fore
SplineSet
82.5 182.5 m 1
 152 130.5 203 106 238.5 110 c 0
 252.5 111 268.5 121.5 270 134.5 c 0
 273.5 165 226 173 190.5 185.5 c 0
 125 210 74 253.5 83.5 334.5 c 0
 96 423.5 180 469 281 469.5 c 0
 358 470 423 444.5 488 413.5 c 1
 424 283 l 1
 386 317 338 346 296 346 c 0
 276 346 258.5 337.5 256 326 c 0
 249.5 294 311.5 286 352 270.5 c 0
 415 246 466.5 207 458.5 129.5 c 0
 446.5 25 369 -23.5 261 -24.5 c 0
 164.5 -25.5 83.5 3.5 4 47.5 c 1
 82.5 182.5 l 1
EndSplineSet
EndChar

StartChar: y
Encoding: 121 121 44
Width: 553
VWidth: 0
Flags: HMW
LayerCount: 2
Fore
SplineSet
623.5 459.5 m 1
 215.5 -219.5 l 1
 23.5 -219.5 l 1
 169.5 25.5 l 1
 38 460 l 1
 240 460 l 1
 321 85 l 1
 216 85.5 l 1
 426.5 459.5 l 1
 623.5 459.5 l 1
EndSplineSet
EndChar

StartChar: w
Encoding: 119 119 45
Width: 786
VWidth: 0
Flags: HMW
LayerCount: 2
Fore
SplineSet
38.5 460 m 1
 230.5 460 l 1
 276.9505 266.916 l 1
 449 497.5 l 1
 540.0495 265.416 l 1
 654.5 459.5 l 1
 856.5 459.5 l 1
 519 -27 l 1
 405 208.3945 l 1
 207.5 -27.5 l 1
 38.5 460 l 1
EndSplineSet
EndChar

StartChar: v
Encoding: 118 118 46
Width: 562
VWidth: 0
Flags: HMW
LayerCount: 2
Fore
SplineSet
50 460 m 1
 249.5 460 l 1
 302.5 251 l 1
 421.5 459.5 l 1
 625.5 459.5 l 1
 256 -67.5 l 1
 50 460 l 1
EndSplineSet
EndChar

StartChar: x
Encoding: 120 120 47
Width: 582
VWidth: 0
Flags: HMW
LayerCount: 2
Fore
SplineSet
413.5 460 m 1
 631 460 l 1
 408.5 232 l 1
 563 0 l 1
 358.5 0 l 1
 292.5 112 l 1
 205 0 l 1
 -22 0 l 1
 211 245 l 1
 65.5 460 l 1
 279.5 460 l 1
 331 365 l 1
 413.5 460 l 1
EndSplineSet
EndChar

StartChar: z
Encoding: 122 122 48
Width: 543
VWidth: 0
Flags: HMW
LayerCount: 2
Fore
SplineSet
240 285.5 m 1
 82.5 285.5 l 1
 113 459.5 l 1
 585 459.5 l 1
 346 174.5 l 1
 495 174.5 l 1
 464.5 0 l 1
 -17.5 0 l 1
 240 285.5 l 1
EndSplineSet
EndChar

StartChar: j
Encoding: 106 106 49
Width: 276
VWidth: 0
Flags: HMW
LayerCount: 2
Fore
SplineSet
110 621.5 m 0
 110 680.5 158 719.5 218 719.5 c 0
 278 719.5 326 680.5 326 621.5 c 0
 326 562.5 278 523.5 218 523.5 c 0
 158 523.5 110 562.5 110 621.5 c 0
-83 -55.5 m 1
 -72.5 -68.5 -58.5 -80.5 -39 -80.5 c 0
 -9.5 -80.5 10.5 -54 14.5 -24.5 c 2
 98.5 460 l 1
 281.5 460 l 1
 190 -80.5 l 2
 171 -180.5 94 -250 -28 -249.5 c 0
 -97 -249.5 -139 -219.5 -171.5 -191.5 c 1
 -83 -55.5 l 1
EndSplineSet
EndChar

StartChar: P
Encoding: 80 80 50
Width: 648
VWidth: 0
Flags: HMW
LayerCount: 2
Fore
SplineSet
159 700 m 1
 376 700 l 1
 255.5 0 l 1
 39 0 l 1
 159 700 l 1
267.5 525.5 m 1
 297 700 l 1
 421 700 l 1
 596.5 698 685.5 613 672 460 c 0
 658.112 304.7435 532.5 222 351.5 220 c 1
 214 220 l 1
 245 395 l 1
 369.5 395 l 2
 418 395 458 418 466 460.5 c 0
 473 500.5 447.5 525 401.5 525.5 c 2
 267.5 525.5 l 1
EndSplineSet
EndChar

StartChar: U
Encoding: 85 85 51
Width: 723
VWidth: 0
Flags: HMW
LayerCount: 2
Fore
SplineSet
154 700 m 1
 371 700 l 1
 292 250 l 2
 286 201.5 299 157 356 155.5 c 0
 414 154 450.5 199 460.5 250.5 c 1
 538.5 700 l 1
 755 700 l 1
 675.5 230 l 2
 646.5 49.5 503.5 -40 334 -40 c 0
 170 -40 51 50 74.5 230 c 1
 154 700 l 1
EndSplineSet
EndChar

StartChar: S
Encoding: 83 83 52
Width: 652
VWidth: 0
Flags: HMW
LayerCount: 2
Fore
SplineSet
186.5 266 m 1
 223 201 258.5 158 325 158.5 c 0
 359.5 158.5 392 170 398.5 200 c 0
 408.5 243.5 343.5 256.5 289 280 c 0
 209.5 316 115 385.5 130 510.5 c 0
 150 642 287 720.5 436 720 c 0
 566.5 719.5 643 648 679 562.5 c 1
 509 474.5 l 1
 485.5 515.5 458.5 538.5 417 538.5 c 0
 387 538.5 354.5 525.5 348.5 503 c 0
 337.5 462 431 443 485 423 c 0
 587.5 383.5 641 306.5 626.5 199.5 c 0
 604.5 48 462.5 -30.5 309.5 -30 c 0
 181 -29.5 64.5 48 27.5 159.5 c 1
 186.5 266 l 1
EndSplineSet
EndChar

StartChar: at
Encoding: 64 64 53
Width: 747
VWidth: 0
Flags: HMW
LayerCount: 2
Fore
SplineSet
363 319.5 m 0
 361 297 359.5 269.5 373.5 265.5 c 0
 400.5 258 435 328 439 360.5 c 0
 441 385.5 444.5 410.5 429 414.5 c 0
 398.5 422.5 367 352.5 363 319.5 c 0
218.5 310.5 m 0
 231 423.5 305 531.5 395.5 530 c 0
 469.5 529 503 445 494.5 369.5 c 0
 483 256 411.5 151 322 150.5 c 0
 233.5 150 208.5 226.5 218.5 310.5 c 0
35.5 320 m 0
 69 541.5 260.5 730 494 730 c 0
 699 730 804 558 778.5 390 c 0
 761 243 667 137.5 547 140 c 0
 472 141.5 434.5 194 440.5 260.5 c 1
 431.5 310.5 l 1
 482 520 l 1
 618.5 520 l 1
 569 319 l 2
 566.5 311 564.5 301 562.5 292 c 0
 561 276.5 560 259.5 572 256.5 c 0
 602 246 640.5 320.5 645 390.5 c 0
 663 502 622.5 609.5 485.5 609.5 c 0
 318 609.5 196.5 479.5 169.5 320 c 0
 147 188 200 87 355.5 85.5 c 0
 422 85 478.5 104.5 535 125 c 1
 557.5 14 l 1
 491.5 -17.5 413.5 -35.5 327 -35 c 0
 108.5 -33.5 7 129.5 35.5 320 c 0
EndSplineSet
EndChar

StartChar: period
Encoding: 46 46 54
Width: 326
VWidth: 0
Flags: HMW
LayerCount: 2
Fore
SplineSet
37.5 85 m 0
 37.5 148 85.5 200 155.5 200 c 0
 225.5 200 273.5 148 273.5 85 c 0
 273.5 22 225.5 -30 155.5 -30 c 0
 85.5 -30 37.5 22 37.5 85 c 0
EndSplineSet
EndChar

StartChar: comma
Encoding: 44 44 55
Width: 323
VWidth: 0
Flags: HMW
LayerCount: 2
Fore
SplineSet
88.5 109 m 1
 278.5 74 l 1
 105.5 -173 l 1
 -41 -147 l 1
 88.5 109 l 1
EndSplineSet
EndChar

StartChar: colon
Encoding: 58 58 56
Width: 326
VWidth: 0
Flags: HMW
LayerCount: 2
Fore
SplineSet
32.5 85 m 0
 32.5 148 80.5 200 150.5 200 c 0
 220.5 200 268.5 148 268.5 85 c 0
 268.5 22 220.5 -30 150.5 -30 c 0
 80.5 -30 32.5 22 32.5 85 c 0
95.5 454.5 m 0
 95.5 517.5 143.5 569.5 213.5 569.5 c 0
 283.5 569.5 331.5 517.5 331.5 454.5 c 0
 331.5 391.5 283.5 339.5 213.5 339.5 c 0
 143.5 339.5 95.5 391.5 95.5 454.5 c 0
EndSplineSet
EndChar

StartChar: semicolon
Encoding: 59 59 57
Width: 418
VWidth: 0
Flags: HMW
LayerCount: 2
Fore
SplineSet
157 444.5 m 0
 157 507.5 205 559.5 275 559.5 c 0
 345 559.5 393 507.5 393 444.5 c 0
 393 381.5 345 329.5 275 329.5 c 0
 205 329.5 157 381.5 157 444.5 c 0
122.5 109 m 1
 312 74 l 1
 139.5 -173 l 1
 -7 -147 l 1
 122.5 109 l 1
EndSplineSet
EndChar

StartChar: quotedbl
Encoding: 34 34 58
Width: 533
VWidth: 0
Flags: HMW
LayerCount: 2
Fore
SplineSet
176 700 m 1
 375.5 699.5 l 1
 212.5 370.5 l 1
 85.5 370 l 1
 176 700 l 1
399.5 700 m 1
 599 699.5 l 1
 435.5 370.5 l 1
 309 370 l 1
 399.5 700 l 1
EndSplineSet
EndChar

StartChar: exclam
Encoding: 33 33 59
Width: 359
VWidth: 0
Flags: HMW
LayerCount: 2
Fore
SplineSet
155 700 m 1
 390 700 l 1
 275 250 l 1
 115 250 l 1
 155 700 l 1
48.5 75 m 0
 48.5 138 96.5 180 166.5 180 c 0
 236.5 180 284.5 138 284.5 75 c 0
 284.5 12 236.5 -30 166.5 -30 c 0
 96.5 -30 48.5 12 48.5 75 c 0
EndSplineSet
EndChar

StartChar: quotesingle
Encoding: 39 39 60
Width: 310
VWidth: 0
Flags: HMW
LayerCount: 2
Fore
SplineSet
176 700 m 1
 375.5 699.5 l 1
 212.5 370.5 l 1
 85.5 370 l 1
 176 700 l 1
EndSplineSet
EndChar

StartChar: numbersign
Encoding: 35 35 61
Width: 684
VWidth: 0
Flags: HMW
LayerCount: 2
Fore
SplineSet
114.5 395.5 m 1
 138.5 550 l 1
 719 550 l 1
 692 395 l 1
 537 395 l 1
 502 405 l 1
 296.5 405 l 1
 261.5 395 l 1
 114.5 395.5 l 1
31 155 m 1
 58.5 310 l 1
 196.5 310 l 1
 235.5 300 l 1
 476 300 l 1
 512.5 310 l 1
 639.5 310 l 1
 612 155 l 1
 31 155 l 1
558.5 699.5 m 1
 727 699.5 l 1
 441.5 0 l 1
 275 0 l 1
 365.5 222 l 1
 387.5 251.5 l 1
 469.5 452 l 1
 475 492.5 l 1
 558.5 699.5 l 1
308 700 m 1
 474.5 699.5 l 1
 389 492 l 1
 362.5 450 l 1
 283 255.5 l 1
 281 225.5 l 1
 189 0 l 1
 23 0 l 1
 308 700 l 1
EndSplineSet
EndChar

StartChar: hyphen
Encoding: 45 45 62
Width: 223
VWidth: 0
Flags: HMW
LayerCount: 2
Fore
SplineSet
2 155 m 1
 31 320 l 1
 248 320 l 1
 219 155 l 1
 2 155 l 1
EndSplineSet
EndChar

StartChar: dollar
Encoding: 36 36 63
Width: 627
VWidth: 0
Flags: HMW
LayerCount: 2
Fore
SplineSet
364 818 m 1
 517 818 l 1
 475 618 l 1
 342 618 l 1
 364 818 l 1
258.5 70 m 1
 390.5 70 l 1
 371 -112 l 1
 219.5 -112 l 1
 258.5 70 l 1
500.5 474.5 m 1
 479 522 451 558.5 409 558.5 c 0
 375.5 558.5 348.5 536 343 513 c 0
 331 460 420 446.5 479 424 c 0
 579 384.5 637 306.5 623.5 199.5 c 0
 603.5 56.5 462 -11 302.5 -10 c 0
 177.5 -9 68.5 64 25.5 159.5 c 1
 182.5 266 l 1
 220 201 256 158 323 158.5 c 0
 360.5 158.5 390.5 171 396 202 c 0
 404 242.5 339.5 258 283.5 281 c 0
 204 316 108 388.5 122 510.5 c 0
 139.5 628.5 270 709.5 414.5 710 c 0
 551 710.5 621.5 651 670 562.5 c 1
 500.5 474.5 l 1
EndSplineSet
EndChar

StartChar: bar
Encoding: 124 124 64
Width: 388
VWidth: 0
Flags: HMW
LayerCount: 2
Fore
SplineSet
199.5 785 m 1
 396.5 785 l 1
 242.5 -215 l 1
 45 -215 l 1
 199.5 785 l 1
EndSplineSet
EndChar

StartChar: zero
Encoding: 48 48 65
Width: 679
VWidth: 0
Flags: HMW
LayerCount: 2
Fore
SplineSet
276.5 350 m 0
 268.5 272 267 173 336 170.5 c 0
 407 168 456 261.5 468 350 c 0
 476 428 477.5 527 408.5 529.5 c 0
 337.5 532 288.5 438.5 276.5 350 c 0
70 350 m 0
 98.5 559.5 234 715 428.5 715 c 0
 630.5 715 700.5 550.5 675 350 c 0
 646.5 139.5 516.5 -15.5 316 -15 c 0
 120.5 -14.5 44.5 150.5 70 350 c 0
EndSplineSet
Substitution2: "Tabular Numbers lookup" uniFF10
EndChar

StartChar: one
Encoding: 49 49 66
Width: 528
VWidth: 0
Flags: HMW
LayerCount: 2
Fore
SplineSet
106.5 457.5 m 1
 139.5 643 l 1
 539 716.5 l 1
 416 0 l 1
 208.5 0 l 1
 294 498 l 1
 106.5 457.5 l 1
EndSplineSet
Substitution2: "Tabular Numbers lookup" uniFF11
EndChar

StartChar: two
Encoding: 50 50 67
Width: 688
VWidth: 0
Flags: HMW
LayerCount: 2
Fore
SplineSet
-2.5 0 m 1
 336.5 305 l 2
 393.5 359.5 454 403.5 463 465.5 c 0
 467 499 451.5 529.5 408 530.5 c 0
 355 532.5 320.5 479 310 430 c 1
 98 430.5 l 1
 124 585 244 716.5 434 716 c 0
 592 716 707 611 688 480.5 c 0
 677.5 402.5 625 344 560.5 297 c 2
 423.5 200.5 l 1
 669.5 200 l 1
 638.5 0 l 1
 -2.5 0 l 1
EndSplineSet
Substitution2: "Tabular Numbers lookup" uniFF12
EndChar

StartChar: four
Encoding: 52 52 68
Width: 745
VWidth: 0
Flags: HMW
LayerCount: 2
Fore
SplineSet
-2.5 115.5 m 1
 503 699.5 l 1
 684.5 700 l 1
 564.5 0 l 1
 337.5 0 l 1
 367 175.5 l 1
 398 186.5 l 1
 436.5 411.5 l 1
 299.5675 265.5 l 1
 553.5 265.5 l 1
 576.5 300 l 1
 723 300 l 1
 690.5 115 l 1
 -2.5 115.5 l 1
EndSplineSet
Substitution2: "Tabular Numbers lookup" uniFF14
EndChar

StartChar: slash
Encoding: 47 47 69
Width: 645
VWidth: 0
Flags: HMW
LayerCount: 2
Fore
SplineSet
539.5 699.5 m 1
 727.5 699.5 l 1
 155 -149.5 l 1
 -42.5 -149.5 l 1
 539.5 699.5 l 1
EndSplineSet
EndChar

StartChar: backslash
Encoding: 92 92 70
Width: 548
VWidth: 0
Flags: HMW
LayerCount: 2
Fore
SplineSet
108 700 m 1
 285.5 700 l 1
 505.5 0 l 1
 328 0 l 1
 108 700 l 1
EndSplineSet
EndChar

StartChar: eight
Encoding: 56 56 71
Width: 656
VWidth: 0
Flags: HMW
LayerCount: 2
Fore
SplineSet
135 531.5 m 0
 153.5 660 286 720 417.5 720 c 0
 543 720 666.5 660 648 530.5 c 0
 630 397.5 483 335 364 335 c 0
 251 335 117 398.5 135 531.5 c 0
333 510 m 0
 329 480.5 342 450.5 374 450.5 c 0
 412 450.5 439 480.5 443.5 512 c 0
 447.5 542 433.5 569.5 401.5 569.5 c 0
 363.5 569.5 337.5 541.5 333 510 c 0
52.5 190.5 m 0
 72.5 339.5 238 400 363 400 c 0
 480.5 400 634.5 339 614.5 189.5 c 0
 594.5 51 443 -20 303.5 -20 c 0
 171 -20 32.5 51.5 52.5 190.5 c 0
274.5 224 m 0
 269 186.5 285.5 155.5 323.5 155.5 c 0
 367.5 155.5 398.5 186 404.5 226 c 0
 409 258 390.5 289.5 354 289.5 c 0
 311 289.5 281 258 274.5 224 c 0
EndSplineSet
Substitution2: "Tabular Numbers lookup" uniFF18
EndChar

StartChar: nine
Encoding: 57 57 72
Width: 704
VWidth: 0
Flags: HMW
LayerCount: 2
Fore
SplineSet
494.5 445.5 m 0
 502 495 472.5 533.5 421.5 534.5 c 0
 369 535.5 321 496 313 444.5 c 0
 305.5 395.5 334.5 354.5 385.5 353.5 c 0
 438 352.5 486.5 393.5 494.5 445.5 c 0
367.5 5.5 m 1
 87.5 5.5 l 1
 348 234.5 l 1
 406 261.5 l 1
 366 231 334 217.5 285.5 217.5 c 0
 174.5 217.5 84.5 316 98.5 445 c 0
 119.5 622 272 720 440.5 720 c 0
 605 720 731.5 620 709 445 c 0
 696.5 356 638.5 285 576.5 220 c 2
 367.5 5.5 l 1
EndSplineSet
Substitution2: "Tabular Numbers lookup" uniFF19
EndChar

StartChar: three
Encoding: 51 51 73
Width: 646
VWidth: 0
Flags: HMW
LayerCount: 2
Fore
SplineSet
314 335.5 m 1
 326 423.5 l 1
 383 427 454 453 458.5 501.5 c 0
 460.5 527.5 441.5 544 408 544.5 c 0
 363.5 546 333.5 513 323 476 c 1
 124.5 477 l 1
 149 614 264.5 714.5 425 715 c 0
 573 715.5 689.5 641 671.5 515.5 c 0
 650.5 368.5 474.5 336.5 314 335.5 c 1
313.5 -20 m 0
 140.5 -19 45.5 103.5 57 245 c 1
 266.5 244.5 l 1
 264 186.5 288.5 152.5 339 150.5 c 0
 382.5 149 425.5 170 432.5 216 c 0
 444.5 271 387 293 308.5 295 c 1
 322.5 398.5 l 1
 492 397 663 352.5 641 194.5 c 0
 622 58 483.5 -21 313.5 -20 c 0
EndSplineSet
Substitution2: "Tabular Numbers lookup" uniFF13
EndChar

StartChar: five
Encoding: 53 53 74
Width: 673
VWidth: 0
Flags: HMW
LayerCount: 2
Fore
SplineSet
653 219.5 m 0
 632.5 59 466.5 -14 325 -15 c 0
 212.5 -15.5 119.5 10 37.5 43 c 1
 123.5 235.5 l 1
 182.5 201.5 241 185.5 287 185 c 0
 348.5 185 412 196.5 420 250.5 c 0
 427.5 302.5 361 309 315.5 309.5 c 0
 256 310.5 175.5 300 105 278 c 1
 264.5 700 l 1
 706 700 l 1
 676 510 l 1
 395.5 510.5 l 1
 342.3995 421.3545 l 1
 382.2065 438.1185 425.615 445 472 444.5 c 0
 586 442.5 668 349.5 653 219.5 c 0
EndSplineSet
Substitution2: "Tabular Numbers lookup" uniFF15
EndChar

StartChar: six
Encoding: 54 54 75
Width: 704
VWidth: 0
Flags: HMW
LayerCount: 2
Fore
SplineSet
283.5 254.5 m 0
 276 205 305.5 166.5 356.5 165.5 c 0
 409 164.5 457.5 204 465.5 255.5 c 0
 473 304.5 443.5 345.5 392.5 346.5 c 0
 340 347.5 291.5 306.5 283.5 254.5 c 0
410.5 694.5 m 1
 691 694.5 l 1
 430 465.5 l 1
 372 438.5 l 1
 412 469 444 482.5 492.5 482.5 c 0
 603.5 482.5 693.5 384 679.5 255 c 0
 658.5 78 506 -20 337.5 -20 c 0
 173 -20 46.5 80 69 255 c 0
 81.5 344 139.5 415 201.5 480 c 2
 410.5 694.5 l 1
EndSplineSet
Substitution2: "Tabular Numbers lookup" uniFF16
EndChar

StartChar: seven
Encoding: 55 55 76
Width: 630
VWidth: 0
Flags: HMW
LayerCount: 2
Fore
SplineSet
86 495 m 1
 118.5 699.5 l 1
 725.5 699.5 l 1
 287 0 l 1
 47.5 0 l 1
 374.5 495 l 1
 86 495 l 1
EndSplineSet
Substitution2: "Tabular Numbers lookup" uniFF17
EndChar

StartChar: plus
Encoding: 43 43 77
Width: 689
VWidth: 0
Flags: HMW
LayerCount: 2
Fore
SplineSet
65.5 185 m 1
 98 370 l 1
 664 370 l 1
 631.5 185 l 1
 65.5 185 l 1
315.5 565 m 1
 513 565 l 1
 414 -10 l 1
 216.5 -10 l 1
 315.5 565 l 1
EndSplineSet
EndChar

StartChar: equal
Encoding: 61 61 78
Width: 614
VWidth: 0
Flags: HMW
LayerCount: 2
Fore
SplineSet
28 50 m 1
 57 215 l 1
 577.5 215 l 1
 548.5 50 l 1
 28 50 l 1
68.5 290 m 1
 98 455 l 1
 618.5 455 l 1
 589.5 290 l 1
 68.5 290 l 1
EndSplineSet
EndChar

StartChar: percent
Encoding: 37 37 79
Width: 990
VWidth: 0
Flags: HMW
LayerCount: 2
Fore
SplineSet
75.5 525.5 m 0
 90.5 633.5 193.5 724.5 307 724.5 c 0
 419 724.5 497 630 482.5 524.5 c 0
 467.5 416.5 364 325.5 250.5 325.5 c 0
 138.5 325.5 61 420 75.5 525.5 c 0
229 523.5 m 0
 226.5 501 243 476.5 272.5 476.5 c 0
 298.5 476.5 325.5 502 328.5 526.5 c 0
 331 549 315 573.5 285.5 573.5 c 0
 259.5 573.5 232 548 229 523.5 c 0
574 176.5 m 0
 589 284.5 692 375.5 805.5 375.5 c 0
 917.5 375.5 995 281 980.5 175.5 c 0
 965.5 67.5 862.5 -23.5 749 -23.5 c 0
 637 -23.5 559.5 71 574 176.5 c 0
727.5 174.5 m 0
 724.5 152 744 127.5 768.5 127.5 c 0
 794.5 127.5 821.5 148 827 177.5 c 0
 830 200 811 224.5 786.5 224.5 c 0
 760.5 224.5 733 204 727.5 174.5 c 0
770 699.5 m 1
 978.5 699.5 l 1
 286 0 l 1
 77.5 0 l 1
 770 699.5 l 1
EndSplineSet
EndChar

StartChar: ampersand
Encoding: 38 38 80
Width: 775
VWidth: 0
Flags: HMW
LayerCount: 2
Fore
SplineSet
257.5 364 m 2
 214.5 420 183.5 471.5 192 536.5 c 0
 207 636 318 720.5 451.5 720.5 c 0
 574.5 720.5 659.5 639.5 646.5 543.5 c 0
 633.5 436 542.5 393.5 435.5 328 c 0
 370.5 289 263 281 251.5 208.5 c 0
 245.5 174 269 147.5 316.5 145.5 c 0
 435 138.5 551 253.5 626 355.5 c 1
 737.5 253.5 l 1
 638 125.5 473 -16 272.5 -15 c 0
 140.5 -14.5 32 61.5 49.5 190.5 c 0
 69.5 347.5 249.5 382.5 347.5 422 c 0
 406.5 446.5 471 480.5 475.5 523 c 0
 477 542.5 461.5 569.5 429.5 569.5 c 0
 396 569.5 375 546.5 370 520.5 c 0
 362.5 478 399 436.5 441.5 385 c 2
 741 0 l 1
 533 0 l 1
 257.5 364 l 2
EndSplineSet
EndChar

StartChar: question
Encoding: 63 63 81
Width: 649
VWidth: 0
Flags: HMW
LayerCount: 2
Fore
SplineSet
468.5 500.5 m 0
 475 542 444.5 563.5 395.5 564.5 c 0
 332 566.5 265 527 219 476 c 1
 110.5 589 l 1
 199.5 670 302 725.5 421.5 725 c 0
 552.5 724.5 680.5 642 660.5 499.5 c 0
 642.5 374.6315 526.824 310.632 417.727 282.09 c 1
 403 220 l 1
 241.5 220 l 1
 251.5 400 l 1
 285 400 l 2
 377.5 401.5 457 446 468.5 500.5 c 0
174.5 71 m 0
 174.5 125.5 224.5 169.5 290 169.5 c 0
 355.5 169.5 406 126.5 406 71 c 0
 406 15.5 355.5 -29.5 290 -29.5 c 0
 224.5 -29.5 174.5 14.5 174.5 71 c 0
EndSplineSet
EndChar

StartChar: parenleft
Encoding: 40 40 82
Width: 349
VWidth: 0
Flags: HMW
LayerCount: 2
Fore
SplineSet
273 779.5 m 1
 447.5 779 l 1
 361.5 627.5 290 463.5 262 290 c 0
 236.5 126 250.5 -43 299 -200.5 c 1
 129.5 -200.5 l 1
 73 -43.5 56 125 79.5 290 c 0
 106 464.5 175.5 631.5 273 779.5 c 1
EndSplineSet
EndChar

StartChar: parenright
Encoding: 41 41 83
Width: 349
VWidth: 0
Flags: HMW
LayerCount: 2
Fore
SplineSet
131 -199.5 m 1
 -43 -199 l 1
 43 -47.5 114.5 116.5 142.5 290 c 0
 168 454 154 623 105.5 780.5 c 1
 275 780.5 l 1
 331.5 623.5 348.5 455 325 290 c 0
 298.5 115.5 228.5 -51.5 131 -199.5 c 1
EndSplineSet
EndChar

StartChar: asterisk
Encoding: 42 42 84
Width: 574
VWidth: 0
Flags: HMW
LayerCount: 2
Fore
SplineSet
573 606 m 1
 600.5 434 l 1
 340.5 396.5 l 1
 327 484 l 1
 573 606 l 1
529 281 m 1
 369 174.5 l 1
 296.5 418.5 l 1
 369.5 466 l 1
 529 281 l 1
217.5 177.5 m 1
 88.5 287.5 l 1
 301 465.5 l 1
 366.5 412.5 l 1
 217.5 177.5 l 1
67.5 436 m 1
 147.5 605 l 1
 358 479 l 1
 319 398 l 1
 67.5 436 l 1
289 700 m 1
 470.5 699.5 l 1
 380 440.5 l 1
 293 440 l 1
 289 700 l 1
EndSplineSet
EndChar

StartChar: less
Encoding: 60 60 85
Width: 621
VWidth: 0
Flags: HMW
LayerCount: 2
Fore
SplineSet
340 266.5 m 1
 563 175 l 1
 531 -8.5 l 1
 69 203 l 1
 92.5 337 l 1
 627.5 548 l 1
 592 351 l 1
 340 266.5 l 1
EndSplineSet
EndChar

StartChar: greater
Encoding: 62 62 86
Width: 621
VWidth: 0
Flags: HMW
LayerCount: 2
Fore
SplineSet
318.5 268.5 m 1
 95.5 360 l 1
 127 543.5 l 1
 589 332 l 1
 565.5 198 l 1
 31 -13 l 1
 66 184 l 1
 318.5 268.5 l 1
EndSplineSet
EndChar

StartChar: bracketleft
Encoding: 91 91 87
Width: 388
VWidth: 0
Flags: HMW
LayerCount: 2
Fore
SplineSet
350 615 m 1
 247 -55 l 1
 345 -55 l 1
 319 -220 l 1
 29.5 -220 l 1
 184 780 l 1
 473.5 780 l 1
 447.5 615 l 1
 350 615 l 1
EndSplineSet
EndChar

StartChar: bracketright
Encoding: 93 93 88
Width: 388
VWidth: 0
Flags: HMW
LayerCount: 2
Fore
SplineSet
90.5 -55 m 1
 193.5 615 l 1
 95 615 l 1
 121 780 l 1
 410.5 780 l 1
 256 -220 l 1
 -33.5 -220 l 1
 -7.5 -55 l 1
 90.5 -55 l 1
EndSplineSet
EndChar

StartChar: asciicircum
Encoding: 94 94 89
Width: 494
VWidth: 0
Flags: HMW
LayerCount: 2
Fore
SplineSet
317.5 552.5 m 1
 241 440.5 l 1
 67.5 440.5 l 1
 279 709.5 l 1
 398 710 l 1
 517 440 l 1
 355 440 l 1
 317.5 552.5 l 1
EndSplineSet
EndChar

StartChar: underscore
Encoding: 95 95 90
Width: 533
VWidth: 0
Flags: HMW
LayerCount: 2
Fore
SplineSet
-57.5 -166 m 1
 -36 -45 l 1
 501 -45 l 1
 479.5 -166 l 1
 -57.5 -166 l 1
EndSplineSet
EndChar

StartChar: grave
Encoding: 96 96 91
Width: 363
VWidth: 0
Flags: HMW
LayerCount: 2
Fore
SplineSet
122.5 653 m 1
 263.5 710.5 l 1
 387 547 l 1
 277.5 500 l 1
 122.5 653 l 1
EndSplineSet
EndChar

StartChar: braceleft
Encoding: 123 123 92
Width: 437
VWidth: 0
Flags: HMW
LayerCount: 2
Fore
SplineSet
383.5 579.5 m 2
 369.5 489.5 l 2
 350.5 386 319 289 176 280.5 c 1
 178.5 300.5 l 1
 318 290 321 185.5 305.5 89.5 c 2
 291 0 l 2
 286.5 -27 298.5 -49 328 -49.5 c 2
 364.5 -50 l 1
 342.5 -199.5 l 1
 240 -200 l 2
 145.5 -198.5 53.5 -158.5 68.5 -60 c 2
 94.5 110 l 2
 102 174 94.5 201 45 220 c 1
 65 359.5 l 1
 117 376 138.5 405 148 470.5 c 2
 174 640.5 l 2
 189 738 280.5 778 380 780 c 1
 494 780 l 1
 472 630.5 l 1
 439 630.5 l 2
 409 630.5 388 607.5 383.5 579.5 c 2
EndSplineSet
EndChar

StartChar: braceright
Encoding: 125 125 93
Width: 437
VWidth: 0
Flags: HMW
LayerCount: 2
Fore
SplineSet
109.5 0 m 2
 123.5 90.5 l 2
 142.5 194 173.5 291 316.5 299.5 c 1
 314.5 279.5 l 1
 175 290 171.5 394.5 187 490.5 c 2
 201.5 580.5 l 2
 206 607 193.5 629 164.5 629.5 c 2
 128.5 629.5 l 1
 150.5 780 l 1
 253 780 l 2
 347.5 778.5 439 738.5 424 640 c 2
 398 470 l 2
 390.5 406 398 379 447.5 360 c 1
 428 220.5 l 1
 376 204 354 175 344.5 109.5 c 2
 319 -60.5 l 2
 304.5 -158.5 212 -198 112.5 -200 c 1
 -1.5 -200 l 1
 20.5 -50.5 l 1
 53.5 -50.5 l 2
 83.5 -50.5 105 -28 109.5 0 c 2
EndSplineSet
EndChar

StartChar: asciitilde
Encoding: 126 126 94
Width: 558
VWidth: 0
Flags: HMW
LayerCount: 2
Fore
SplineSet
170 155 m 1
 26 161 l 1
 25 168.5 24.5 177 25.5 185.5 c 0
 29.5 226.5 45.5 263.5 74 295 c 0
 107.5 331.5 151.5 358 220.5 357 c 0
 265.5 356.5 296 336.5 337 307.5 c 0
 359.5 292 379 272 398 272 c 0
 415 272 428.5 291.5 431.5 306 c 0
 434 318.5 432 333 430 344 c 1
 573.5 338 l 1
 574.5 329 575.5 319 574.5 309.5 c 0
 570.5 269 556.5 229.5 528.5 198 c 0
 498.5 164.5 459 141.5 402 142 c 0
 359 142.5 325 164.5 282.5 193.5 c 0
 258 210.5 235.5 229 211 228 c 0
 185.5 227 172 204 168 188 c 0
 165.5 174.5 168.5 164.5 170 155 c 1
EndSplineSet
EndChar

StartChar: exclamdown
Encoding: 161 161 95
Width: 359
VWidth: 0
Flags: HMW
LayerCount: 2
Fore
SplineSet
232 -220 m 1
 -4 -220 l 1
 112 230 l 1
 271 230 l 1
 232 -220 l 1
337 404 m 0
 329 343 273 300.5 208 300.5 c 0
 143 300.5 97.5 344 106 406 c 0
 114 467 170 509.5 235 509.5 c 0
 300 509.5 345.5 466 337 404 c 0
EndSplineSet
EndChar

StartChar: cent
Encoding: 162 162 96
Width: 562
VWidth: 0
Flags: HMW
LayerCount: 2
Fore
SplineSet
181.5 38 m 1
 320 38 l 1
 307.5 -112 l 1
 140 -112 l 1
 181.5 38 l 1
237 229.5 m 0
 228 173 265.5 140.5 316 139 c 0
 368.5 137.5 410.5 167.5 446 198 c 1
 420 19 l 1
 382 1 337 -10 281.5 -10 c 0
 130 -9.5 19.5 85 40.5 230.5 c 0
 62 378 195.5 469.5 352 470 c 0
 407 470 450.5 458.5 488 440.5 c 1
 461.5 261 l 1
 435 295.5 406 322 357 322 c 0
 305 322 246.5 283 237 229.5 c 0
260 578 m 1
 427.5 578 l 1
 386.5 428 l 1
 248 428 l 1
 260 578 l 1
EndSplineSet
EndChar

StartChar: sterling
Encoding: 163 163 97
Width: 611
VWidth: 0
Flags: HMW
LayerCount: 2
Fore
SplineSet
100 370 m 1
 481.5 370 l 1
 461 255 l 1
 79 255 l 1
 100 370 l 1
466.5 459.5 m 1
 467 501 461 544.5 402.5 545.5 c 0
 362 546.5 324.5 520.5 316.5 479.5 c 0
 301.5 413 379 364.5 369 273.5 c 0
 352 160 202 77 110 52 c 1
 206.5 174.5 l 1
 540.5 175 l 1
 510 0 l 1
 15.5 0 l 1
 107.5 97 174.5 192 192 309 c 0
 203 394.5 114.5 432 124.5 523.5 c 0
 141 645.5 280.5 709.5 409 709.5 c 0
 548.5 709.5 649 629 647.5 522.5 c 1
 466.5 459.5 l 1
EndSplineSet
EndChar

StartChar: currency
Encoding: 164 164 98
Width: 558
VWidth: 0
Flags: HMW
LayerCount: 2
Fore
SplineSet
72 505 m 1
 150.5 573.5 l 1
 235 463.5 l 1
 161.5 400.5 l 1
 72 505 l 1
64.5 27 m 1
 4.5 102.5 l 1
 120 200.5 l 1
 179 128.5 l 1
 64.5 27 l 1
489 400 m 1
 428.5 474.5 l 1
 544.5 573.5 l 1
 603.5 500.5 l 1
 489 400 l 1
369.5 133 m 1
 447.5 200.5 l 1
 532.5 91.5 l 1
 459 27.5 l 1
 369.5 133 l 1
71 300.5 m 0
 89.5 433 203 540 338.5 540 c 0
 472.5 540 553.5 428 536 299.5 c 0
 517.5 167 404 60 268.5 60 c 0
 134.5 60 53.5 172 71 300.5 c 0
238.5 299 m 0
 233 264 251.5 236.5 288.5 235.5 c 0
 327 234 362.5 264 368.5 301 c 0
 374 336 355.5 363.5 318.5 364.5 c 0
 280 366 244.5 336 238.5 299 c 0
EndSplineSet
EndChar

StartChar: yen
Encoding: 165 165 99
Width: 701
VWidth: 0
Flags: HMW
LayerCount: 2
Fore
SplineSet
57 250 m 1
 77.5 365 l 1
 692.5 365 l 1
 672 250 l 1
 57 250 l 1
31.5 100 m 1
 52 215 l 1
 667 215 l 1
 646.5 100 l 1
 31.5 100 l 1
545.5 699.5 m 1
 800.5 699.5 l 1
 480 271 l 1
 434.5 0 l 1
 211.5 0 l 1
 261 279 l 1
 89 700 l 1
 334 700 l 1
 401 477.5 l 1
 545.5 699.5 l 1
EndSplineSet
EndChar

StartChar: brokenbar
Encoding: 166 166 100
Width: 388
VWidth: 0
Flags: HMW
LayerCount: 2
Fore
SplineSet
187.5 695 m 1
 385 695 l 1
 336 415 l 1
 138.5 415 l 1
 187.5 695 l 1
315 285 m 1
 266 5 l 1
 68.5 5 l 1
 117.5 285 l 1
 315 285 l 1
EndSplineSet
EndChar

StartChar: section
Encoding: 167 167 101
Width: 658
VWidth: 0
Flags: HMW
LayerCount: 2
Fore
SplineSet
510 532 m 1
 481.5 555.5 442.5 577.5 411.5 577 c 0
 390.5 577 366 567.5 365 555 c 0
 364 534.5 413 535 447 527.5 c 0
 522.5 510 575.5 456 565.5 382 c 0
 548.5 269.5 415.5 226 305 223 c 1
 312.5 268 l 1
 344 279.5 385 294.5 391.5 333.5 c 0
 402 389.5 326.5 404.5 282 423.5 c 0
 225 448.5 179.5 496.5 188.5 572.5 c 0
 203 678 314 731 413 731.5 c 0
 490 732 561 704.5 602.5 663 c 1
 510 532 l 1
141.5 180 m 1
 198.5 142.5 256.5 123.5 296.5 125 c 0
 318 125.5 341 133.5 343 146.5 c 0
 346 169 297 173.5 262 181.5 c 0
 187.5 199 113.5 243 123.5 320 c 0
 139 433.5 283 476 393 479 c 1
 386 434 l 1
 355 422.5 312.5 407.5 306.5 368.5 c 0
 297 312 384 305 427 286.5 c 0
 490.5 258.5 539.5 206.5 529.5 129.5 c 0
 514.5 23 394.5 -29 295 -30 c 0
 189 -31 115 0 49 49 c 1
 141.5 180 l 1
EndSplineSet
EndChar

StartChar: dieresis
Encoding: 168 168 102
Width: 520
VWidth: 0
Flags: HMW
LayerCount: 2
Fore
SplineSet
362.5 616 m 0
 369 672 423 712.5 480 712.5 c 0
 537.5 712.5 581.5 671 574.5 614 c 0
 568 558 514.5 517.5 457.5 517.5 c 0
 400 517.5 355.5 559 362.5 616 c 0
100.5 616 m 0
 107 672 161 712.5 218 712.5 c 0
 275.5 712.5 319.5 671 312.5 614 c 0
 306 558 252.5 517.5 195.5 517.5 c 0
 138 517.5 93.5 559 100.5 616 c 0
EndSplineSet
EndChar

StartChar: copyright
Encoding: 169 169 103
Width: 776
VWidth: 0
Flags: HMW
LayerCount: 2
Fore
SplineSet
347 349.5 m 0
 338 291.5 375.5 254.5 432 253 c 0
 486 252 525.5 279 558.5 303.5 c 1
 541 168 l 1
 504.5 145.5 466.5 129 412.5 128.5 c 0
 276 128 187.5 222 204 350.5 c 0
 221 481.5 331.5 572 470.5 572 c 0
 523.5 572 559.5 555.5 594.5 531.5 c 1
 577 396 l 1
 551.5 423.5 521.5 448 471 448 c 0
 412 448 357 410 347 349.5 c 0
130.5 350 m 0
 106.5 189.5 200.5 41.5 372 40.5 c 0
 546.5 39.5 692.5 181 719.5 350 c 0
 743.5 510.5 649.5 658.5 478 659.5 c 0
 303.5 660.5 157.5 519 130.5 350 c 0
74 350 m 0
 100.5 550 270.5 710.5 474.5 710 c 0
 675.5 709.5 800.5 543.5 776 350 c 0
 749.5 150 579 -10.5 375 -10 c 0
 174 -9.5 49.5 156.5 74 350 c 0
EndSplineSet
EndChar

StartChar: registered
Encoding: 174 174 104
Width: 776
VWidth: 0
Flags: HMW
LayerCount: 2
Fore
SplineSet
413.5 310 m 1
 523 310 l 1
 595.5 150 l 1
 449 150 l 1
 413.5 310 l 1
303.5 570 m 1
 434.5 570 l 1
 369 150 l 1
 238 150 l 1
 303.5 570 l 1
370 459.5 m 1
 386.5 569.5 l 1
 471.5 570 l 1
 572.5 568.5 638.5 518 627.5 435.5 c 0
 616.5 347.5 544.5 294.5 438.5 292.5 c 2
 342 292 l 1
 358 390.5 l 1
 433.5 391 l 1
 460.5 392 487 402.5 490.5 427 c 0
 493.5 450 475 459 450.5 460 c 1
 370 459.5 l 1
130.5 350 m 0
 106.5 189.5 200.5 41.5 372 40.5 c 0
 546.5 39.5 692.5 181 719.5 350 c 0
 743.5 510.5 649.5 658.5 478 659.5 c 0
 303.5 660.5 157.5 519 130.5 350 c 0
74 350 m 0
 100.5 550 270.5 710.5 474.5 710 c 0
 675.5 709.5 800.5 543.5 776 350 c 0
 749.5 150 579 -10.5 375 -10 c 0
 174 -9.5 49.5 156.5 74 350 c 0
EndSplineSet
EndChar

StartChar: ordfeminine
Encoding: 170 170 105
Width: 281
VWidth: 0
Flags: HMW
LayerCount: 2
Fore
SplineSet
174 528 m 0
 173 518.5 181.5 513 191 513 c 0
 214 513.5 232.5 529.5 240 554.5 c 1
 243 523.5 l 1
 231.5 483.5 200 455.5 153 455.5 c 0
 106.5 455.5 71 482.5 77 526.5 c 0
 83.5 571.5 132 596.5 183.5 597 c 0
 212.5 597.5 242.5 588.5 261 576 c 1
 254 533.5 l 1
 241 543 228.5 550.5 208.5 550 c 0
 194 550 176 540.5 174 528 c 0
143 611.5 m 1
 123.5 681 l 1
 157 692.5 196 705 236 705 c 0
 294 705 346.5 681.5 342 627.5 c 1
 314.5 460 l 1
 222 460.5 l 1
 248 596 l 1
 247.5 613 243 626.5 221.5 629 c 0
 192.5 632 160 618.5 143 611.5 c 1
EndSplineSet
EndChar

StartChar: ordmasculine
Encoding: 186 186 106
Width: 269
VWidth: 0
Flags: HMW
LayerCount: 2
Fore
SplineSet
88 581 m 0
 97.5 652.5 163.5 699.5 238.5 699.5 c 0
 313 699.5 370.5 651.5 360.5 579 c 0
 351 507 283 460.5 208 460.5 c 0
 133.5 460.5 78 508.5 88 581 c 0
186.5 579 m 0
 184 558.5 194 539.5 213 538.5 c 0
 233 537.5 258 558.5 261 581 c 0
 263.5 601.5 252.5 621.5 233.5 622.5 c 0
 213.5 623.5 189.5 601.5 186.5 579 c 0
EndSplineSet
EndChar

StartChar: guillemotleft
Encoding: 171 171 107
Width: 543
VWidth: 0
Flags: HMW
LayerCount: 2
Fore
SplineSet
394.3835 254.7095 m 1
 507 61 l 1
 381 -11.5 l 1
 259 260.5 l 1
 465 519.5 l 1
 574 440.5 l 1
 394.3835 254.7095 l 1
171.3835 254.7095 m 1
 284 61 l 1
 158 -11.5 l 1
 36 260.5 l 1
 242 519.5 l 1
 350.5 440.5 l 1
 171.3835 254.7095 l 1
EndSplineSet
EndChar

StartChar: guillemotright
Encoding: 187 187 108
Width: 543
VWidth: 0
Flags: HMW
LayerCount: 2
Fore
SplineSet
181.6165 255.2905 m 1
 69 449 l 1
 195.5 521.5 l 1
 317 249.5 l 1
 111.5 -9.5 l 1
 2.5 69.5 l 1
 181.6165 255.2905 l 1
405.1165 255.2905 m 1
 292 449 l 1
 418.5 521.5 l 1
 540.5 249.5 l 1
 334.5 -9.5 l 1
 225.5 69.5 l 1
 405.1165 255.2905 l 1
EndSplineSet
EndChar

StartChar: uni00AD
Encoding: 173 173 109
Width: 203
VWidth: 0
Flags: HMW
LayerCount: 2
Fore
SplineSet
13 200.5 m 1
 24.5 275 l 1
 221.5 275 l 1
 209.5 200.5 l 1
 13 200.5 l 1
EndSplineSet
EndChar

StartChar: logicalnot
Encoding: 172 172 110
Width: 649
VWidth: 0
Flags: HMW
LayerCount: 2
Fore
SplineSet
80.5 255.5 m 1
 106.5 420 l 1
 633 420 l 1
 590.5 175 l 1
 466 175 l 1
 483.5 255.5 l 1
 80.5 255.5 l 1
EndSplineSet
EndChar

StartChar: macron
Encoding: 175 175 111
Width: 528
VWidth: 0
Flags: HMW
LayerCount: 2
Fore
SplineSet
144 555 m 1
 170 720 l 1
 547 720 l 1
 521 555 l 1
 144 555 l 1
EndSplineSet
EndChar

StartChar: degree
Encoding: 176 176 112
Width: 298
VWidth: 0
Flags: HMW
LayerCount: 2
Fore
SplineSet
87.5 596 m 0
 97 667.5 163.5 719.5 239 719.5 c 0
 314.5 719.5 370 666.5 360 594 c 0
 350.5 522 282.5 470.5 206.5 470.5 c 0
 131 470.5 77.5 524 87.5 596 c 0
181 594 m 0
 178.5 572.5 190.5 552.5 212.5 551.5 c 0
 236 550.5 262 572.5 265.5 596 c 0
 268 617.5 255.5 638.5 233.5 639.5 c 0
 210 640.5 184.5 617.5 181 594 c 0
EndSplineSet
EndChar

StartChar: plusminus
Encoding: 177 177 113
Width: 625
VWidth: 0
Flags: HMW
LayerCount: 2
Fore
SplineSet
45.5 10 m 1
 71 170 l 1
 574 170 l 1
 548.5 10 l 1
 45.5 10 l 1
94 325 m 1
 121 495 l 1
 624 495 l 1
 597 325 l 1
 94 325 l 1
295.5 620 m 1
 488 620 l 1
 422.5 200 l 1
 230 200 l 1
 295.5 620 l 1
EndSplineSet
EndChar

StartChar: uni00B2
Encoding: 178 178 114
Width: 432
VWidth: 0
Flags: HMW
LayerCount: 2
Fore
SplineSet
40 282.5 m 1
 247.5 465 l 2
 282 497 321.5 524 327 561.5 c 0
 329 580 320.5 599.5 295.5 600.5 c 0
 264 602.5 242.5 568.5 235.5 540 c 1
 107 541 l 1
 125.5 632 194.5 711.5 309 711.5 c 0
 404 711.5 474 649 462 570.5 c 0
 455.5 524 423.5 488.5 385.5 460.5 c 2
 302 402.5 l 1
 448 401.5 l 1
 427 282 l 1
 40 282.5 l 1
EndSplineSet
EndChar

StartChar: uni00B3
Encoding: 179 179 115
Width: 385
VWidth: 0
Flags: HMW
LayerCount: 2
Fore
SplineSet
212.5 481.5 m 1
 220.5 533.5 l 1
 255.5 536.5 297 552 301.5 581.5 c 0
 303 596 291.5 606.5 272.5 606.5 c 0
 246 606 228.5 587.5 221 566.5 c 1
 99.5 567.5 l 1
 117.5 647.5 183.5 707.5 280.5 708.5 c 0
 369 709 441 664.5 429 589 c 0
 415.5 501.5 308.5 483 212.5 481.5 c 1
210.5 268 m 0
 105 269 51 341.5 56 427 c 1
 182 426.5 l 1
 182 393 194 372.5 223.5 370.5 c 0
 248 369 277.5 384.5 281 410.5 c 0
 288 443 251.5 455.5 206 457.5 c 1
 216 518.5 l 1
 317.5 517 422 491 408 396 c 0
 396.5 315.5 311.5 267 210.5 268 c 0
EndSplineSet
EndChar

StartChar: acute
Encoding: 180 180 116
Width: 363
VWidth: 0
Flags: HMW
LayerCount: 2
Fore
SplineSet
404.5 647 m 1
 210 500.5 l 1
 104.5 553.5 l 1
 272 709.5 l 1
 404.5 647 l 1
EndSplineSet
EndChar

StartChar: mu
Encoding: 181 181 117
Width: 587
VWidth: 0
Flags: HMW
LayerCount: 2
Fore
SplineSet
320 0 m 1
 399.5 460 l 1
 592 460 l 1
 513 0 l 1
 320 0 l 1
250.5 180 m 1
 247.5 148.5 246 119 282 115 c 0
 317.5 111 343.5 145 351.5 179.5 c 1
 380 189 l 1
 362.5 85.5 308.5 -10 188 -11 c 0
 71.5 -12 35 58.5 48 160 c 1
 98.5 460 l 1
 301 460 l 1
 250.5 180 l 1
98.5 460 m 1
 281.5 460 l 1
 147.5 -320 l 1
 -35 -320 l 1
 98.5 460 l 1
EndSplineSet
EndChar

StartChar: paragraph
Encoding: 182 182 118
Width: 706
VWidth: 0
Flags: HMW
LayerCount: 2
Fore
SplineSet
351 590 m 1
 370.5 700 l 1
 616.5 700 l 1
 597 590 l 1
 351 590 l 1
574.5 700 m 1
 742.5 700 l 1
 585 -220 l 1
 416.5 -220 l 1
 574.5 700 l 1
370.5 700 m 1
 539 700 l 1
 381 -220 l 1
 213 -220 l 1
 370.5 700 l 1
302 270.5 m 1
 180 277 94.1945 355.5915 112.5 485.5 c 0
 132.5 621 242.5 700 370.5 700 c 1
 302 270.5 l 1
EndSplineSet
EndChar

StartChar: periodcentered
Encoding: 183 183 119
Width: 326
VWidth: 0
Flags: HMW
LayerCount: 2
Fore
SplineSet
68.5 286 m 0
 77 347.5 133 399.5 199.5 399.5 c 0
 266.5 399.5 309 345 300.5 284 c 0
 292 222.5 236 170.5 169.5 170.5 c 0
 102.5 170.5 60 225 68.5 286 c 0
EndSplineSet
EndChar

StartChar: uni00B9
Encoding: 185 185 120
Width: 475
VWidth: 0
Flags: HMW
LayerCount: 2
Fore
SplineSet
182.5 547.5 m 1
 202.5 660 l 1
 444 704.5 l 1
 369.5 274 l 1
 243.5 274 l 1
 295 572 l 1
 182.5 547.5 l 1
EndSplineSet
EndChar

StartChar: cedilla
Encoding: 184 184 121
Width: 407
VWidth: 0
Flags: HMW
LayerCount: 2
Fore
SplineSet
152.5 77.5 m 1
 297 71.5 l 1
 172.0705 -56.2561 l 1
 186.95 -52.63 203.6475 -50 220.5 -50.5 c 0
 272 -52.5 315.5 -98 307.5 -163 c 0
 297 -238.5 219 -277.5 150 -279.5 c 0
 87 -281 34 -267 -21 -238 c 1
 41 -155 l 1
 67.5 -171.5 104 -181 126.5 -180.5 c 0
 152.5 -180 189.5 -169.5 191 -146 c 0
 192.5 -121.5 155.5 -118.5 135 -118 c 0
 113 -117 73.5 -121.5 35 -131.5 c 1
 152.5 77.5 l 1
EndSplineSet
EndChar

StartChar: questiondown
Encoding: 191 191 122
Width: 649
VWidth: 0
Flags: HMW
LayerCount: 2
Fore
SplineSet
246 199.5 m 0
 239.5 158 270 136.5 319 135.5 c 0
 382.5 133.5 449.5 173 495.5 224 c 1
 604 111 l 1
 515 30 412.5 -25.5 293 -25 c 0
 162 -24.5 34 58 54 200.5 c 0
 72 325.3685 187.676 389.368 296.773 417.91 c 1
 311.5 480 l 1
 473 480 l 1
 463 300 l 1
 429.5 300 l 2
 337 298.5 257.5 254 246 199.5 c 0
535 629 m 0
 527.5 574.5 469.5 530.5 406.5 530.5 c 0
 343.5 530.5 296 575.5 303.5 631 c 0
 311 685.5 368.5 729.5 431.5 729.5 c 0
 494.5 729.5 542.5 684.5 535 629 c 0
EndSplineSet
EndChar

StartChar: multiply
Encoding: 215 215 123
Width: 578
VWidth: 0
Flags: HMW
LayerCount: 2
Fore
SplineSet
121.5 -8.5 m 1
 25.5 113 l 1
 197.5 259 l 1
 75.5 406.5 l 1
 204 519 l 1
 321 368.5 l 1
 489.5 518.5 l 1
 586 397 l 1
 413.5 251 l 1
 535.5 103.5 l 1
 407 -9 l 1
 290.5 141.5 l 1
 121.5 -8.5 l 1
EndSplineSet
EndChar

StartChar: Oslash
Encoding: 216 216 124
Width: 766
VWidth: 0
Flags: HMW
LayerCount: 2
Fore
SplineSet
289 350 m 0
 274.5 259 307 179.5 405 178.5 c 0
 504 177 574.5 252.5 591.5 350 c 0
 606 441 573.5 520.5 475.5 521.5 c 0
 376.5 523 306 447.5 289 350 c 0
60 350 m 0
 92 565 275.5 720.5 497 720 c 0
 713.5 719.5 850.5 558.5 820.5 350 c 0
 788.5 135 604 -30.5 381.5 -30 c 0
 163 -29.5 30 142 60 350 c 0
779.5 759.5 m 1
 851.5 695 l 1
 95 -60 l 1
 25 0 l 1
 779.5 759.5 l 1
EndSplineSet
EndChar

StartChar: Thorn
Encoding: 222 222 125
Width: 630
VWidth: 0
Flags: HMW
LayerCount: 2
Fore
SplineSet
168.5 700 m 1
 351.5 700 l 1
 231.5 0 l 1
 48.5 0 l 1
 168.5 700 l 1
239 425 m 1
 268.5 590 l 1
 392.5 590 l 1
 567 588 668 507.5 644.5 354.5 c 0
 621 201.5 504.5 122 324.5 120 c 1
 187 120 l 1
 216.5 285 l 1
 341 285 l 2
 401.5 286 447.5 300.5 458 355.5 c 0
 468 409.5 432 423 375.5 424.5 c 2
 239 425 l 1
EndSplineSet
EndChar

StartChar: divide
Encoding: 247 247 126
Width: 630
VWidth: 0
Flags: HMW
LayerCount: 2
Fore
SplineSet
277.5 616 m 0
 286 677.5 341.5 729.5 408 729.5 c 0
 475 729.5 517.5 675 509 614 c 0
 500.5 552.5 445 500.5 378.5 500.5 c 0
 311.5 500.5 269 555 277.5 616 c 0
192 116 m 0
 200.5 177.5 256.5 229.5 323 229.5 c 0
 390 229.5 432 175 423.5 114 c 0
 415 52.5 359.5 0.5 293 0.5 c 0
 226 0.5 183.5 55 192 116 c 0
23.5 280 m 1
 53.5 450 l 1
 678 450 l 1
 648 280 l 1
 23.5 280 l 1
EndSplineSet
EndChar

StartChar: oslash
Encoding: 248 248 127
Width: 529
VWidth: 0
Flags: HMW
LayerCount: 2
Fore
SplineSet
39.5 230.5 m 0
 61 382 194.5 470 346 470 c 0
 493.5 470 603.5 379.5 582.5 229.5 c 0
 561 78 427.5 -10 276 -10 c 0
 128.5 -10 18.5 80.5 39.5 230.5 c 0
217.5 229.5 m 0
 209 174.5 239 136.5 290 135.5 c 0
 342.5 134 396 172.5 405 230.5 c 0
 412.5 279 382 323 332 324.5 c 0
 280.5 326 227 281 217.5 229.5 c 0
505.5 509.5 m 1
 568.5 465.5 l 1
 103.5 -53.5 l 1
 42.5 -12 l 1
 505.5 509.5 l 1
EndSplineSet
EndChar

StartChar: circumflex
Encoding: 710 710 128
Width: 465
VWidth: 0
Flags: HMW
LayerCount: 2
Fore
SplineSet
315.5 618.5 m 1
 225 540 l 1
 100 633.5 l 1
 332 770 l 1
 526.5 626.5 l 1
 379.5 539 l 1
 315.5 618.5 l 1
EndSplineSet
EndChar

StartChar: ogonek
Encoding: 731 731 129
Width: 252
VWidth: 0
Flags: HMW
LayerCount: 2
Fore
SplineSet
154.5 -99.5 m 1
 176.5 -181.5 l 1
 153 -202.5 120 -220.5 68.5 -220 c 0
 13 -219 -37.5 -183 -31 -119 c 0
 -22.5 -46 60 -8 126.5 25 c 1
 167 0 l 1
 124.5 -28 88 -56 82 -90.5 c 0
 80.5 -105 84.5 -117.5 101.5 -119 c 0
 118 -120.5 140.5 -109.5 154.5 -99.5 c 1
EndSplineSet
EndChar

StartChar: tilde
Encoding: 732 732 130
Width: 514
VWidth: 0
Flags: HMW
LayerCount: 2
Fore
SplineSet
139 646.5 m 1
 160 695.5 206.5 748 276 746.5 c 0
 332.5 745.5 355.5 691.5 407.5 693 c 0
 439.5 694 464 721 486 748 c 1
 560.5 653.5 l 1
 533 613 470 560 403.5 562.5 c 0
 353 564.5 315.5 622 266 618 c 0
 233.5 615.5 221 586 213 568 c 1
 139 646.5 l 1
EndSplineSet
EndChar

StartChar: ring
Encoding: 730 730 131
Width: 347
VWidth: 0
Flags: HMW
LayerCount: 2
Fore
SplineSet
140 761 m 0
 149.5 832.5 216 884.5 291.5 884.5 c 0
 367 884.5 422.5 831.5 412.5 759 c 0
 403 687 335 635.5 259 635.5 c 0
 183.5 635.5 130 689 140 761 c 0
233.5 759 m 0
 231 737.5 242.5 717.5 264.5 716.5 c 0
 288 715.5 314.5 737.5 318 761 c 0
 320.5 782.5 308 803.5 286 804.5 c 0
 262.5 805.5 237 782.5 233.5 759 c 0
EndSplineSet
EndChar

StartChar: dotaccent
Encoding: 729 729 132
Width: 291
VWidth: 0
Flags: HMW
LayerCount: 2
Fore
SplineSet
153.5 828.5 m 0
 161 884.5 215 924.5 272 924.5 c 0
 329.5 924.5 373 882.5 365.5 825.5 c 0
 358 769.5 304 729.5 247 729.5 c 0
 189.5 729.5 146 771.5 153.5 828.5 c 0
EndSplineSet
EndChar

StartChar: uni2010
Encoding: 8208 8208 133
Width: 223
VWidth: 0
Flags: HMW
LayerCount: 2
Fore
SplineSet
2 155 m 1
 31 320 l 1
 248 320 l 1
 219 155 l 1
 2 155 l 1
EndSplineSet
EndChar

StartChar: endash
Encoding: 8211 8211 134
Width: 786
VWidth: 0
Flags: HMW
LayerCount: 2
Fore
SplineSet
65 155 m 1
 94 320 l 1
 738 320 l 1
 709 155 l 1
 65 155 l 1
EndSplineSet
EndChar

StartChar: figuredash
Encoding: 8210 8210 135
Width: 630
VWidth: 0
Flags: HMW
LayerCount: 2
Fore
SplineSet
65 155 m 1
 94 320 l 1
 578 320 l 1
 549 155 l 1
 65 155 l 1
EndSplineSet
EndChar

StartChar: emdash
Encoding: 8212 8212 136
Width: 941
VWidth: 0
Flags: HMW
LayerCount: 2
Fore
SplineSet
65 155 m 1
 94 320 l 1
 898 320 l 1
 869 155 l 1
 65 155 l 1
EndSplineSet
EndChar

StartChar: minus
Encoding: 8722 8722 137
Width: 577
VWidth: 0
Flags: HMW
LayerCount: 2
Fore
SplineSet
45.5 155 m 1
 74.5 320 l 1
 558.5 320 l 1
 529.5 155 l 1
 45.5 155 l 1
EndSplineSet
EndChar

StartChar: quoteright
Encoding: 8217 8217 138
Width: 354
VWidth: 0
Flags: HMW
LayerCount: 2
Fore
SplineSet
187 700 m 1
 383 699.5 l 1
 234 430.5 l 1
 91.5 430.5 l 1
 187 700 l 1
EndSplineSet
EndChar

StartChar: quoteleft
Encoding: 8216 8216 139
Width: 354
VWidth: 0
Flags: HMW
LayerCount: 2
Fore
SplineSet
305.5 430 m 1
 110 430.5 l 1
 259 699.5 l 1
 401.5 699.5 l 1
 305.5 430 l 1
EndSplineSet
EndChar

StartChar: quotesinglbase
Encoding: 8218 8218 140
Width: 354
VWidth: 0
Flags: HMW
LayerCount: 2
Fore
SplineSet
91 80 m 1
 286.5 79.5 l 1
 137.5 -189.5 l 1
 -4.5 -189.5 l 1
 91 80 l 1
EndSplineSet
EndChar

StartChar: quotedblleft
Encoding: 8220 8220 141
Width: 596
VWidth: 0
Flags: HMW
LayerCount: 2
Fore
SplineSet
305.5 430 m 1
 110 430.5 l 1
 259 699.5 l 1
 401.5 699.5 l 1
 305.5 430 l 1
548 430 m 1
 352.5 430.5 l 1
 501.5 699.5 l 1
 644 699.5 l 1
 548 430 l 1
EndSplineSet
EndChar

StartChar: quotedblright
Encoding: 8221 8221 142
Width: 596
VWidth: 0
Flags: HMW
LayerCount: 2
Fore
SplineSet
187 700 m 1
 383 699.5 l 1
 234 430.5 l 1
 91.5 430.5 l 1
 187 700 l 1
430 700 m 1
 625.5 699.5 l 1
 476.5 430.5 l 1
 334 430.5 l 1
 430 700 l 1
EndSplineSet
EndChar

StartChar: perthousand
Encoding: 8240 8240 143
Width: 1476
VWidth: 0
Flags: HMW
LayerCount: 2
Fore
SplineSet
1059 176.5 m 0
 1074 284.5 1177.5 375.5 1291 375.5 c 0
 1403 375.5 1480.5 281 1466 175.5 c 0
 1451 67.5 1348 -23.5 1234.5 -23.5 c 0
 1122.5 -23.5 1044.5 71 1059 176.5 c 0
1213 174.5 m 0
 1210.5 152 1226.5 129 1251 127.5 c 0
 1277 126 1309 153 1312 177.5 c 0
 1314.5 200 1298.5 223 1274 224.5 c 0
 1248 226 1216 199 1213 174.5 c 0
75.5 525.5 m 0
 90.5 633.5 193.5 724.5 307 724.5 c 0
 419 724.5 497 630 482.5 524.5 c 0
 467.5 416.5 364 325.5 250.5 325.5 c 0
 138.5 325.5 61 420 75.5 525.5 c 0
229 523.5 m 0
 226.5 501 243 478 267.5 476.5 c 0
 293.5 475 325.5 502 328.5 526.5 c 0
 331 549 315 572 290.5 573.5 c 0
 264.5 575 232 548 229 523.5 c 0
574 176.5 m 0
 589 284.5 692 375.5 805.5 375.5 c 0
 917.5 375.5 995 281 980.5 175.5 c 0
 965.5 67.5 862.5 -23.5 749 -23.5 c 0
 637 -23.5 559.5 71 574 176.5 c 0
727.5 174.5 m 0
 725 152 741.5 129 766 127.5 c 0
 792 126 824 153 827 177.5 c 0
 829.5 200 813.5 223 789 224.5 c 0
 763 226 730.5 199 727.5 174.5 c 0
770 699.5 m 1
 978.5 699.5 l 1
 286 0 l 1
 77.5 0 l 1
 770 699.5 l 1
EndSplineSet
EndChar

StartChar: guilsinglleft
Encoding: 8249 8249 144
Width: 339
VWidth: 0
Flags: HMW
LayerCount: 2
Fore
SplineSet
171.3835 254.7095 m 1
 284 61 l 1
 158 -11.5 l 1
 36 260.5 l 1
 242 519.5 l 1
 350.5 440.5 l 1
 171.3835 254.7095 l 1
EndSplineSet
EndChar

StartChar: guilsinglright
Encoding: 8250 8250 145
Width: 339
VWidth: 0
Flags: HMW
LayerCount: 2
Fore
SplineSet
201.1165 255.2905 m 1
 88.5 449 l 1
 214.5 521.5 l 1
 336.5 249.5 l 1
 130.5 -9.5 l 1
 22 69.5 l 1
 201.1165 255.2905 l 1
EndSplineSet
EndChar

StartChar: uni2031
Encoding: 8241 8241 146
Width: 1961
VWidth: 0
Flags: HMW
LayerCount: 2
Fore
SplineSet
1544.5 176.5 m 0
 1559.5 284.5 1662.5 375.5 1776 375.5 c 0
 1888 375.5 1965.5 281 1951 175.5 c 0
 1936 67.5 1833 -23.5 1719.5 -23.5 c 0
 1607.5 -23.5 1530 71 1544.5 176.5 c 0
1698 174.5 m 0
 1695.5 152 1711.5 129 1736 127.5 c 0
 1762 126 1794.5 153 1797.5 177.5 c 0
 1800 200 1784 223 1759.5 224.5 c 0
 1733.5 226 1701 199 1698 174.5 c 0
1059 176.5 m 0
 1074 284.5 1177.5 375.5 1291 375.5 c 0
 1403 375.5 1480.5 281 1466 175.5 c 0
 1451 67.5 1348 -23.5 1234.5 -23.5 c 0
 1122.5 -23.5 1044.5 71 1059 176.5 c 0
1213 174.5 m 0
 1210.5 152 1226.5 129 1251 127.5 c 0
 1277 126 1309 153 1312 177.5 c 0
 1314.5 200 1298.5 223 1274 224.5 c 0
 1248 226 1216 199 1213 174.5 c 0
75.5 525.5 m 0
 90.5 633.5 193.5 724.5 307 724.5 c 0
 419 724.5 497 630 482.5 524.5 c 0
 467.5 416.5 364 325.5 250.5 325.5 c 0
 138.5 325.5 61 420 75.5 525.5 c 0
229 523.5 m 0
 226.5 501 243 478 267.5 476.5 c 0
 293.5 475 325.5 502 328.5 526.5 c 0
 331 549 315 572 290.5 573.5 c 0
 264.5 575 232 548 229 523.5 c 0
574 176.5 m 0
 589 284.5 692 375.5 805.5 375.5 c 0
 917.5 375.5 995 281 980.5 175.5 c 0
 965.5 67.5 862.5 -23.5 749 -23.5 c 0
 637 -23.5 559.5 71 574 176.5 c 0
727.5 174.5 m 0
 725 152 741.5 129 766 127.5 c 0
 792 126 824 153 827 177.5 c 0
 829.5 200 813.5 223 789 224.5 c 0
 763 226 730.5 199 727.5 174.5 c 0
770 699.5 m 1
 978.5 699.5 l 1
 286 0 l 1
 77.5 0 l 1
 770 699.5 l 1
EndSplineSet
EndChar

StartChar: uni203D
Encoding: 8253 8253 147
Width: 649
VWidth: 0
Flags: HMW
LayerCount: 2
Fore
SplineSet
484.5 470.5 m 0
 496 533.5 450.5 564 384.5 564.5 c 0
 320.5 565.5 258.5 535.5 219 476.5 c 1
 110.5 589 l 1
 175.5 664 295.5 723.5 419 723 c 0
 549.5 722.5 680.5 642 660.5 499.5 c 0
 637 335.5 448.5 274.5 316.5 270.5 c 1
 327.5 349.5 l 1
 392.5 356 471 396.5 484.5 470.5 c 0
276 500 m 1
 446.5 499.5 l 1
 366.5 220 l 1
 258 220 l 1
 276 500 l 1
178.5 76 m 0
 186.5 135.5 245 179.5 309.5 179.5 c 0
 374 179.5 422 134 414 74 c 0
 406 14.5 347.5 -29.5 283 -29.5 c 0
 218.5 -29.5 170.5 16 178.5 76 c 0
EndSplineSet
EndChar

StartChar: Euro
Encoding: 8364 8364 148
Width: 679
VWidth: 0
Flags: HMW
LayerCount: 2
Fore
SplineSet
108 366 m 1
 127 472 l 1
 602 472 l 1
 583 366 l 1
 108 366 l 1
63 228 m 1
 82 334 l 1
 563 334 l 1
 544 228 l 1
 63 228 l 1
330 350 m 0
 318 246.5 329.5 154 420.5 151 c 0
 479 149 534.5 177 580 211 c 1
 551.5 16 l 1
 505.5 -8 455 -25 401.5 -25 c 0
 195.5 -25.5 122.5 166 147.5 350 c 0
 176 545.5 312.5 726.5 518 726 c 0
 570.5 726 617.5 709.5 662 684.5 c 1
 632.5 488 l 1
 596.5 526.5 553 550.5 499.5 550 c 0
 407.5 549 346.5 465 330 350 c 0
EndSplineSet
EndChar

StartChar: fraction
Encoding: 8260 8260 149
Width: 722
VWidth: 0
Flags: HMW
LayerCount: 2
Fore
SplineSet
650.5 699.5 m 1
 810.5 699.5 l 1
 186 0 l 1
 26 0 l 1
 650.5 699.5 l 1
EndSplineSet
EndChar

StartChar: onequarter
Encoding: 188 188 150
Width: 838
VWidth: 0
Flags: HMW
LayerCount: 2
Fore
SplineSet
707 699.5 m 1
 828.5 699.5 l 1
 203.5 0 l 1
 82 0 l 1
 707 699.5 l 1
83.5 547.5 m 1
 103.5 660 l 1
 345 704.5 l 1
 270.5 274 l 1
 144.5 274 l 1
 196 572 l 1
 83.5 547.5 l 1
378.5 69.5 m 1
 499.5 158.5 l 1
 681 159 l 1
 695 180 l 1
 818 180 l 1
 798 69 l 1
 378.5 69.5 l 1
524.5 116.5 m 1
 373.5 64.5 l 1
 683.5 419.5 l 1
 795 420 l 1
 722 0 l 1
 584.5 0 l 1
 600 90.5 l 1
 618.5 96.5 l 1
 643.5 243.5 l 1
 524.5 116.5 l 1
EndSplineSet
EndChar

StartChar: onehalf
Encoding: 189 189 151
Width: 911
VWidth: 0
Flags: HMW
LayerCount: 2
Fore
SplineSet
707 699.5 m 1
 828.5 699.5 l 1
 203.5 0 l 1
 82 0 l 1
 707 699.5 l 1
83.5 547.5 m 1
 103.5 660 l 1
 345 704.5 l 1
 270.5 274 l 1
 144.5 274 l 1
 196 572 l 1
 83.5 547.5 l 1
465.5 2.5 m 1
 673.5 185 l 2
 708 217 747.5 244 753 281.5 c 0
 755 300 746 319.5 721 320.5 c 0
 689.5 322.5 668.5 288.5 661.5 260 c 1
 532.5 261 l 1
 551 352 620.5 431.5 735 431.5 c 0
 830 431.5 899.5 369 887.5 290.5 c 0
 881 244 849 208.5 811 180.5 c 2
 728 122.5 l 1
 874 121.5 l 1
 853 2 l 1
 465.5 2.5 l 1
EndSplineSet
EndChar

StartChar: threequarters
Encoding: 190 190 152
Width: 887
VWidth: 0
Flags: HMW
LayerCount: 2
Fore
SplineSet
767 699.5 m 1
 888.5 699.5 l 1
 263.5 0 l 1
 142.5 0 l 1
 767 699.5 l 1
222.5 481.5 m 1
 230.5 533.5 l 1
 265.5 536.5 306.5 552 311 581.5 c 0
 312.5 596 301 606.5 282 606.5 c 0
 255.5 606 238 587.5 230.5 566.5 c 1
 109 567.5 l 1
 127 647.5 193.5 707.5 290.5 708.5 c 0
 379 709 450.5 664.5 438.5 589 c 0
 425 501.5 318.5 483 222.5 481.5 c 1
220 268 m 0
 114.5 269 61 341.5 66 427 c 1
 191.5 426.5 l 1
 191.5 393 203.5 372.5 233 370.5 c 0
 257.5 369 287 384.5 290.5 410.5 c 0
 297.5 443 261.5 455.5 216 457.5 c 1
 225.5 518.5 l 1
 327 517 431.5 491 417.5 396 c 0
 406 315.5 321 267 220 268 c 0
429 69.5 m 1
 550 158.5 l 1
 731.5 159 l 1
 745.5 180 l 1
 868.5 180 l 1
 848.5 69 l 1
 429 69.5 l 1
575 116.5 m 1
 424 64.5 l 1
 734 419.5 l 1
 845.5 420 l 1
 772.5 0 l 1
 635 0 l 1
 650.5 90.5 l 1
 669 96.5 l 1
 694 243.5 l 1
 575 116.5 l 1
EndSplineSet
EndChar

StartChar: uni2150
Encoding: 8528 8528 153
Width: 972
VWidth: 0
Flags: HMW
LayerCount: 2
Fore
SplineSet
697.5 699.5 m 1
 857.5 699.5 l 1
 232.5 0 l 1
 72.5 0 l 1
 697.5 699.5 l 1
83.5 547.5 m 1
 103.5 660 l 1
 345 704.5 l 1
 270.5 274 l 1
 144.5 274 l 1
 196 572 l 1
 83.5 547.5 l 1
616.5 297 m 1
 638 420 l 1
 1004.5 419.5 l 1
 734.5 0 l 1
 587.5 0 l 1
 788 296.5 l 1
 616.5 297 l 1
EndSplineSet
EndChar

StartChar: uni2151
Encoding: 8529 8529 154
Width: 916
VWidth: 0
Flags: HMW
LayerCount: 2
Fore
SplineSet
687.5 699.5 m 1
 847.5 699.5 l 1
 223 0 l 1
 63 0 l 1
 687.5 699.5 l 1
83.5 547.5 m 1
 103.5 660 l 1
 345 704.5 l 1
 270.5 274 l 1
 144.5 274 l 1
 196 572 l 1
 83.5 547.5 l 1
782.5 270 m 0
 786 298.5 770 321 741 322.5 c 0
 710.5 324.5 677 298 673 268 c 0
 669.5 239.5 686.5 216 715.5 214.5 c 0
 746 212.5 778.5 240 782.5 270 c 0
704.5 5.5 m 1
 531 5.5 l 1
 691 141.5 l 1
 727 158 l 1
 703.5 140.5 685 133 656.5 133 c 0
 589.5 133 536 192 544.5 269.5 c 0
 557.5 375 650.5 433.5 750.5 433.5 c 0
 849.5 433.5 926.5 373.5 912 268.5 c 0
 904 215.5 868 173 831 134 c 2
 704.5 5.5 l 1
EndSplineSet
EndChar

StartChar: uni2152
Encoding: 8530 8530 155
Width: 1251
VWidth: 0
Flags: HMW
LayerCount: 2
Fore
SplineSet
687.5 699.5 m 1
 847.5 699.5 l 1
 223 0 l 1
 63 0 l 1
 687.5 699.5 l 1
83.5 547.5 m 1
 103.5 660 l 1
 345 704.5 l 1
 270.5 274 l 1
 144.5 274 l 1
 196 572 l 1
 83.5 547.5 l 1
588 274.5 m 1
 608.5 387 l 1
 849.5 431.5 l 1
 775 1 l 1
 649 1 l 1
 700.5 299 l 1
 588 274.5 l 1
988.5 209.5 m 0
 983.5 163 983.5 105.5 1023.5 102.5 c 0
 1065 99.5 1097 159 1104 210.5 c 0
 1109 257 1109 314.5 1069 317.5 c 0
 1027.5 320.5 995.5 261 988.5 209.5 c 0
864 210.5 m 0
 880 335.5 962 429 1077.5 429 c 0
 1198.5 429 1243 330.5 1228 209.5 c 0
 1211.5 84 1134 -9 1014.5 -9 c 0
 897.5 -9 849 90 864 210.5 c 0
EndSplineSet
EndChar

StartChar: onethird
Encoding: 8531 8531 156
Width: 917
VWidth: 0
Flags: HMW
LayerCount: 2
Fore
SplineSet
686.5 699.5 m 1
 846.5 699.5 l 1
 222 0 l 1
 62 0 l 1
 686.5 699.5 l 1
83.5 547.5 m 1
 103.5 660 l 1
 345 704.5 l 1
 270.5 274 l 1
 144.5 274 l 1
 196 572 l 1
 83.5 547.5 l 1
693.5 201.5 m 1
 701.5 253.5 l 1
 736.5 256.5 778 272 782.5 301.5 c 0
 784 316 772.5 326.5 753.5 326.5 c 0
 727 326 709.5 307.5 702 286.5 c 1
 580.5 287.5 l 1
 598.5 367.5 664.5 427.5 761.5 428.5 c 0
 850 429 922 384.5 910 309 c 0
 896.5 221.5 789.5 203 693.5 201.5 c 1
691.5 -12 m 0
 586 -11 532.5 61.5 537.5 147 c 1
 663 146.5 l 1
 663 113 675 92.5 704.5 90.5 c 0
 729 89 758.5 104.5 762 130.5 c 0
 769 163 733 175.5 687.5 177.5 c 1
 697 238.5 l 1
 798.5 237 903 211 889 116 c 0
 877.5 35.5 792.5 -13 691.5 -12 c 0
EndSplineSet
EndChar

StartChar: twothirds
Encoding: 8532 8532 157
Width: 1050
VWidth: 0
Flags: HMW
LayerCount: 2
Fore
SplineSet
840 699.5 m 1
 1000 699.5 l 1
 375 0 l 1
 215 0 l 1
 840 699.5 l 1
44.5 282.5 m 1
 252.5 465 l 2
 287 497 326.5 524 332 561.5 c 0
 334 580 325 599.5 300 600.5 c 0
 268.5 602.5 247.5 568.5 240.5 540 c 1
 111.5 541 l 1
 130 632 199.5 711.5 314 711.5 c 0
 409 711.5 478.5 649 466.5 570.5 c 0
 460 524 428 488.5 390 460.5 c 2
 307 402.5 l 1
 453 401.5 l 1
 432 282 l 1
 44.5 282.5 l 1
826.5 201.5 m 1
 834.5 253.5 l 1
 869.5 256.5 911 272 915.5 301.5 c 0
 917 316 905.5 326.5 886.5 326.5 c 0
 860 326 842.5 307.5 835 286.5 c 1
 713.5 287.5 l 1
 731.5 367.5 797.5 427.5 894.5 428.5 c 0
 983 429 1055 384.5 1043 309 c 0
 1029.5 221.5 922.5 203 826.5 201.5 c 1
824.5 -12 m 0
 719 -11 665 61.5 670 147 c 1
 796 146.5 l 1
 796 113 808 92.5 837.5 90.5 c 0
 862 89 891.5 104.5 895 130.5 c 0
 902 163 866 175.5 820.5 177.5 c 1
 830 238.5 l 1
 931.5 237 1036 211 1022 116 c 0
 1010.5 35.5 925.5 -13 824.5 -12 c 0
EndSplineSet
EndChar

StartChar: uni2155
Encoding: 8533 8533 158
Width: 906
VWidth: 0
Flags: HMW
LayerCount: 2
Fore
SplineSet
687.5 699.5 m 1
 847.5 699.5 l 1
 223 0 l 1
 63 0 l 1
 687.5 699.5 l 1
83.5 547.5 m 1
 103.5 660 l 1
 345 704.5 l 1
 270.5 274 l 1
 144.5 274 l 1
 196 572 l 1
 83.5 547.5 l 1
884.5 129.5 m 0
 871.5 34 771 -9.5 687 -10.5 c 0
 619 -11.5 563 5 513 24.5 c 1
 565 139 l 1
 600.5 119.5 635 109 662.5 109 c 0
 697.5 109 743 117 745.5 149.5 c 0
 747.5 178.5 709.5 183.5 684 184 c 0
 648 185.5 599.5 178 556.5 165.5 c 1
 652.5 221.5 l 1
 689 250.5 728.5 266 775.5 265 c 0
 844 263 894 208 884.5 129.5 c 0
735.5 303.5 m 1
 682 211 l 1
 550 160.5 l 1
 655 417.5 l 1
 922 418 l 1
 901.5 304 l 1
 735.5 303.5 l 1
EndSplineSet
EndChar

StartChar: uni2156
Encoding: 8534 8534 159
Width: 1053
VWidth: 0
Flags: HMW
LayerCount: 2
Fore
SplineSet
840 699.5 m 1
 1000 699.5 l 1
 375 0 l 1
 215 0 l 1
 840 699.5 l 1
44.5 282.5 m 1
 252.5 465 l 2
 287 497 326.5 524 332 561.5 c 0
 334 580 325 599.5 300 600.5 c 0
 268.5 602.5 247.5 568.5 240.5 540 c 1
 111.5 541 l 1
 130 632 199.5 711.5 314 711.5 c 0
 409 711.5 478.5 649 466.5 570.5 c 0
 460 524 428 488.5 390 460.5 c 2
 307 402.5 l 1
 453 401.5 l 1
 432 282 l 1
 44.5 282.5 l 1
1017.5 129.5 m 0
 1004.5 34 904 -9.5 820 -10.5 c 0
 752 -11.5 696 5 646 24.5 c 1
 698 139 l 1
 733.5 119.5 768 109 795.5 109 c 0
 830.5 109 876 117 878.5 149.5 c 0
 880.5 178.5 842.5 183.5 817 184 c 0
 781 185.5 732 178 689 165.5 c 1
 785.5 221.5 l 1
 822 250.5 861.5 266 908.5 265 c 0
 977 263 1027 208 1017.5 129.5 c 0
868.5 303.5 m 1
 815 211 l 1
 683 160.5 l 1
 788 417.5 l 1
 1054.5 418 l 1
 1034.5 304 l 1
 868.5 303.5 l 1
EndSplineSet
EndChar

StartChar: uni2157
Encoding: 8535 8535 160
Width: 961
VWidth: 0
Flags: HMW
LayerCount: 2
Fore
SplineSet
752.5 699.5 m 1
 912.5 699.5 l 1
 288 0 l 1
 128 0 l 1
 752.5 699.5 l 1
217.5 481.5 m 1
 225.5 533.5 l 1
 260.5 536.5 301.5 552 306 581.5 c 0
 307.5 596 296 606.5 277 606.5 c 0
 250.5 606 233 587.5 225.5 566.5 c 1
 104 567.5 l 1
 122 647.5 188.5 707.5 285.5 708.5 c 0
 374 709 446 664.5 434 589 c 0
 420.5 501.5 313.5 483 217.5 481.5 c 1
215.5 268 m 0
 110 269 56 341.5 61 427 c 1
 187 426.5 l 1
 187 393 198.5 372.5 228 370.5 c 0
 252.5 369 282.5 384.5 286 410.5 c 0
 293 443 256.5 455.5 211 457.5 c 1
 221 518.5 l 1
 322.5 517 426.5 491 412.5 396 c 0
 401 315.5 316.5 267 215.5 268 c 0
920.5 129.5 m 0
 907.5 34 807 -9.5 723 -10.5 c 0
 655 -11.5 599 5 549 24.5 c 1
 601 139 l 1
 636.5 119.5 671 109 698.5 109 c 0
 733.5 109 779 117 781.5 149.5 c 0
 783.5 178.5 745.5 183.5 720 184 c 0
 684 185.5 635 178 592 165.5 c 1
 688.5 221.5 l 1
 725 250.5 764.5 266 811.5 265 c 0
 880 263 930 208 920.5 129.5 c 0
771.5 303.5 m 1
 718 211 l 1
 585.5 160.5 l 1
 691 417.5 l 1
 957.5 418 l 1
 937.5 304 l 1
 771.5 303.5 l 1
EndSplineSet
EndChar

StartChar: uni2158
Encoding: 8536 8536 161
Width: 1073
VWidth: 0
Flags: HMW
LayerCount: 2
Fore
SplineSet
825 698.5 m 1
 985 698.5 l 1
 360.5 -0.5 l 1
 200.5 -0.5 l 1
 825 698.5 l 1
43 349.5 m 1
 163.5 438.5 l 1
 345.5 439 l 1
 359.5 460 l 1
 482.5 460 l 1
 462.5 349 l 1
 43 349.5 l 1
189 396.5 m 1
 38 344.5 l 1
 348 699.5 l 1
 459.5 700 l 1
 386.5 280 l 1
 249 280 l 1
 264.5 370.5 l 1
 283 376.5 l 1
 308 523.5 l 1
 189 396.5 l 1
1041.5 128.5 m 0
 1028.5 33 928 -10.5 844 -11.5 c 0
 776 -12.5 720 4 670 23.5 c 1
 722.5 138 l 1
 758 118.5 792 108 819.5 108 c 0
 854.5 108 900 116 902.5 148.5 c 0
 904.5 177.5 866.5 182.5 841 183 c 0
 805 184.5 756.5 177 713.5 164.5 c 1
 809.5 220.5 l 1
 846 249.5 885.5 265 932.5 264 c 0
 1001 262 1051 207 1041.5 128.5 c 0
892.5 302.5 m 1
 839 210 l 1
 707 159.5 l 1
 812 416.5 l 1
 1079 417 l 1
 1058.5 303 l 1
 892.5 302.5 l 1
EndSplineSet
EndChar

StartChar: uni2159
Encoding: 8537 8537 162
Width: 925
VWidth: 0
Flags: HMW
LayerCount: 2
Fore
SplineSet
716.5 699.5 m 1
 876.5 699.5 l 1
 252 0 l 1
 92 0 l 1
 716.5 699.5 l 1
83.5 547.5 m 1
 103.5 660 l 1
 345 704.5 l 1
 270.5 274 l 1
 144.5 274 l 1
 196 572 l 1
 83.5 547.5 l 1
657.5 150 m 0
 654 121.5 671 99 700 97.5 c 0
 730.5 95.5 763 122 767 152 c 0
 770.5 180.5 755 203.5 726 205.5 c 0
 695.5 207.5 661.5 180 657.5 150 c 0
736.5 414.5 m 1
 909.5 414.5 l 1
 750.5 278.5 l 1
 714 262 l 1
 737.5 279 755 286.5 783.5 287 c 0
 850.5 288.5 905 227.5 896.5 150.5 c 0
 884 45 790.5 -13.5 690.5 -13.5 c 0
 591.5 -13.5 514.5 46.5 529 151.5 c 0
 537 204.5 572 247 609 286 c 2
 736.5 414.5 l 1
EndSplineSet
EndChar

StartChar: uni215A
Encoding: 8538 8538 163
Width: 947
VWidth: 0
Flags: HMW
LayerCount: 2
Fore
SplineSet
767 699.5 m 1
 927 699.5 l 1
 302.5 0 l 1
 142.5 0 l 1
 767 699.5 l 1
424.5 409.5 m 0
 411.5 314 311.5 270.5 227.5 269.5 c 0
 159.5 268.5 103.5 285 53.5 304.5 c 1
 105.5 419 l 1
 141 399.5 175.5 389 203 389 c 0
 238 389 283.5 397 286 429.5 c 0
 288 458.5 250 463.5 224.5 464 c 0
 188.5 465.5 139.5 458 96.5 445.5 c 1
 193 501.5 l 1
 229.5 530.5 268.5 546 315.5 545 c 0
 384 543 434 488 424.5 409.5 c 0
275.5 583.5 m 1
 222 491 l 1
 90 440.5 l 1
 195 697.5 l 1
 462 698 l 1
 441.5 584 l 1
 275.5 583.5 l 1
679 150 m 0
 675.5 121.5 692.5 99 721.5 97.5 c 0
 752 95.5 784.5 122 788.5 152 c 0
 792 180.5 776 203.5 747 205.5 c 0
 716.5 207.5 683 180 679 150 c 0
758 414.5 m 1
 930.5 414.5 l 1
 772 278.5 l 1
 735.5 262 l 1
 759 279 776.5 286.5 805 287 c 0
 872 288.5 926.5 227.5 918 150.5 c 0
 905.5 45 812 -13.5 712 -13.5 c 0
 613 -13.5 536 46.5 550.5 151.5 c 0
 558.5 204.5 593.5 247 630.5 286 c 2
 758 414.5 l 1
EndSplineSet
EndChar

StartChar: oneeighth
Encoding: 8539 8539 164
Width: 941
VWidth: 0
Flags: HMW
LayerCount: 2
Fore
SplineSet
716.5 699.5 m 1
 876.5 699.5 l 1
 252 0 l 1
 92 0 l 1
 716.5 699.5 l 1
83.5 547.5 m 1
 103.5 660 l 1
 345 704 l 1
 270.5 274 l 1
 144.5 274 l 1
 196 572 l 1
 83.5 547.5 l 1
616 320 m 0
 626 396 707 431.5 784.5 431.5 c 0
 859.5 431.5 936.5 396 925.5 318 c 0
 915.5 239.5 826.5 201.5 756 201.5 c 0
 688 201.5 606 240 616 320 c 0
736 306 m 0
 734 289.5 741 271 759.5 270 c 0
 779 269 799 289.5 801.5 308 c 0
 803.5 325 795.5 341 777.5 342 c 0
 758 343 739 324.5 736 306 c 0
566.5 115 m 0
 577.5 203.5 678.5 239.5 752 239.5 c 0
 823 239.5 916.5 203 905 113 c 0
 894 31 802 -11.5 719.5 -11.5 c 0
 640 -11.5 555 31.5 566.5 115 c 0
700.5 134 m 0
 697.5 113 707.5 94 729 93 c 0
 751.5 92 775 113 778 136 c 0
 780.5 154 769.5 173 749 174 c 0
 727 175 704 153.5 700.5 134 c 0
EndSplineSet
EndChar

StartChar: threeeighths
Encoding: 8540 8540 165
Width: 986
VWidth: 0
Flags: HMW
LayerCount: 2
Fore
SplineSet
762.5 699.5 m 1
 922.5 699.5 l 1
 297.5 0 l 1
 137.5 0 l 1
 762.5 699.5 l 1
217.5 481.5 m 1
 225.5 533.5 l 1
 260.5 536.5 301.5 552 306 581.5 c 0
 307.5 596 296 606.5 277 606.5 c 0
 250.5 606 233 587.5 225.5 566.5 c 1
 104.5 567.5 l 1
 122.5 647.5 188.5 707.5 285.5 708.5 c 0
 374 709 446 664.5 434 589 c 0
 420.5 501.5 313.5 483 217.5 481.5 c 1
215.5 268 m 0
 110 269 56 341.5 61 427 c 1
 187 426.5 l 1
 187 393 198.5 372.5 228 370.5 c 0
 252.5 369 282.5 384.5 286 410.5 c 0
 293 443 256.5 455.5 211 457.5 c 1
 221 518.5 l 1
 322.5 517 426.5 491 412.5 396 c 0
 401 315.5 316.5 267 215.5 268 c 0
661.5 320 m 0
 671.5 396 753 431.5 830.5 431.5 c 0
 905.5 431.5 982 396 971 318 c 0
 961 239.5 872 201.5 801.5 201.5 c 0
 733.5 201.5 651.5 240 661.5 320 c 0
781.5 306 m 0
 779.5 289.5 786.5 271 805 270 c 0
 824.5 269 844.5 289.5 847 308 c 0
 849 325 841.5 341 823.5 342 c 0
 804 343 784.5 324.5 781.5 306 c 0
612 115 m 0
 623 203.5 724 239.5 797.5 239.5 c 0
 868.5 239.5 962 203 950.5 113 c 0
 939.5 31 847.5 -11.5 765 -11.5 c 0
 685.5 -11.5 600.5 31.5 612 115 c 0
746 134 m 0
 743 113 753 94 774.5 93 c 0
 797 92 821 113 824 136 c 0
 826.5 154 815 173 794.5 174 c 0
 772.5 175 749.5 153.5 746 134 c 0
EndSplineSet
EndChar

StartChar: fiveeighths
Encoding: 8541 8541 166
Width: 991
VWidth: 0
Flags: HMW
LayerCount: 2
Fore
SplineSet
767 699.5 m 1
 927 699.5 l 1
 302.5 0 l 1
 142.5 0 l 1
 767 699.5 l 1
415 409.5 m 0
 402 314 301.5 270.5 217.5 269.5 c 0
 149.5 268.5 93.5 285 43.5 304.5 c 1
 95.5 419 l 1
 131 399.5 165.5 389 193 389 c 0
 228 389 273.5 397 276 429.5 c 0
 278 458.5 240 463.5 214.5 464 c 0
 178.5 465.5 130 458 87 445.5 c 1
 183 501.5 l 1
 219.5 530.5 259 546 306 545 c 0
 374.5 543 424.5 488 415 409.5 c 0
266 583.5 m 1
 212.5 491 l 1
 80.5 440.5 l 1
 185.5 697.5 l 1
 452.5 698 l 1
 432 584 l 1
 266 583.5 l 1
666.5 320 m 0
 676.5 396 757.5 431.5 835 431.5 c 0
 910 431.5 987 396 976 318 c 0
 966 239.5 877 201.5 806.5 201.5 c 0
 738.5 201.5 656.5 240 666.5 320 c 0
786 306 m 0
 784 289.5 791.5 271 810 270 c 0
 829.5 269 849.5 289.5 852 308 c 0
 854 325 846 341 828 342 c 0
 808.5 343 789 324.5 786 306 c 0
617 115 m 0
 628 203.5 728.5 239.5 802 239.5 c 0
 873 239.5 967 203 955.5 113 c 0
 944.5 31 852.5 -11.5 770 -11.5 c 0
 690.5 -11.5 605.5 31.5 617 115 c 0
751 134 m 0
 748 113 758 94 779.5 93 c 0
 802 92 825.5 113 828.5 136 c 0
 831 154 820 173 799.5 174 c 0
 777.5 175 754.5 153.5 751 134 c 0
EndSplineSet
EndChar

StartChar: seveneighths
Encoding: 8542 8542 167
Width: 885
VWidth: 0
Flags: HMW
LayerCount: 2
Fore
SplineSet
650.5 699.5 m 1
 810.5 699.5 l 1
 186 0 l 1
 26 0 l 1
 650.5 699.5 l 1
87.5 577 m 1
 109.5 700 l 1
 476 699.5 l 1
 205.5 280.5 l 1
 59 280.5 l 1
 259.5 576.5 l 1
 87.5 577 l 1
560 320 m 0
 570 396 651 431.5 728.5 431.5 c 0
 803.5 431.5 880 396 869 318 c 0
 859 239.5 770 201.5 699.5 201.5 c 0
 631.5 201.5 550 240 560 320 c 0
679.5 306 m 0
 677.5 289.5 684.5 271 703 270 c 0
 722.5 269 743 289.5 745.5 308 c 0
 747.5 325 739.5 341 721.5 342 c 0
 702 343 682.5 324.5 679.5 306 c 0
510 115 m 0
 521 203.5 622 239.5 695.5 239.5 c 0
 766.5 239.5 860 203 848.5 113 c 0
 837.5 31 746 -11.5 663.5 -11.5 c 0
 584 -11.5 498.5 31.5 510 115 c 0
644.5 134 m 0
 641.5 113 651.5 94 673 93 c 0
 695.5 92 719 113 722 136 c 0
 724.5 154 713.5 173 693 174 c 0
 671 175 648 153.5 644.5 134 c 0
EndSplineSet
EndChar

StartChar: uni2074
Encoding: 8308 8308 168
Width: 437
VWidth: 0
Flags: HMW
LayerCount: 2
Fore
SplineSet
33.5 349.5 m 1
 154 438.5 l 1
 336 439 l 1
 349.5 460 l 1
 473 460 l 1
 453 349 l 1
 33.5 349.5 l 1
179.5 396.5 m 1
 28 344.5 l 1
 338.5 699.5 l 1
 449.5 700 l 1
 377 280 l 1
 239.5 280 l 1
 255 370.5 l 1
 273 376.5 l 1
 298.5 523.5 l 1
 179.5 396.5 l 1
EndSplineSet
EndChar

StartChar: uni2075
Encoding: 8309 8309 169
Width: 394
VWidth: 0
Flags: HMW
LayerCount: 2
Fore
SplineSet
415 409.5 m 0
 402 314 301.5 270.5 217.5 269.5 c 0
 149.5 268.5 93.5 285 43.5 304.5 c 1
 95.5 419 l 1
 131 399.5 165.5 389 193 389 c 0
 228 389 273.5 397 276 429.5 c 0
 278 458.5 240 463.5 214.5 464 c 0
 178.5 465.5 130 458 87 445.5 c 1
 183 501.5 l 1
 219.5 530.5 259 546 306 545 c 0
 374.5 543 424.5 488 415 409.5 c 0
266 583.5 m 1
 212.5 491 l 1
 80.5 440.5 l 1
 185.5 697.5 l 1
 452.5 698 l 1
 432 584 l 1
 266 583.5 l 1
EndSplineSet
EndChar

StartChar: uni2076
Encoding: 8310 8310 170
Width: 394
VWidth: 0
Flags: HMW
LayerCount: 2
Fore
SplineSet
187 430 m 0
 183.5 401.5 201 379 230 377.5 c 0
 260.5 375.5 292.5 402 296.5 432 c 0
 300 460.5 284.5 483.5 255.5 485.5 c 0
 225 487.5 191 460 187 430 c 0
266.5 694.5 m 1
 439 694.5 l 1
 280 558.5 l 1
 243.5 542 l 1
 267 559 284.5 566.5 313 567 c 0
 380 568.5 435 507.5 426.5 430.5 c 0
 414 325 320 266.5 220 266.5 c 0
 121 266.5 44 326.5 58.5 431.5 c 0
 66.5 484.5 101.5 527 138.5 566 c 2
 266.5 694.5 l 1
EndSplineSet
EndChar

StartChar: uni2077
Encoding: 8311 8311 171
Width: 382
VWidth: 0
Flags: HMW
LayerCount: 2
Fore
SplineSet
87.5 577 m 1
 109.5 700 l 1
 476 699.5 l 1
 205.5 280.5 l 1
 59 280.5 l 1
 259.5 576.5 l 1
 87.5 577 l 1
EndSplineSet
EndChar

StartChar: uni2078
Encoding: 8312 8312 172
Width: 374
VWidth: 0
Flags: HMW
LayerCount: 2
Fore
SplineSet
106 600 m 0
 116 676 197 711.5 274.5 711.5 c 0
 349.5 711.5 426 676 415 598 c 0
 405 519.5 316 481.5 245.5 481.5 c 0
 177.5 481.5 96 520 106 600 c 0
225.5 586 m 0
 223.5 569.5 230.5 551 249 550 c 0
 268.5 549 289 569.5 291.5 588 c 0
 293.5 605 285.5 621 267.5 622 c 0
 248 623 228.5 604.5 225.5 586 c 0
56.5 395 m 0
 67.5 483.5 168 519.5 241.5 519.5 c 0
 312.5 519.5 406 483 394.5 393 c 0
 383.5 311 292 268.5 209.5 268.5 c 0
 130 268.5 45 311.5 56.5 395 c 0
190.5 414 m 0
 187.5 393 197.5 374 219 373 c 0
 241.5 372 265 393 268 416 c 0
 270.5 434 259.5 453 239 454 c 0
 217 455 194 433.5 190.5 414 c 0
EndSplineSet
EndChar

StartChar: uni2079
Encoding: 8313 8313 173
Width: 389
VWidth: 0
Flags: HMW
LayerCount: 2
Fore
SplineSet
315 550 m 0
 318.5 578.5 302.5 601 273.5 602.5 c 0
 243 604.5 209.5 578 205.5 548 c 0
 202 519.5 219 496 248 494.5 c 0
 278.5 492.5 311 520 315 550 c 0
237 285.5 m 1
 63.5 285.5 l 1
 223 421.5 l 1
 259.5 438 l 1
 236 420.5 217.5 413 189 413 c 0
 122 413 68.5 472 77 549.5 c 0
 90 655 183 713.5 283 713.5 c 0
 382 713.5 459 653.5 444.5 548.5 c 0
 436.5 495.5 400.5 453 363.5 414 c 2
 237 285.5 l 1
EndSplineSet
EndChar

StartChar: uni2070
Encoding: 8304 8304 174
Width: 390
VWidth: 0
Flags: HMW
LayerCount: 2
Fore
SplineSet
194 489.5 m 0
 189 443 189 385.5 229 382.5 c 0
 270.5 379.5 302.5 439 309.5 490.5 c 0
 314.5 537 314.5 594.5 274.5 597.5 c 0
 233 600.5 201 541 194 489.5 c 0
69.5 490.5 m 0
 85.5 615.5 167.5 709 283 709 c 0
 404 709 448.5 610.5 433.5 489.5 c 0
 417 364 339.5 271 220 271 c 0
 103 271 54.5 370 69.5 490.5 c 0
EndSplineSet
EndChar

StartChar: uni2080
Encoding: 8320 8320 175
Width: 390
VWidth: 0
Flags: HMW
LayerCount: 2
Fore
SplineSet
146 209.5 m 0
 141 163 141 105.5 181 102.5 c 0
 222.5 99.5 254.5 159 261.5 210.5 c 0
 266.5 257 266.5 314.5 226.5 317.5 c 0
 185 320.5 153 261 146 209.5 c 0
21.5 210.5 m 0
 37.5 335.5 120 429 235.5 429 c 0
 356.5 429 401 330.5 386 209.5 c 0
 369.5 84 291.5 -9 172 -9 c 0
 55 -9 6.5 90 21.5 210.5 c 0
EndSplineSet
EndChar

StartChar: uni2084
Encoding: 8324 8324 176
Width: 445
VWidth: 0
Flags: HMW
LayerCount: 2
Fore
SplineSet
-16 69.5 m 1
 104.5 158.5 l 1
 286 159 l 1
 300 180 l 1
 423 180 l 1
 403 69 l 1
 -16 69.5 l 1
129.5 116.5 m 1
 -21.5 64.5 l 1
 288.5 419.5 l 1
 400 420 l 1
 327.5 0 l 1
 189.5 0 l 1
 205 90.5 l 1
 223.5 96.5 l 1
 249 243.5 l 1
 129.5 116.5 l 1
EndSplineSet
EndChar

StartChar: uni2085
Encoding: 8325 8325 177
Width: 407
VWidth: 0
Flags: HMW
LayerCount: 2
Fore
SplineSet
372 129.5 m 0
 359 34 258.5 -9.5 174.5 -10.5 c 0
 106.5 -11.5 50.5 5 0.5 24.5 c 1
 53 139 l 1
 88.5 119.5 122.5 109 150 109 c 0
 185 109 230.5 117 233 149.5 c 0
 235 178.5 197 183.5 171.5 184 c 0
 135.5 185.5 87 178 44 165.5 c 1
 140 221.5 l 1
 176.5 250.5 216 266 263 265 c 0
 331.5 263 381.5 208 372 129.5 c 0
223 303.5 m 1
 169.5 211 l 1
 37.5 160.5 l 1
 142.5 417.5 l 1
 409.5 418 l 1
 389 304 l 1
 223 303.5 l 1
EndSplineSet
EndChar

StartChar: uni2086
Encoding: 8326 8326 178
Width: 411
VWidth: 0
Flags: HMW
LayerCount: 2
Fore
SplineSet
145 150 m 0
 141.5 121.5 159 99 188 97.5 c 0
 218.5 95.5 251 122 255 152 c 0
 258.5 180.5 242.5 203.5 213.5 205.5 c 0
 183 207.5 149 180 145 150 c 0
224.5 414.5 m 1
 397 414.5 l 1
 238 278.5 l 1
 201.5 262 l 1
 225 279 242.5 286.5 271 287 c 0
 338 288.5 393 227.5 384.5 150.5 c 0
 372 45 278 -13.5 178 -13.5 c 0
 79 -13.5 2 46.5 16.5 151.5 c 0
 24.5 204.5 60 247 97 286 c 2
 224.5 414.5 l 1
EndSplineSet
EndChar

StartChar: uni2087
Encoding: 8327 8327 179
Width: 390
VWidth: 0
Flags: HMW
LayerCount: 2
Fore
SplineSet
46 297 m 1
 67.5 420 l 1
 434 419.5 l 1
 164 0 l 1
 17 0 l 1
 217.5 296.5 l 1
 46 297 l 1
EndSplineSet
EndChar

StartChar: uni2088
Encoding: 8328 8328 180
Width: 384
VWidth: 0
Flags: HMW
LayerCount: 2
Fore
SplineSet
65 320 m 0
 75 396 156 431.5 233.5 431.5 c 0
 308.5 431.5 385 396 374 318 c 0
 364 239.5 275 201.5 204.5 201.5 c 0
 136.5 201.5 55 240 65 320 c 0
184.5 306 m 0
 182.5 289.5 189.5 271 208 270 c 0
 227.5 269 248 289.5 250.5 308 c 0
 252.5 325 244.5 341 226.5 342 c 0
 207 343 187.5 324.5 184.5 306 c 0
15.5 115 m 0
 26.5 203.5 127 239.5 200.5 239.5 c 0
 271.5 239.5 365 203 353.5 113 c 0
 342.5 31 251 -11.5 168.5 -11.5 c 0
 89 -11.5 4 31.5 15.5 115 c 0
149.5 134 m 0
 146.5 113 156.5 94 178 93 c 0
 200.5 92 224 113 227 136 c 0
 229.5 154 218.5 173 198 174 c 0
 176 175 153 153.5 149.5 134 c 0
EndSplineSet
EndChar

StartChar: uni2089
Encoding: 8329 8329 181
Width: 417
VWidth: 0
Flags: HMW
LayerCount: 2
Fore
SplineSet
280 270 m 0
 283.5 298.5 267 321 238 322.5 c 0
 207.5 324.5 174 298 170 268 c 0
 166.5 239.5 183.5 216 212.5 214.5 c 0
 243 212.5 276 240 280 270 c 0
201.5 5.5 m 1
 28 5.5 l 1
 188 141.5 l 1
 224.5 158 l 1
 201 140.5 182.5 133 154 133 c 0
 87 133 33 192 41.5 269.5 c 0
 54.5 375 148 433.5 248 433.5 c 0
 347 433.5 424 373.5 409.5 268.5 c 0
 401.5 215.5 365.5 173 328.5 134 c 2
 201.5 5.5 l 1
EndSplineSet
EndChar

StartChar: uni2081
Encoding: 8321 8321 182
Width: 377
VWidth: 0
Flags: HMW
LayerCount: 2
Fore
SplineSet
104.5 274.5 m 1
 125 387 l 1
 366 431.5 l 1
 291.5 1 l 1
 166 1 l 1
 217 299 l 1
 104.5 274.5 l 1
EndSplineSet
EndChar

StartChar: uni2082
Encoding: 8322 8322 183
Width: 436
VWidth: 0
Flags: HMW
LayerCount: 2
Fore
SplineSet
-3 2.5 m 1
 205 185 l 2
 239.5 217 278.5 244 284 281.5 c 0
 286 300 277.5 319.5 252.5 320.5 c 0
 221 322.5 199.5 288.5 192.5 260 c 1
 64 261 l 1
 82.5 352 151.5 431.5 266 431.5 c 0
 361 431.5 431 369 419 290.5 c 0
 412.5 244 380.5 208.5 342.5 180.5 c 2
 259 122.5 l 1
 405 121.5 l 1
 384 2 l 1
 -3 2.5 l 1
EndSplineSet
EndChar

StartChar: uni2083
Encoding: 8323 8323 184
Width: 395
VWidth: 0
Flags: HMW
LayerCount: 2
Fore
SplineSet
171.5 201.5 m 1
 179.5 253.5 l 1
 214.5 256.5 256 272 260.5 301.5 c 0
 262 316 250.5 326.5 231.5 326.5 c 0
 205 326 187.5 307.5 180 286.5 c 1
 58.5 287.5 l 1
 76.5 367.5 142.5 427.5 239.5 428.5 c 0
 328 429 400 384.5 388 309 c 0
 374.5 221.5 267.5 203 171.5 201.5 c 1
169.5 -12 m 0
 64 -11 10 61.5 15 147 c 1
 141 146.5 l 1
 141 113 153 92.5 182.5 90.5 c 0
 207 89 236.5 104.5 240 130.5 c 0
 247 163 210.5 175.5 165 177.5 c 1
 175 238.5 l 1
 276.5 237 381 211 367 116 c 0
 355.5 35.5 270.5 -13 169.5 -12 c 0
EndSplineSet
EndChar

StartChar: Agrave
Encoding: 192 192 185
Width: 756
VWidth: 0
Flags: HMW
LayerCount: 2
Fore
SplineSet
187 90 m 1
 215 248 l 1
 577.5 248 l 1
 549.5 90 l 1
 187 90 l 1
420.5 382 m 1
 302.5 188.5 l 1
 311 138 l 1
 214.5 0 l 1
 -36.5 0 l 1
 478 752.5 l 1
 733.5 0 l 1
 493.5 0 l 1
 442.5 132.5 l 1
 467.5 189 l 1
 420.5 382 l 1
341.5 963 m 1
 483 1020.5 l 1
 604 856.5 l 1
 494 810 l 1
 341.5 963 l 1
EndSplineSet
EndChar

StartChar: Aacute
Encoding: 193 193 186
Width: 756
VWidth: 0
Flags: HMW
LayerCount: 2
Fore
SplineSet
187 90 m 1
 215 248 l 1
 577.5 248 l 1
 549.5 90 l 1
 187 90 l 1
420.5 382 m 1
 302.5 188.5 l 1
 311 138 l 1
 214.5 0 l 1
 -36.5 0 l 1
 478 752.5 l 1
 733.5 0 l 1
 493.5 0 l 1
 442.5 132.5 l 1
 467.5 189 l 1
 420.5 382 l 1
686.5 956.5 m 1
 490 810.5 l 1
 385 863.5 l 1
 554.5 1019 l 1
 686.5 956.5 l 1
EndSplineSet
EndChar

StartChar: Acircumflex
Encoding: 194 194 187
Width: 756
VWidth: 0
Flags: HMW
LayerCount: 2
Fore
SplineSet
187 90 m 1
 215 248 l 1
 577.5 248 l 1
 549.5 90 l 1
 187 90 l 1
420.5 382 m 1
 302.5 188.5 l 1
 311 138 l 1
 214.5 0 l 1
 -36.5 0 l 1
 478 752.5 l 1
 733.5 0 l 1
 493.5 0 l 1
 442.5 132.5 l 1
 467.5 189 l 1
 420.5 382 l 1
507.5 888.5 m 1
 416.5 810 l 1
 291.5 903.5 l 1
 524 1040 l 1
 718.5 896.5 l 1
 571 809 l 1
 507.5 888.5 l 1
EndSplineSet
EndChar

StartChar: Atilde
Encoding: 195 195 188
Width: 756
VWidth: 0
Flags: HMW
LayerCount: 2
Fore
SplineSet
187 90 m 1
 215 248 l 1
 577.5 248 l 1
 549.5 90 l 1
 187 90 l 1
420.5 382 m 1
 302.5 188.5 l 1
 311 138 l 1
 214.5 0 l 1
 -36.5 0 l 1
 478 752.5 l 1
 733.5 0 l 1
 493.5 0 l 1
 442.5 132.5 l 1
 467.5 189 l 1
 420.5 382 l 1
294 895 m 1
 315.5 944 362.5 996 432 994.5 c 0
 488 993.5 511 939.5 562.5 941 c 0
 594.5 942 619.5 969 642 996 c 1
 715.5 901 l 1
 688 861 624 808 557.5 810.5 c 0
 507.5 812.5 470 870 421 866 c 0
 388.5 863.5 375 834 366.5 816 c 1
 294 895 l 1
EndSplineSet
EndChar

StartChar: Adieresis
Encoding: 196 196 189
Width: 756
VWidth: 0
Flags: HMW
LayerCount: 2
Fore
SplineSet
187 90 m 1
 215 248 l 1
 577.5 248 l 1
 549.5 90 l 1
 187 90 l 1
420.5 382 m 1
 302.5 188.5 l 1
 311 138 l 1
 214.5 0 l 1
 -36.5 0 l 1
 478 752.5 l 1
 733.5 0 l 1
 493.5 0 l 1
 442.5 132.5 l 1
 467.5 189 l 1
 420.5 382 l 1
545 819.5 m 0
 552.5 875.5 606.5 915.5 663.5 915.5 c 0
 721 915.5 764.5 873.5 757 816.5 c 0
 749.5 760.5 695.5 720.5 638.5 720.5 c 0
 581 720.5 537.5 762.5 545 819.5 c 0
217 829.5 m 0
 224.5 885.5 278.5 925.5 335.5 925.5 c 0
 393 925.5 436.5 883.5 429 826.5 c 0
 421.5 770.5 367.5 730.5 310.5 730.5 c 0
 253 730.5 209.5 772.5 217 829.5 c 0
EndSplineSet
EndChar

StartChar: Aring
Encoding: 197 197 190
Width: 756
VWidth: 0
Flags: HMW
LayerCount: 2
Fore
SplineSet
187 90 m 1
 215 248 l 1
 577.5 248 l 1
 549.5 90 l 1
 187 90 l 1
420.5 382 m 1
 302.5 188.5 l 1
 311 138 l 1
 214.5 0 l 1
 -36.5 0 l 1
 478 752.5 l 1
 733.5 0 l 1
 493.5 0 l 1
 442.5 132.5 l 1
 467.5 189 l 1
 420.5 382 l 1
352 803 m 0
 361.5 874.5 428 926.5 503.5 926.5 c 0
 579 926.5 634.5 873.5 624.5 801 c 0
 615 729 547 677.5 471 677.5 c 0
 395.5 677.5 342 731 352 803 c 0
445.5 801 m 0
 443 779.5 454.5 759.5 476.5 758.5 c 0
 500 757.5 526.5 779.5 530 803 c 0
 532.5 824.5 520 845.5 498 846.5 c 0
 474.5 847.5 449 824.5 445.5 801 c 0
EndSplineSet
EndChar

StartChar: AE
Encoding: 198 198 191
Width: 1125
VWidth: 0
Flags: HMW
LayerCount: 2
Fore
SplineSet
283 115 m 1
 328 315 l 1
 622.5 315 l 1
 587.5 115 l 1
 283 115 l 1
523.5 700 m 1
 728 658 l 1
 273 0 l 1
 -12.5 0 l 1
 523.5 700 l 1
637.5 0 m 1
 668 175 l 1
 1062.5 175 l 1
 1032 0 l 1
 637.5 0 l 1
741.5 525 m 1
 523.5 700 l 1
 1152 700 l 1
 1121.5 525 l 1
 741.5 525 l 1
684.5 275 m 1
 714.5 445 l 1
 1089.5 445 l 1
 1059.5 275 l 1
 684.5 275 l 1
658.5 700 m 1
 895 700 l 1
 775 0 l 1
 538.5 0 l 1
 658.5 700 l 1
EndSplineSet
EndChar

StartChar: Ccedilla
Encoding: 199 199 192
Width: 689
VWidth: 0
Flags: HMW
LayerCount: 2
Fore
SplineSet
297.5 350 m 0
 281 253.5 341 189 437 187.5 c 0
 527.5 186.5 592.5 230.5 648 272 c 1
 615 47 l 1
 553.5 8.5 488.5 -20 398 -20 c 0
 169.5 -20 28.5 137 60 350 c 0
 93 568.5 278 720.5 512 720 c 0
 599.5 720 658.5 693 714.5 652.5 c 1
 680.5 427 l 1
 639.5 474.5 587.5 512.5 504 512.5 c 0
 405 512 315.5 450.5 297.5 350 c 0
310.5 40.9668 m 1
 454.5 35.4668 l 1
 330.0705 -92.28955 l 1
 344.9495 -88.66355 361.6475 -86.5332 378.5 -87.0332 c 0
 430 -89.0332 473.5 -134.033 465.5 -199.033 c 0
 455 -274.533 377 -313.533 308 -315.533 c 0
 245 -317.033 191.5 -303.033 136.5 -274.033 c 1
 199 -191.033 l 1
 225.5 -207.533 261.5 -217.033 284 -216.533 c 0
 310 -216.033 347.5 -205.533 349 -182.033 c 0
 350.5 -157.533 313.5 -154.533 293 -154.033 c 0
 271 -153.033 231 -157.533 192.5 -167.533 c 1
 310.5 40.9668 l 1
EndSplineSet
EndChar

StartChar: Egrave
Encoding: 200 200 193
Width: 616
VWidth: 0
Flags: HMW
LayerCount: 2
Fore
SplineSet
186 0 m 1
 217 175 l 1
 563 175 l 1
 532 0 l 1
 186 0 l 1
276 525 m 1
 306.5 700 l 1
 652.5 700 l 1
 622 525 l 1
 276 525 l 1
233 275 m 1
 263 445 l 1
 589.5 445 l 1
 559.5 275 l 1
 233 275 l 1
159 700 m 1
 366 700 l 1
 246 0 l 1
 39 0 l 1
 159 700 l 1
272 943 m 1
 413.5 1000.5 l 1
 534.5 836.5 l 1
 424.5 790 l 1
 272 943 l 1
EndSplineSet
EndChar

StartChar: Eacute
Encoding: 201 201 194
Width: 616
VWidth: 0
Flags: HMW
LayerCount: 2
Fore
SplineSet
186 0 m 1
 217 175 l 1
 563 175 l 1
 532 0 l 1
 186 0 l 1
276 525 m 1
 306.5 700 l 1
 652.5 700 l 1
 622 525 l 1
 276 525 l 1
233 275 m 1
 263 445 l 1
 589.5 445 l 1
 559.5 275 l 1
 233 275 l 1
159 700 m 1
 366 700 l 1
 246 0 l 1
 39 0 l 1
 159 700 l 1
618 936.5 m 1
 421.5 790.5 l 1
 316.5 843.5 l 1
 486 999 l 1
 618 936.5 l 1
EndSplineSet
EndChar

StartChar: Ecircumflex
Encoding: 202 202 195
Width: 616
VWidth: 0
Flags: HMW
LayerCount: 2
Fore
SplineSet
186 0 m 1
 217 175 l 1
 563 175 l 1
 532 0 l 1
 186 0 l 1
276 525 m 1
 306.5 700 l 1
 652.5 700 l 1
 622 525 l 1
 276 525 l 1
233 275 m 1
 263 445 l 1
 589.5 445 l 1
 559.5 275 l 1
 233 275 l 1
159 700 m 1
 366 700 l 1
 246 0 l 1
 39 0 l 1
 159 700 l 1
443.5 894 m 1
 319 800 l 1
 272.5 843 l 1
 448.5 980.5 l 1
 585 837.5 l 1
 533.5 800 l 1
 443.5 894 l 1
EndSplineSet
EndChar

StartChar: Edieresis
Encoding: 203 203 196
Width: 616
VWidth: 0
Flags: HMW
LayerCount: 2
Fore
SplineSet
186 0 m 1
 217 175 l 1
 563 175 l 1
 532 0 l 1
 186 0 l 1
276 525 m 1
 306.5 700 l 1
 652.5 700 l 1
 622 525 l 1
 276 525 l 1
233 275 m 1
 263 445 l 1
 589.5 445 l 1
 559.5 275 l 1
 233 275 l 1
159 700 m 1
 366 700 l 1
 246 0 l 1
 39 0 l 1
 159 700 l 1
461 879.5 m 0
 468.5 935.5 522.5 975.5 579.5 975.5 c 0
 637 975.5 680.5 933.5 673 876.5 c 0
 665.5 820.5 611.5 780.5 554.5 780.5 c 0
 497 780.5 453.5 822.5 461 879.5 c 0
199 879.5 m 0
 206.5 935.5 260.5 975.5 317.5 975.5 c 0
 375 975.5 418.5 933.5 411 876.5 c 0
 403.5 820.5 349.5 780.5 292.5 780.5 c 0
 235 780.5 191.5 822.5 199 879.5 c 0
EndSplineSet
EndChar

StartChar: Igrave
Encoding: 204 204 197
Width: 354
VWidth: 0
Flags: HMW
LayerCount: 2
Fore
SplineSet
159 700 m 1
 380.5 700 l 1
 260.5 0 l 1
 39 0 l 1
 159 700 l 1
126.5 943 m 1
 268 1000.5 l 1
 389 836.5 l 1
 279 790 l 1
 126.5 943 l 1
EndSplineSet
EndChar

StartChar: Iacute
Encoding: 205 205 198
Width: 354
VWidth: 0
Flags: HMW
LayerCount: 2
Fore
SplineSet
159 700 m 1
 380.5 700 l 1
 260.5 0 l 1
 39 0 l 1
 159 700 l 1
472.5 936.5 m 1
 276 790.5 l 1
 171 843.5 l 1
 340.5 999 l 1
 472.5 936.5 l 1
EndSplineSet
EndChar

StartChar: Icircumflex
Encoding: 206 206 199
Width: 354
VWidth: 0
Flags: HMW
LayerCount: 2
Fore
SplineSet
159 700 m 1
 380.5 700 l 1
 260.5 0 l 1
 39 0 l 1
 159 700 l 1
297.5 894 m 1
 173.5 800 l 1
 127 843 l 1
 303 980.5 l 1
 439.5 837.5 l 1
 388 800 l 1
 297.5 894 l 1
EndSplineSet
EndChar

StartChar: Idieresis
Encoding: 207 207 200
Width: 354
VWidth: 0
Flags: HMW
LayerCount: 2
Fore
SplineSet
159 700 m 1
 380.5 700 l 1
 260.5 0 l 1
 39 0 l 1
 159 700 l 1
325.5 879.5 m 0
 333 935.5 387 975.5 444 975.5 c 0
 501.5 975.5 545 933.5 537.5 876.5 c 0
 530 820.5 476 780.5 419 780.5 c 0
 361.5 780.5 318 822.5 325.5 879.5 c 0
63.5 879.5 m 0
 71 935.5 124.5 975.5 181.5 975.5 c 0
 239 975.5 283 933.5 275.5 876.5 c 0
 268 820.5 214 780.5 157 780.5 c 0
 99.5 780.5 56 822.5 63.5 879.5 c 0
EndSplineSet
EndChar

StartChar: Ntilde
Encoding: 209 209 201
Width: 781
VWidth: 0
Flags: HMW
LayerCount: 2
Fore
SplineSet
600.5 700 m 1
 807.5 700 l 1
 682.5 -33 l 1
 301 318.2955 l 1
 246 0 l 1
 39 0 l 1
 164 733 l 1
 545 381.7045 l 1
 600.5 700 l 1
259 860 m 1
 280.5 909 327.5 961 397 959.5 c 0
 453 958.5 475.5 904.5 527 906 c 0
 559 907 584.5 934 607 961 c 1
 680 866 l 1
 652.5 826 589 773 522.5 775.5 c 0
 472.5 777.5 434.5 835 385.5 831 c 0
 353 828.5 340 799 331.5 781 c 1
 259 860 l 1
EndSplineSet
EndChar

StartChar: Eth
Encoding: 208 208 202
Width: 742
VWidth: 0
Flags: HMW
LayerCount: 2
Fore
SplineSet
27.5 298 m 1
 48 413 l 1
 420 413 l 1
 399.5 298 l 1
 27.5 298 l 1
159 700 m 1
 384.5 700 l 1
 264.5 0 l 1
 39 0 l 1
 159 700 l 1
313.5 0 m 1
 186 0 l 1
 219.5 190 l 1
 324.5 190 l 1
 415.5 192 502.5 230 521.5 350 c 0
 539 466 479 507 390.5 509.5 c 2
 273 510.5 l 1
 306.5 700 l 1
 421 700 l 1
 645.5 697.5 779 560.5 747.5 350 c 0
 715 135 544.5 2.5 313.5 0 c 1
EndSplineSet
EndChar

StartChar: Ograve
Encoding: 210 210 203
Width: 815
VWidth: 0
Flags: HMW
LayerCount: 2
Fore
SplineSet
289 350 m 0
 275 262 307.5 180 405 178.5 c 0
 503.5 177 574.5 255.5 591.5 350 c 0
 606 438.5 576 520.5 475.5 521.5 c 0
 377 522.5 305.5 444.5 289 350 c 0
60 350 m 0
 92 564.5 278.5 720 497 720 c 0
 714 720 850.5 558.5 820.5 350 c 0
 788.5 134.5 607 -30.5 381.5 -30 c 0
 160 -29.5 30 141.5 60 350 c 0
382 943 m 1
 523 1000.5 l 1
 644 836.5 l 1
 534.5 790 l 1
 382 943 l 1
EndSplineSet
EndChar

StartChar: Oacute
Encoding: 211 211 204
Width: 815
VWidth: 0
Flags: HMW
LayerCount: 2
Fore
SplineSet
289 350 m 0
 275 262 307.5 180 405 178.5 c 0
 503.5 177 574.5 255.5 591.5 350 c 0
 606 438.5 576 520.5 475.5 521.5 c 0
 377 522.5 305.5 444.5 289 350 c 0
60 350 m 0
 92 564.5 278.5 720 497 720 c 0
 714 720 850.5 558.5 820.5 350 c 0
 788.5 134.5 607 -30.5 381.5 -30 c 0
 160 -29.5 30 141.5 60 350 c 0
726.5 936.5 m 1
 530 790.5 l 1
 425 843.5 l 1
 594.5 999 l 1
 726.5 936.5 l 1
EndSplineSet
EndChar

StartChar: Ocircumflex
Encoding: 212 212 205
Width: 815
VWidth: 0
Flags: HMW
LayerCount: 2
Fore
SplineSet
289 350 m 0
 275 262 307.5 180 405 178.5 c 0
 503.5 177 574.5 255.5 591.5 350 c 0
 606 438.5 576 520.5 475.5 521.5 c 0
 377 522.5 305.5 444.5 289 350 c 0
60 350 m 0
 92 564.5 278.5 720 497 720 c 0
 714 720 850.5 558.5 820.5 350 c 0
 788.5 134.5 607 -30.5 381.5 -30 c 0
 160 -29.5 30 141.5 60 350 c 0
553 894 m 1
 429 800 l 1
 382 843 l 1
 558.5 980.5 l 1
 695 837.5 l 1
 643 800 l 1
 553 894 l 1
EndSplineSet
EndChar

StartChar: Otilde
Encoding: 213 213 206
Width: 815
VWidth: 0
Flags: HMW
LayerCount: 2
Fore
SplineSet
289 350 m 0
 275 262 307.5 180 405 178.5 c 0
 503.5 177 574.5 255.5 591.5 350 c 0
 606 438.5 576 520.5 475.5 521.5 c 0
 377 522.5 305.5 444.5 289 350 c 0
60 350 m 0
 92 564.5 278.5 720 497 720 c 0
 714 720 850.5 558.5 820.5 350 c 0
 788.5 134.5 607 -30.5 381.5 -30 c 0
 160 -29.5 30 141.5 60 350 c 0
371.5 865 m 1
 371.5 909 445.5 945 482 944.5 c 0
 534 944 548 897.5 594.5 899 c 0
 618 900 638.5 921.5 658.5 946 c 1
 700.5 900.5 l 1
 678.5 866.5 637.5 828.5 589.5 830.5 c 0
 543 832 522 877.5 480.5 876.5 c 0
 445 875.5 429.5 844 421 826 c 1
 371.5 865 l 1
EndSplineSet
EndChar

StartChar: Odieresis
Encoding: 214 214 207
Width: 815
VWidth: 0
Flags: HMW
LayerCount: 2
Fore
SplineSet
289 350 m 0
 275 262 307.5 180 405 178.5 c 0
 503.5 177 574.5 255.5 591.5 350 c 0
 606 438.5 576 520.5 475.5 521.5 c 0
 377 522.5 305.5 444.5 289 350 c 0
60 350 m 0
 92 564.5 278.5 720 497 720 c 0
 714 720 850.5 558.5 820.5 350 c 0
 788.5 134.5 607 -30.5 381.5 -30 c 0
 160 -29.5 30 141.5 60 350 c 0
555.5 879.5 m 0
 563 935.5 617 975.5 674 975.5 c 0
 731.5 975.5 775 933.5 767.5 876.5 c 0
 760 820.5 706 780.5 649 780.5 c 0
 591.5 780.5 548 822.5 555.5 879.5 c 0
293.5 879.5 m 0
 301 935.5 354.5 975.5 411.5 975.5 c 0
 469 975.5 513 933.5 505.5 876.5 c 0
 498 820.5 444 780.5 387 780.5 c 0
 329.5 780.5 286 822.5 293.5 879.5 c 0
EndSplineSet
EndChar

StartChar: Ugrave
Encoding: 217 217 208
Width: 723
VWidth: 0
Flags: HMW
LayerCount: 2
Fore
SplineSet
154 700 m 1
 371 700 l 1
 292 250 l 2
 286 201.5 299 157 356 155.5 c 0
 414 154 450.5 199 460.5 250.5 c 1
 538.5 700 l 1
 755 700 l 1
 675.5 230 l 2
 646.5 49.5 503.5 -40 334 -40 c 0
 170 -40 51 50 74.5 230 c 1
 154 700 l 1
320 933 m 1
 461.5 990.5 l 1
 582 826.5 l 1
 472.5 780 l 1
 320 933 l 1
EndSplineSet
EndChar

StartChar: Uacute
Encoding: 218 218 209
Width: 723
VWidth: 0
Flags: HMW
LayerCount: 2
Fore
SplineSet
154 700 m 1
 371 700 l 1
 292 250 l 2
 286 201.5 299 157 356 155.5 c 0
 414 154 450.5 199 460.5 250.5 c 1
 538.5 700 l 1
 755 700 l 1
 675.5 230 l 2
 646.5 49.5 503.5 -40 334 -40 c 0
 170 -40 51 50 74.5 230 c 1
 154 700 l 1
669.5 926.5 m 1
 473 780.5 l 1
 368 833.5 l 1
 537.5 989 l 1
 669.5 926.5 l 1
EndSplineSet
EndChar

StartChar: Ucircumflex
Encoding: 219 219 210
Width: 723
VWidth: 0
Flags: HMW
LayerCount: 2
Fore
SplineSet
154 700 m 1
 371 700 l 1
 292 250 l 2
 286 201.5 299 157 356 155.5 c 0
 414 154 450.5 199 460.5 250.5 c 1
 538.5 700 l 1
 755 700 l 1
 675.5 230 l 2
 646.5 49.5 503.5 -40 334 -40 c 0
 170 -40 51 50 74.5 230 c 1
 154 700 l 1
485.5 858.5 m 1
 395 780 l 1
 270 873.5 l 1
 502.5 1010 l 1
 696.5 866.5 l 1
 549.5 779 l 1
 485.5 858.5 l 1
EndSplineSet
EndChar

StartChar: Udieresis
Encoding: 220 220 211
Width: 723
VWidth: 0
Flags: HMW
LayerCount: 2
Fore
SplineSet
154 700 m 1
 371 700 l 1
 292 250 l 2
 286 201.5 299 157 356 155.5 c 0
 414 154 450.5 199 460.5 250.5 c 1
 538.5 700 l 1
 755 700 l 1
 675.5 230 l 2
 646.5 49.5 503.5 -40 334 -40 c 0
 170 -40 51 50 74.5 230 c 1
 154 700 l 1
539 879.5 m 0
 546.5 935.5 600.5 975.5 657.5 975.5 c 0
 715 975.5 758.5 933.5 751 876.5 c 0
 743.5 820.5 689.5 780.5 632.5 780.5 c 0
 575 780.5 531.5 822.5 539 879.5 c 0
218.5 879.5 m 0
 226 935.5 280 975.5 337 975.5 c 0
 394.5 975.5 438 933.5 430.5 876.5 c 0
 423 820.5 369 780.5 312 780.5 c 0
 254.5 780.5 211 822.5 218.5 879.5 c 0
EndSplineSet
EndChar

StartChar: Yacute
Encoding: 221 221 212
Width: 698
VWidth: 0
Flags: HMW
LayerCount: 2
Fore
SplineSet
657 926.5 m 1
 460.5 780.5 l 1
 355.5 833.5 l 1
 525 989 l 1
 657 926.5 l 1
545 699.5 m 1
 800.5 699.5 l 1
 479 269.8535 l 1
 433.5 0 l 1
 211.5 0 l 1
 261 279.0095 l 1
 89 700 l 1
 334 700 l 1
 401 477.5 l 1
 545 699.5 l 1
EndSplineSet
EndChar

StartChar: agrave
Encoding: 224 224 213
Width: 625
VWidth: 0
Flags: HMW
LayerCount: 2
Fore
SplineSet
438 460 m 1
 631 460 l 1
 551.5 0 l 1
 359 0 l 1
 438 460 l 1
39.5 230.5 m 0
 57 368.5 165 470 283 470 c 0
 406.5 470 460.5 355.5 445 229.5 c 0
 427.5 97.5 335.5 -9.5 213 -9.5 c 0
 94.5 -9.5 23.5 97.5 39.5 230.5 c 0
241.5 229.5 m 0
 235 187 256 142 301 140.5 c 0
 345 139 390.5 182 398.5 230.5 c 0
 405 275.5 383 318 340.5 319.5 c 0
 294 321 249.5 275.5 241.5 229.5 c 0
229 684 m 1
 370.5 741.5 l 1
 491 577.5 l 1
 381.5 531 l 1
 229 684 l 1
EndSplineSet
Substitution2: "alt a" agrave.alt
EndChar

StartChar: aacute
Encoding: 225 225 214
Width: 625
VWidth: 0
Flags: HMW
LayerCount: 2
Fore
SplineSet
438 460 m 1
 631 460 l 1
 551.5 0 l 1
 359 0 l 1
 438 460 l 1
39.5 230.5 m 0
 57 368.5 165 470 283 470 c 0
 406.5 470 460.5 355.5 445 229.5 c 0
 427.5 97.5 335.5 -9.5 213 -9.5 c 0
 94.5 -9.5 23.5 97.5 39.5 230.5 c 0
241.5 229.5 m 0
 235 187 256 142 301 140.5 c 0
 345 139 390.5 182 398.5 230.5 c 0
 405 275.5 383 318 340.5 319.5 c 0
 294 321 249.5 275.5 241.5 229.5 c 0
559 677.5 m 1
 362.5 531.5 l 1
 258 584.5 l 1
 427.5 740 l 1
 559 677.5 l 1
EndSplineSet
Substitution2: "alt a" aacute.alt
EndChar

StartChar: acircumflex
Encoding: 226 226 215
Width: 625
VWidth: 0
Flags: HMW
LayerCount: 2
Fore
SplineSet
438 460 m 1
 631 460 l 1
 551.5 0 l 1
 359 0 l 1
 438 460 l 1
39.5 230.5 m 0
 57 368.5 165 470 283 470 c 0
 406.5 470 460.5 355.5 445 229.5 c 0
 427.5 97.5 335.5 -9.5 213 -9.5 c 0
 94.5 -9.5 23.5 97.5 39.5 230.5 c 0
241.5 229.5 m 0
 235 187 256 142 301 140.5 c 0
 345 139 390.5 182 398.5 230.5 c 0
 405 275.5 383 318 340.5 319.5 c 0
 294 321 249.5 275.5 241.5 229.5 c 0
404.5 609.5 m 1
 313.5 531 l 1
 188.5 624.5 l 1
 421 761 l 1
 615.5 617.5 l 1
 468.5 530 l 1
 404.5 609.5 l 1
EndSplineSet
Substitution2: "alt a" acircumflex.alt
EndChar

StartChar: atilde
Encoding: 227 227 216
Width: 625
VWidth: 0
Flags: HMW
LayerCount: 2
Fore
SplineSet
438 460 m 1
 631 460 l 1
 551.5 0 l 1
 359 0 l 1
 438 460 l 1
39.5 230.5 m 0
 57 368.5 165 470 283 470 c 0
 406.5 470 460.5 355.5 445 229.5 c 0
 427.5 97.5 335.5 -9.5 213 -9.5 c 0
 94.5 -9.5 23.5 97.5 39.5 230.5 c 0
241.5 229.5 m 0
 235 187 256 142 301 140.5 c 0
 345 139 390.5 182 398.5 230.5 c 0
 405 275.5 383 318 340.5 319.5 c 0
 294 321 249.5 275.5 241.5 229.5 c 0
201 615.5 m 1
 221 666.5 267 716 339 715.5 c 0
 395.5 715 417 660.5 469 662 c 0
 501 663 526.5 690 549 717 c 1
 622 622 l 1
 594.5 582 531 529 464.5 531.5 c 0
 414.5 533.5 376.5 591 327.5 587 c 0
 295 584.5 282 555 273.5 537 c 1
 201 615.5 l 1
EndSplineSet
Substitution2: "alt a" atilde.alt
EndChar

StartChar: adieresis
Encoding: 228 228 217
Width: 625
VWidth: 0
Flags: HMW
LayerCount: 2
Fore
SplineSet
438 460 m 1
 631 460 l 1
 551.5 0 l 1
 359 0 l 1
 438 460 l 1
39.5 230.5 m 0
 57 368.5 165 470 283 470 c 0
 406.5 470 460.5 355.5 445 229.5 c 0
 427.5 97.5 335.5 -9.5 213 -9.5 c 0
 94.5 -9.5 23.5 97.5 39.5 230.5 c 0
241.5 229.5 m 0
 235 187 256 142 301 140.5 c 0
 345 139 390.5 182 398.5 230.5 c 0
 405 275.5 383 318 340.5 319.5 c 0
 294 321 249.5 275.5 241.5 229.5 c 0
418.5 630.5 m 0
 426 686.5 480 726.5 537 726.5 c 0
 594.5 726.5 638 684.5 630.5 627.5 c 0
 623 571.5 569.5 531.5 512.5 531.5 c 0
 455 531.5 411 573.5 418.5 630.5 c 0
156.5 630.5 m 0
 164 686.5 218 726.5 275 726.5 c 0
 332.5 726.5 376 684.5 368.5 627.5 c 0
 361 571.5 307 531.5 250 531.5 c 0
 192.5 531.5 149 573.5 156.5 630.5 c 0
EndSplineSet
Substitution2: "alt a" adieresis.alt
EndChar

StartChar: aring
Encoding: 229 229 218
Width: 625
VWidth: 0
Flags: HMW
LayerCount: 2
Fore
SplineSet
438 460 m 1
 631 460 l 1
 551.5 0 l 1
 359 0 l 1
 438 460 l 1
39.5 230.5 m 0
 57 368.5 165 470 283 470 c 0
 406.5 470 460.5 355.5 445 229.5 c 0
 427.5 97.5 335.5 -9.5 213 -9.5 c 0
 94.5 -9.5 23.5 97.5 39.5 230.5 c 0
241.5 229.5 m 0
 235 187 256 142 301 140.5 c 0
 345 139 390.5 182 398.5 230.5 c 0
 405 275.5 383 318 340.5 319.5 c 0
 294 321 249.5 275.5 241.5 229.5 c 0
262 657 m 0
 271.5 728.5 338 780.5 413.5 780.5 c 0
 489 780.5 544.5 727.5 534.5 655 c 0
 525 583 457 531.5 381 531.5 c 0
 305.5 531.5 252 585 262 657 c 0
355.5 655 m 0
 353 633.5 364.5 613.5 386.5 612.5 c 0
 410 611.5 436.5 633.5 440 657 c 0
 442.5 678.5 430 699.5 408 700.5 c 0
 384.5 701.5 359 678.5 355.5 655 c 0
EndSplineSet
Substitution2: "alt a" aring.alt
EndChar

StartChar: germandbls
Encoding: 223 223 219
Width: 587
VWidth: 0
Flags: HMW
LayerCount: 2
Fore
SplineSet
276.5 164.5 m 1
 347.5 170 393 206 404.5 266 c 0
 416.5 323 381 342.5 300 345 c 1
 321 479.5 l 1
 480 475 613 383 590 224.5 c 0
 565.5 61 428.5 -6 251 -9.5 c 1
 276.5 164.5 l 1
309.5 405.5 m 1
 327 519.5 l 1
 380 522 415.5 536.5 420 577 c 0
 423 609.5 399.037 625 365.5 625 c 0
 322 625 297.8425 605.3815 292 575.5 c 2
 192.5 0 l 1
 9.5 0 l 1
 112.5 606.5 l 2
 133.5 732.5 255 800 386.5 800 c 0
 526 800 624.5 723.5 606.5 605.5 c 0
 586.5 474 464 409 309.5 405.5 c 1
EndSplineSet
EndChar

StartChar: ae
Encoding: 230 230 220
Width: 911
VWidth: 0
Flags: HMW
LayerCount: 2
Fore
SplineSet
205.5 138 m 0
 203 117 222 107.5 242 106.5 c 0
 287.5 104 325 138 336.5 190 c 1
 414.5 128.5 l 1
 392.5 35.5 318 -10 193.5 -9.5 c 0
 89.5 -9.5 -1 35 13 130.5 c 0
 26.5 222.5 122 274 228.5 274.5 c 0
 284.5 275 346 259.5 380 232 c 1
 367.5 147.5 l 1
 341 168.5 315 181 274 180 c 0
 245 179 209 163.5 205.5 138 c 0
144 297.5 m 1
 103.5 425 l 1
 171.5 450 252 475.5 332.5 475 c 0
 450.5 474 488 418.5 474.5 320 c 1
 443 130 l 1
 327.5 130.5 l 1
 355 272.5 l 1
 359 307 342 329.5 299.5 332 c 0
 240.5 335.5 179 311.5 144 297.5 c 1
420 190.5 m 1
 434.5 284 l 1
 886 284 l 1
 884.5 190 l 1
 420 190.5 l 1
694.5 240 m 2
 700 294.5 704.5 346 652 349 c 0
 599 352 569 303.5 558.5 250 c 1
 552 229.5 l 1
 544 167 559.5 125 607.5 121 c 0
 650.5 118.5 685.5 138.5 708 164.5 c 1
 881.5 135 l 1
 822 47 733 -10 606 -10 c 0
 433.5 -9.5 388 93 408.5 230 c 0
 411 247 414.5 263 419.5 279 c 0
 456 392.5 558 470 695.5 470 c 0
 839 470 911 374 894 239 c 0
 892 227 888.5 209 885 190.5 c 1
 689.5 211 l 1
 694.5 240 l 2
EndSplineSet
EndChar

StartChar: ccedilla
Encoding: 231 231 221
Width: 488
VWidth: 0
Flags: HMW
LayerCount: 2
Fore
SplineSet
237 229.5 m 0
 228 175.5 262 140.5 315 139 c 0
 362.5 137 409 161 444.5 196 c 1
 419.5 21 l 1
 381.5 2.5 341.5 -10 281 -10 c 0
 129.5 -10 18.5 85 39.5 230.5 c 0
 61 378 194.5 470 351 470 c 0
 411 470 449.5 456.5 487 440.5 c 1
 461 264 l 1
 434.5 302.5 395 322.5 356.5 322 c 0
 302 321.5 246.5 280.5 237 229.5 c 0
197.5 60.9668 m 1
 341.5 55.4668 l 1
 217.0705 -72.28955 l 1
 231.9495 -68.66355 248.6475 -66.5332 265.5 -67.0332 c 0
 317 -69.0332 360.5 -114.033 352.5 -179.033 c 0
 342 -254.533 263.5 -293.533 194.5 -295.533 c 0
 131.5 -297.033 78.5 -283.033 23.5 -254.033 c 1
 86 -171.033 l 1
 112.5 -187.533 148.5 -197.033 171 -196.533 c 0
 197 -196.033 234.5 -185.533 236 -162.033 c 0
 237.5 -137.533 200.5 -134.533 180 -134.033 c 0
 158 -133.033 118 -137.533 79.5 -147.533 c 1
 197.5 60.9668 l 1
EndSplineSet
EndChar

StartChar: egrave
Encoding: 232 232 222
Width: 591
VWidth: 0
Flags: HMW
LayerCount: 2
Fore
SplineSet
138.5 190.5 m 1
 153 283.5 l 1
 376.191 284.5 l 1
 374.482 320.635 368.021 347.5 330.5 349.5 c 0
 277.5 352.5 248.5 302.5 238 249.5 c 1
 231.5 229.5 l 1
 223.5 167 239.5 125 287 121 c 0
 330 118.5 365.5 138.5 388 164.5 c 1
 561.5 135 l 1
 502 46.5 413.5 -10 286 -10 c 0
 116.5 -10 19 86.5 40 230 c 0
 42.5 247 46 263 51 279 c 0
 89 396.5 195.5 470 346 470 c 0
 507 470 592 382.5 573.5 239 c 0
 571.5 227 568.5 209 565 190.5 c 1
 138.5 190.5 l 1
214.5 684 m 1
 356 741.5 l 1
 476.5 577.5 l 1
 367 531 l 1
 214.5 684 l 1
EndSplineSet
EndChar

StartChar: eacute
Encoding: 233 233 223
Width: 591
VWidth: 0
Flags: HMW
LayerCount: 2
Fore
SplineSet
138.5 190.5 m 1
 153 283.5 l 1
 376.191 284.5 l 1
 374.482 320.635 368.021 347.5 330.5 349.5 c 0
 277.5 352.5 248.5 302.5 238 249.5 c 1
 231.5 229.5 l 1
 223.5 167 239.5 125 287 121 c 0
 330 118.5 365.5 138.5 388 164.5 c 1
 561.5 135 l 1
 502 46.5 413.5 -10 286 -10 c 0
 116.5 -10 19 86.5 40 230 c 0
 42.5 247 46 263 51 279 c 0
 89 396.5 195.5 470 346 470 c 0
 507 470 592 382.5 573.5 239 c 0
 571.5 227 568.5 209 565 190.5 c 1
 138.5 190.5 l 1
564 677.5 m 1
 367.5 531.5 l 1
 262.5 584.5 l 1
 432 740 l 1
 564 677.5 l 1
EndSplineSet
EndChar

StartChar: ecircumflex
Encoding: 234 234 224
Width: 591
VWidth: 0
Flags: HMW
LayerCount: 2
Fore
SplineSet
138.5 190.5 m 1
 153 283.5 l 1
 376.191 284.5 l 1
 374.482 320.635 368.021 347.5 330.5 349.5 c 0
 277.5 352.5 248.5 302.5 238 249.5 c 1
 231.5 229.5 l 1
 223.5 167 239.5 125 287 121 c 0
 330 118.5 365.5 138.5 388 164.5 c 1
 561.5 135 l 1
 502 46.5 413.5 -10 286 -10 c 0
 116.5 -10 19 86.5 40 230 c 0
 42.5 247 46 263 51 279 c 0
 89 396.5 195.5 470 346 470 c 0
 507 470 592 382.5 573.5 239 c 0
 571.5 227 568.5 209 565 190.5 c 1
 138.5 190.5 l 1
380 609.5 m 1
 289.5 531 l 1
 164.5 624.5 l 1
 396.5 761 l 1
 591 617.5 l 1
 444 530 l 1
 380 609.5 l 1
EndSplineSet
EndChar

StartChar: edieresis
Encoding: 235 235 225
Width: 591
VWidth: 0
Flags: HMW
LayerCount: 2
Fore
SplineSet
138.5 190.5 m 1
 153 283.5 l 1
 376.191 284.5 l 1
 374.482 320.635 368.021 347.5 330.5 349.5 c 0
 277.5 352.5 248.5 302.5 238 249.5 c 1
 231.5 229.5 l 1
 223.5 167 239.5 125 287 121 c 0
 330 118.5 365.5 138.5 388 164.5 c 1
 561.5 135 l 1
 502 46.5 413.5 -10 286 -10 c 0
 116.5 -10 19 86.5 40 230 c 0
 42.5 247 46 263 51 279 c 0
 89 396.5 195.5 470 346 470 c 0
 507 470 592 382.5 573.5 239 c 0
 571.5 227 568.5 209 565 190.5 c 1
 138.5 190.5 l 1
404 630.5 m 0
 411.5 686.5 465.5 726.5 522.5 726.5 c 0
 580 726.5 623.5 684.5 616 627.5 c 0
 608.5 571.5 554.5 531.5 497.5 531.5 c 0
 440 531.5 396.5 573.5 404 630.5 c 0
142 630.5 m 0
 149.5 686.5 203.5 726.5 260.5 726.5 c 0
 318 726.5 361.5 684.5 354 627.5 c 0
 346.5 571.5 292.5 531.5 235.5 531.5 c 0
 178 531.5 134.5 573.5 142 630.5 c 0
EndSplineSet
EndChar

StartChar: igrave
Encoding: 236 236 226
Width: 277
VWidth: 0
Flags: HMW
LayerCount: 2
Fore
SplineSet
97.5 460 m 1
 282.5 460 l 1
 203.5 0 l 1
 18.5 0 l 1
 97.5 460 l 1
41.5 684 m 1
 183 741.5 l 1
 304 577.5 l 1
 194 531 l 1
 41.5 684 l 1
EndSplineSet
EndChar

StartChar: dotlessi
Encoding: 305 305 227
Width: 277
VWidth: 0
Flags: HMW
LayerCount: 2
Fore
SplineSet
97.5 460 m 1
 282.5 460 l 1
 203.5 0 l 1
 18.5 0 l 1
 97.5 460 l 1
EndSplineSet
EndChar

StartChar: kgreenlandic
Encoding: 312 312 228
Width: 640
VWidth: 0
Flags: HMW
LayerCount: 2
Fore
SplineSet
98.5 460 m 1
 281.5 460 l 1
 202.5 0 l 1
 19.5 0 l 1
 98.5 460 l 1
435.5 459.5 m 1
 668.5 459.5 l 1
 440 266 l 1
 601 0 l 1
 388 0 l 1
 219 275 l 1
 435.5 459.5 l 1
EndSplineSet
EndChar

StartChar: iacute
Encoding: 237 237 229
Width: 277
VWidth: 0
Flags: HMW
LayerCount: 2
Fore
SplineSet
97.5 460 m 1
 282.5 460 l 1
 203.5 0 l 1
 18.5 0 l 1
 97.5 460 l 1
403 677.5 m 1
 206.5 531.5 l 1
 101.5 584.5 l 1
 271 740 l 1
 403 677.5 l 1
EndSplineSet
EndChar

StartChar: icircumflex
Encoding: 238 238 230
Width: 277
VWidth: 0
Flags: HMW
LayerCount: 2
Fore
SplineSet
97.5 460 m 1
 282.5 460 l 1
 203.5 0 l 1
 18.5 0 l 1
 97.5 460 l 1
219 609.5 m 1
 128.5 531 l 1
 3.5 624.5 l 1
 235.5 761 l 1
 430 617.5 l 1
 283 530 l 1
 219 609.5 l 1
EndSplineSet
EndChar

StartChar: idieresis
Encoding: 239 239 231
Width: 277
VWidth: 0
Flags: HMW
LayerCount: 2
Fore
SplineSet
97.5 460 m 1
 282.5 460 l 1
 203.5 0 l 1
 18.5 0 l 1
 97.5 460 l 1
244 630.5 m 0
 251.5 686.5 305.5 726.5 362.5 726.5 c 0
 420 726.5 463.5 684.5 456 627.5 c 0
 448.5 571.5 394.5 531.5 337.5 531.5 c 0
 280 531.5 236.5 573.5 244 630.5 c 0
-18 630.5 m 0
 -10.5 686.5 43.5 726.5 100.5 726.5 c 0
 158 726.5 201.5 684.5 194 627.5 c 0
 186.5 571.5 132.5 531.5 75.5 531.5 c 0
 18 531.5 -25.5 573.5 -18 630.5 c 0
EndSplineSet
EndChar

StartChar: ntilde
Encoding: 241 241 232
Width: 587
VWidth: 0
Flags: HMW
LayerCount: 2
Fore
SplineSet
291 460 m 1
 212 0 l 1
 19.5 0 l 1
 98.5 460 l 1
 291 460 l 1
361 280 m 1
 364 311.5 365 341 329 345 c 0
 293.5 349 268 315 260 280.5 c 1
 231.5 271 l 1
 249 374.5 302.5 470 423 471 c 0
 539.5 472 576.5 401.5 563.5 300 c 1
 513 0 l 1
 310.5 0 l 1
 361 280 l 1
162 616 m 1
 183.5 665 229.5 717 299 715.5 c 0
 355.5 714.5 377.5 660.5 429.5 662 c 0
 461.5 663 487.5 690 510 717 c 1
 583 622 l 1
 555 582 491 529 424.5 531.5 c 0
 374.5 533.5 337.5 591 288.5 587 c 0
 256 584.5 242 555 233.5 537 c 1
 162 616 l 1
EndSplineSet
EndChar

StartChar: ograve
Encoding: 242 242 233
Width: 597
VWidth: 0
Flags: HMW
LayerCount: 2
Fore
SplineSet
39.5 230.5 m 0
 60.5 376.5 192.5 471 346 471 c 0
 495 471 603 373.5 582.5 229.5 c 0
 561.5 83.5 429 -10 276 -10 c 0
 127 -10 19 86.5 39.5 230.5 c 0
236.5 229.5 m 0
 230 185 250 147 292 145.5 c 0
 335.5 144 377.5 182.5 385.5 230.5 c 0
 392 275 372 314 330 315.5 c 0
 286.5 317 244.5 277.5 236.5 229.5 c 0
234 684 m 1
 375 741.5 l 1
 496 577.5 l 1
 386 531 l 1
 234 684 l 1
EndSplineSet
EndChar

StartChar: oacute
Encoding: 243 243 234
Width: 597
VWidth: 0
Flags: HMW
LayerCount: 2
Fore
SplineSet
39.5 230.5 m 0
 60.5 376.5 192.5 471 346 471 c 0
 495 471 603 373.5 582.5 229.5 c 0
 561.5 83.5 429 -10 276 -10 c 0
 127 -10 19 86.5 39.5 230.5 c 0
236.5 229.5 m 0
 230 185 250 147 292 145.5 c 0
 335.5 144 377.5 182.5 385.5 230.5 c 0
 392 275 372 314 330 315.5 c 0
 286.5 317 244.5 277.5 236.5 229.5 c 0
544.5 677.5 m 1
 348 531.5 l 1
 243 584.5 l 1
 412.5 740 l 1
 544.5 677.5 l 1
EndSplineSet
EndChar

StartChar: ocircumflex
Encoding: 244 244 235
Width: 597
VWidth: 0
Flags: HMW
LayerCount: 2
Fore
SplineSet
39.5 230.5 m 0
 60.5 376.5 192.5 471 346 471 c 0
 495 471 603 373.5 582.5 229.5 c 0
 561.5 83.5 429 -10 276 -10 c 0
 127 -10 19 86.5 39.5 230.5 c 0
236.5 229.5 m 0
 230 185 250 147 292 145.5 c 0
 335.5 144 377.5 182.5 385.5 230.5 c 0
 392 275 372 314 330 315.5 c 0
 286.5 317 244.5 277.5 236.5 229.5 c 0
380 609.5 m 1
 289.5 531 l 1
 164.5 624.5 l 1
 396.5 761 l 1
 591 617.5 l 1
 444 530 l 1
 380 609.5 l 1
EndSplineSet
EndChar

StartChar: otilde
Encoding: 245 245 236
Width: 597
VWidth: 0
Flags: HMW
LayerCount: 2
Fore
SplineSet
39.5 230.5 m 0
 60.5 376.5 192.5 471 346 471 c 0
 495 471 603 373.5 582.5 229.5 c 0
 561.5 83.5 429 -10 276 -10 c 0
 127 -10 19 86.5 39.5 230.5 c 0
236.5 229.5 m 0
 230 185 250 147 292 145.5 c 0
 335.5 144 377.5 182.5 385.5 230.5 c 0
 392 275 372 314 330 315.5 c 0
 286.5 317 244.5 277.5 236.5 229.5 c 0
167 615.5 m 1
 167 666.5 248 716 305 715.5 c 0
 361.5 715 383 660.5 435 662 c 0
 467 663 492.5 690 515 717 c 1
 588 622 l 1
 560.5 582 497 529 430.5 531.5 c 0
 380.5 533.5 342.5 591 293.5 587 c 0
 261 584.5 248 555 239.5 537 c 1
 167 615.5 l 1
EndSplineSet
EndChar

StartChar: odieresis
Encoding: 246 246 237
Width: 597
VWidth: 0
Flags: HMW
LayerCount: 2
Fore
SplineSet
39.5 230.5 m 0
 60.5 376.5 192.5 471 346 471 c 0
 495 471 603 373.5 582.5 229.5 c 0
 561.5 83.5 429 -10 276 -10 c 0
 127 -10 19 86.5 39.5 230.5 c 0
236.5 229.5 m 0
 230 185 250 147 292 145.5 c 0
 335.5 144 377.5 182.5 385.5 230.5 c 0
 392 275 372 314 330 315.5 c 0
 286.5 317 244.5 277.5 236.5 229.5 c 0
404 630.5 m 0
 411.5 686.5 465.5 726.5 522.5 726.5 c 0
 580 726.5 623.5 684.5 616 627.5 c 0
 608.5 571.5 554.5 531.5 497.5 531.5 c 0
 440 531.5 396.5 573.5 404 630.5 c 0
142 630.5 m 0
 149.5 686.5 203.5 726.5 260.5 726.5 c 0
 318 726.5 361.5 684.5 354 627.5 c 0
 346.5 571.5 292.5 531.5 235.5 531.5 c 0
 178 531.5 134.5 573.5 142 630.5 c 0
EndSplineSet
EndChar

StartChar: ugrave
Encoding: 249 249 238
Width: 587
VWidth: 0
Flags: HMW
LayerCount: 2
Fore
SplineSet
320 0 m 1
 399.5 460 l 1
 592 460 l 1
 513 0 l 1
 320 0 l 1
250.5 180 m 1
 247.5 148.5 246 119 282 115 c 0
 317.5 111 343.5 145 351.5 179.5 c 1
 380 189 l 1
 362.5 85.5 308.5 -10 188 -11 c 0
 71.5 -12 35 58.5 48 160 c 1
 98.5 460 l 1
 301 460 l 1
 250.5 180 l 1
228 684 m 1
 369.5 741.5 l 1
 490 577.5 l 1
 380.5 531 l 1
 228 684 l 1
EndSplineSet
EndChar

StartChar: uacute
Encoding: 250 250 239
Width: 587
VWidth: 0
Flags: HMW
LayerCount: 2
Fore
SplineSet
320 0 m 1
 399.5 460 l 1
 592 460 l 1
 513 0 l 1
 320 0 l 1
250.5 180 m 1
 247.5 148.5 246 119 282 115 c 0
 317.5 111 343.5 145 351.5 179.5 c 1
 380 189 l 1
 362.5 85.5 308.5 -10 188 -11 c 0
 71.5 -12 35 58.5 48 160 c 1
 98.5 460 l 1
 301 460 l 1
 250.5 180 l 1
538.5 677.5 m 1
 342.5 531.5 l 1
 237.5 584.5 l 1
 407 740 l 1
 538.5 677.5 l 1
EndSplineSet
EndChar

StartChar: ucircumflex
Encoding: 251 251 240
Width: 587
VWidth: 0
Flags: HMW
LayerCount: 2
Fore
SplineSet
320 0 m 1
 399.5 460 l 1
 592 460 l 1
 513 0 l 1
 320 0 l 1
250.5 180 m 1
 247.5 148.5 246 119 282 115 c 0
 317.5 111 343.5 145 351.5 179.5 c 1
 380 189 l 1
 362.5 85.5 308.5 -10 188 -11 c 0
 71.5 -12 35 58.5 48 160 c 1
 98.5 460 l 1
 301 460 l 1
 250.5 180 l 1
374.5 609.5 m 1
 283.5 531 l 1
 158.5 624.5 l 1
 391 761 l 1
 585.5 617.5 l 1
 438 530 l 1
 374.5 609.5 l 1
EndSplineSet
EndChar

StartChar: udieresis
Encoding: 252 252 241
Width: 587
VWidth: 0
Flags: HMW
LayerCount: 2
Fore
SplineSet
320 0 m 1
 399.5 460 l 1
 592 460 l 1
 513 0 l 1
 320 0 l 1
250.5 180 m 1
 247.5 148.5 246 119 282 115 c 0
 317.5 111 343.5 145 351.5 179.5 c 1
 380 189 l 1
 362.5 85.5 308.5 -10 188 -11 c 0
 71.5 -12 35 58.5 48 160 c 1
 98.5 460 l 1
 301 460 l 1
 250.5 180 l 1
399.5 630.5 m 0
 407 686.5 460.5 726.5 517.5 726.5 c 0
 575 726.5 619 684.5 611.5 627.5 c 0
 604 571.5 550 531.5 493 531.5 c 0
 435.5 531.5 392 573.5 399.5 630.5 c 0
137.5 630.5 m 0
 145 686.5 198.5 726.5 255.5 726.5 c 0
 313 726.5 356.5 684.5 349 627.5 c 0
 341.5 571.5 288 531.5 231 531.5 c 0
 173.5 531.5 130 573.5 137.5 630.5 c 0
EndSplineSet
EndChar

StartChar: yacute
Encoding: 253 253 242
Width: 553
VWidth: 0
Flags: HMW
LayerCount: 2
Fore
SplineSet
623.5 459.5 m 1
 215.5 -219.5 l 1
 23.5 -219.5 l 1
 169.5 25.5 l 1
 38 460 l 1
 240 460 l 1
 321 85 l 1
 216 85.5 l 1
 426.5 459.5 l 1
 623.5 459.5 l 1
541.5 677.5 m 1
 345 531.5 l 1
 240.5 584.5 l 1
 410 740 l 1
 541.5 677.5 l 1
EndSplineSet
EndChar

StartChar: thorn
Encoding: 254 254 243
Width: 625
VWidth: 0
Flags: HMW
LayerCount: 2
Fore
SplineSet
174.5 -220 m 1
 -18 -220 l 1
 153 780 l 1
 346 780 l 1
 174.5 -220 l 1
610.5 229.5 m 0
 593 91.5 485.5 -10 367.5 -10 c 0
 244 -10 188 104.5 203.5 230.5 c 0
 221 362.5 315 469.5 437.5 469.5 c 0
 556 469.5 626.5 362.5 610.5 229.5 c 0
409 230.5 m 0
 415.5 273 394 318 349 319.5 c 0
 305 321 258 278 250 229.5 c 0
 243.5 184.5 267.5 142 310 140.5 c 0
 356.5 139 401 184.5 409 230.5 c 0
EndSplineSet
EndChar

StartChar: ydieresis
Encoding: 255 255 244
Width: 553
VWidth: 0
Flags: HMW
LayerCount: 2
Fore
SplineSet
623.5 459.5 m 1
 215.5 -219.5 l 1
 23.5 -219.5 l 1
 169.5 25.5 l 1
 38 460 l 1
 240 460 l 1
 321 85 l 1
 216 85.5 l 1
 426.5 459.5 l 1
 623.5 459.5 l 1
382 630.5 m 0
 389.5 686.5 443.5 726.5 500.5 726.5 c 0
 558 726.5 601.5 684.5 594 627.5 c 0
 586.5 571.5 532.5 531.5 475.5 531.5 c 0
 418 531.5 374.5 573.5 382 630.5 c 0
120 630.5 m 0
 127.5 686.5 181 726.5 238 726.5 c 0
 295.5 726.5 339.5 684.5 332 627.5 c 0
 324.5 571.5 270.5 531.5 213.5 531.5 c 0
 156 531.5 112.5 573.5 120 630.5 c 0
EndSplineSet
EndChar

StartChar: Amacron
Encoding: 256 256 245
Width: 756
VWidth: 0
Flags: HMW
LayerCount: 2
Fore
SplineSet
187 90 m 1
 215 248 l 1
 577.5 248 l 1
 549.5 90 l 1
 187 90 l 1
420.5 382 m 1
 302.5 188.5 l 1
 311 138 l 1
 214.5 0 l 1
 -36.5 0 l 1
 478 752.5 l 1
 733.5 0 l 1
 493.5 0 l 1
 442.5 132.5 l 1
 467.5 189 l 1
 420.5 382 l 1
301 810 m 1
 330 975 l 1
 706 975 l 1
 677 810 l 1
 301 810 l 1
EndSplineSet
EndChar

StartChar: amacron
Encoding: 257 257 246
Width: 625
VWidth: 0
Flags: HMW
LayerCount: 2
Fore
SplineSet
438 460 m 1
 631 460 l 1
 551.5 0 l 1
 359 0 l 1
 438 460 l 1
39.5 230.5 m 0
 57 368.5 165 470 283 470 c 0
 406.5 470 460.5 355.5 445 229.5 c 0
 427.5 97.5 335.5 -9.5 213 -9.5 c 0
 94.5 -9.5 23.5 97.5 39.5 230.5 c 0
241.5 229.5 m 0
 235 187 256 142 301 140.5 c 0
 345 139 390.5 182 398.5 230.5 c 0
 405 275.5 383 318 340.5 319.5 c 0
 294 321 249.5 275.5 241.5 229.5 c 0
197.75 531 m 1
 226.75 696 l 1
 603.75 696 l 1
 574.75 531 l 1
 197.75 531 l 1
EndSplineSet
Substitution2: "alt a" amacron.alt
EndChar

StartChar: breve
Encoding: 728 728 247
Width: 529
VWidth: 0
Flags: HMW
LayerCount: 2
Fore
SplineSet
213.5 850 m 1
 325 850 l 1
 326.5 819 342 802.5 365.5 800.5 c 0
 390 798.5 417.5 819.5 425 849.5 c 1
 541.5 849 l 1
 525 762.5 460.5 701 360.5 700.5 c 0
 261 700 209 761.5 213.5 850 c 1
EndSplineSet
EndChar

StartChar: Abreve
Encoding: 258 258 248
Width: 756
VWidth: 0
Flags: HMW
LayerCount: 2
Fore
SplineSet
187 90 m 1
 215 248 l 1
 577.5 248 l 1
 549.5 90 l 1
 187 90 l 1
420.5 382 m 1
 302.5 188.5 l 1
 311 138 l 1
 214.5 0 l 1
 -36.5 0 l 1
 478 752.5 l 1
 733.5 0 l 1
 493.5 0 l 1
 442.5 132.5 l 1
 467.5 189 l 1
 420.5 382 l 1
350 960 m 1
 461.5 960 l 1
 462.5 929 477.5 912.5 501 910.5 c 0
 525.5 908.5 553 929.5 561 959.5 c 1
 678 958.5 l 1
 660.5 872 595 811 495 810.5 c 0
 395 810 344.5 872 350 960 c 1
EndSplineSet
EndChar

StartChar: abreve
Encoding: 259 259 249
Width: 625
VWidth: 0
Flags: HMW
LayerCount: 2
Fore
SplineSet
438 460 m 1
 631 460 l 1
 551.5 0 l 1
 359 0 l 1
 438 460 l 1
39.5 230.5 m 0
 57 368.5 165 470 283 470 c 0
 406.5 470 460.5 355.5 445 229.5 c 0
 427.5 97.5 335.5 -9.5 213 -9.5 c 0
 94.5 -9.5 23.5 97.5 39.5 230.5 c 0
241.5 229.5 m 0
 235 187 256 142 301 140.5 c 0
 345 139 390.5 182 398.5 230.5 c 0
 405 275.5 383 318 340.5 319.5 c 0
 294 321 249.5 275.5 241.5 229.5 c 0
237 681 m 1
 349 681 l 1
 350 650 364.5 633.5 388 631.5 c 0
 412.5 629.5 440.5 650.5 448.5 680.5 c 1
 565.5 679.5 l 1
 548 593 482.5 532 382.5 531.5 c 0
 282.5 531 231.5 593 237 681 c 1
EndSplineSet
Substitution2: "alt a" abreve.alt
EndChar

StartChar: Aogonek
Encoding: 260 260 250
Width: 756
VWidth: 0
Flags: HMW
LayerCount: 2
Fore
SplineSet
187 90 m 1
 215 248 l 1
 577.5 248 l 1
 549.5 90 l 1
 187 90 l 1
420.5 382 m 1
 302.5 188.5 l 1
 311 138 l 1
 214.5 0 l 1
 -36.5 0 l 1
 478 752.5 l 1
 733.5 0 l 1
 493.5 0 l 1
 442.5 132.5 l 1
 467.5 189 l 1
 420.5 382 l 1
643.5 -99.5 m 1
 664 -181.5 l 1
 640 -202.5 607.5 -220.5 556 -220 c 0
 500.5 -219 450.5 -183 458 -119 c 0
 468 -46 550 -8 617 25 c 1
 658 0 l 1
 615.5 -28.5 578 -55.5 571 -90.5 c 0
 569.5 -105 573 -118 590 -119.5 c 0
 606.5 -121 629 -109.5 643.5 -99.5 c 1
EndSplineSet
EndChar

StartChar: aogonek
Encoding: 261 261 251
Width: 625
VWidth: 0
Flags: HMW
LayerCount: 2
Fore
SplineSet
438 460 m 1
 631 460 l 1
 551.5 0 l 1
 359 0 l 1
 438 460 l 1
39.5 230.5 m 0
 57 368.5 165 470 283 470 c 0
 406.5 470 460.5 355.5 445 229.5 c 0
 427.5 97.5 335.5 -9.5 213 -9.5 c 0
 94.5 -9.5 23.5 97.5 39.5 230.5 c 0
241.5 229.5 m 0
 235 187 256 142 301 140.5 c 0
 345 139 390.5 182 398.5 230.5 c 0
 405 275.5 383 318 340.5 319.5 c 0
 294 321 249.5 275.5 241.5 229.5 c 0
488 -99.5 m 1
 509 -181.5 l 1
 485 -202.5 452 -220.5 400.5 -220 c 0
 345 -219 295 -183 302.5 -119 c 0
 312.5 -46 395 -8 462 25 c 1
 502.5 0 l 1
 460 -28.5 423 -55.5 416 -90.5 c 0
 414.5 -105 418 -118 435 -119.5 c 0
 451.5 -121 473.5 -109.5 488 -99.5 c 1
EndSplineSet
Substitution2: "alt a" aogonek.alt
EndChar

StartChar: Cacute
Encoding: 262 262 252
Width: 689
VWidth: 0
Flags: HMW
LayerCount: 2
Fore
SplineSet
297.5 350 m 0
 281 253.5 341 189 437 187.5 c 0
 527.5 186.5 592.5 230.5 648 272 c 1
 615 47 l 1
 553.5 8.5 488.5 -20 398 -20 c 0
 169.5 -20 28.5 137 60 350 c 0
 93 568.5 278 720.5 512 720 c 0
 599.5 720 658.5 693 714.5 652.5 c 1
 680.5 427 l 1
 639.5 474.5 587.5 512.5 504 512.5 c 0
 405 512 315.5 450.5 297.5 350 c 0
681 926.5 m 1
 484.5 780.5 l 1
 380 833.5 l 1
 549.5 989 l 1
 681 926.5 l 1
EndSplineSet
EndChar

StartChar: cacute
Encoding: 263 263 253
Width: 488
VWidth: 0
Flags: HMW
LayerCount: 2
Fore
SplineSet
237 229.5 m 0
 228 175.5 262 140.5 315 139 c 0
 362.5 137 409 161 444.5 196 c 1
 419.5 21 l 1
 381.5 2.5 341.5 -10 281 -10 c 0
 129.5 -10 18.5 85 39.5 230.5 c 0
 61 378 194.5 470 351 470 c 0
 411 470 449.5 456.5 487 440.5 c 1
 461 264 l 1
 434.5 302.5 395 322.5 356.5 322 c 0
 302 321.5 246.5 280.5 237 229.5 c 0
520.5 677.5 m 1
 324 531.5 l 1
 219 584.5 l 1
 388.5 740 l 1
 520.5 677.5 l 1
EndSplineSet
EndChar

StartChar: Ccircumflex
Encoding: 264 264 254
Width: 689
VWidth: 0
Flags: HMW
LayerCount: 2
Fore
SplineSet
297.5 350 m 0
 281 253.5 341 189 437 187.5 c 0
 527.5 186.5 592.5 230.5 648 272 c 1
 615 47 l 1
 553.5 8.5 488.5 -20 398 -20 c 0
 169.5 -20 28.5 137 60 350 c 0
 93 568.5 278 720.5 512 720 c 0
 599.5 720 658.5 693 714.5 652.5 c 1
 680.5 427 l 1
 639.5 474.5 587.5 512.5 504 512.5 c 0
 405 512 315.5 450.5 297.5 350 c 0
546 858.5 m 1
 455 780 l 1
 330 873.5 l 1
 562.5 1010 l 1
 757 866.5 l 1
 609.5 779 l 1
 546 858.5 l 1
EndSplineSet
EndChar

StartChar: ccircumflex
Encoding: 265 265 255
Width: 488
VWidth: 0
Flags: HMW
LayerCount: 2
Fore
SplineSet
237 229.5 m 0
 228 175.5 262 140.5 315 139 c 0
 362.5 137 409 161 444.5 196 c 1
 419.5 21 l 1
 381.5 2.5 341.5 -10 281 -10 c 0
 129.5 -10 18.5 85 39.5 230.5 c 0
 61 378 194.5 470 351 470 c 0
 411 470 449.5 456.5 487 440.5 c 1
 461 264 l 1
 434.5 302.5 395 322.5 356.5 322 c 0
 302 321.5 246.5 280.5 237 229.5 c 0
336.5 609.5 m 1
 245.5 531 l 1
 120.5 624.5 l 1
 353 761 l 1
 547.5 617.5 l 1
 400.5 530 l 1
 336.5 609.5 l 1
EndSplineSet
EndChar

StartChar: Cdotaccent
Encoding: 266 266 256
Width: 689
VWidth: 0
Flags: HMW
LayerCount: 2
Fore
SplineSet
297.5 350 m 0
 281 253.5 341 189 437 187.5 c 0
 527.5 186.5 592.5 230.5 648 272 c 1
 615 47 l 1
 553.5 8.5 488.5 -20 398 -20 c 0
 169.5 -20 28.5 137 60 350 c 0
 93 568.5 278 720.5 512 720 c 0
 599.5 720 658.5 693 714.5 652.5 c 1
 680.5 427 l 1
 639.5 474.5 587.5 512.5 504 512.5 c 0
 405 512 315.5 450.5 297.5 350 c 0
400 879.5 m 0
 407.5 935.5 461.5 975.5 518.5 975.5 c 0
 576 975.5 619.5 933.5 612 876.5 c 0
 604.5 820.5 550.5 780.5 493.5 780.5 c 0
 436 780.5 392.5 822.5 400 879.5 c 0
EndSplineSet
EndChar

StartChar: cdotaccent
Encoding: 267 267 257
Width: 488
VWidth: 0
Flags: HMW
LayerCount: 2
Fore
SplineSet
237 229.5 m 0
 228 175.5 262 140.5 315 139 c 0
 362.5 137 409 161 444.5 196 c 1
 419.5 21 l 1
 381.5 2.5 341.5 -10 281 -10 c 0
 129.5 -10 18.5 85 39.5 230.5 c 0
 61 378 194.5 470 351 470 c 0
 411 470 449.5 456.5 487 440.5 c 1
 461 264 l 1
 434.5 302.5 395 322.5 356.5 322 c 0
 302 321.5 246.5 280.5 237 229.5 c 0
241 640.5 m 0
 248.5 696.5 302.5 736.5 359.5 736.5 c 0
 417 736.5 460.5 694.5 453 637.5 c 0
 445.5 581.5 391.5 541.5 334.5 541.5 c 0
 277 541.5 233.5 583.5 241 640.5 c 0
EndSplineSet
EndChar

StartChar: Ccaron
Encoding: 268 268 258
Width: 689
VWidth: 0
Flags: HMW
LayerCount: 2
Fore
SplineSet
297.5 350 m 0
 281 253.5 341 189 437 187.5 c 0
 527.5 186.5 592.5 230.5 648 272 c 1
 615 47 l 1
 553.5 8.5 488.5 -20 398 -20 c 0
 169.5 -20 28.5 137 60 350 c 0
 93 568.5 278 720.5 512 720 c 0
 599.5 720 658.5 693 714.5 652.5 c 1
 680.5 427 l 1
 639.5 474.5 587.5 512.5 504 512.5 c 0
 405 512 315.5 450.5 297.5 350 c 0
549.5 931.5 m 1
 640.5 1010 l 1
 765.5 916.5 l 1
 533 780 l 1
 338.5 923.5 l 1
 486 1011 l 1
 549.5 931.5 l 1
EndSplineSet
EndChar

StartChar: ccaron
Encoding: 269 269 259
Width: 488
VWidth: 0
Flags: HMW
LayerCount: 2
Fore
SplineSet
237 229.5 m 0
 228 175.5 262 140.5 315 139 c 0
 362.5 137 409 161 444.5 196 c 1
 419.5 21 l 1
 381.5 2.5 341.5 -10 281 -10 c 0
 129.5 -10 18.5 85 39.5 230.5 c 0
 61 378 194.5 470 351 470 c 0
 411 470 449.5 456.5 487 440.5 c 1
 461 264 l 1
 434.5 302.5 395 322.5 356.5 322 c 0
 302 321.5 246.5 280.5 237 229.5 c 0
340.5 682.5 m 1
 431 761 l 1
 556 667.5 l 1
 323.5 531 l 1
 129 674.5 l 1
 276.5 762 l 1
 340.5 682.5 l 1
EndSplineSet
EndChar

StartChar: Dcaron
Encoding: 270 270 260
Width: 742
VWidth: 0
Flags: HMW
LayerCount: 2
Fore
SplineSet
159 700 m 1
 384.5 700 l 1
 264.5 0 l 1
 39 0 l 1
 159 700 l 1
313.5 0 m 1
 186 0 l 1
 219.5 190 l 1
 324.5 190 l 1
 415.5 192 502.5 230 521.5 350 c 0
 539 466 479 507 390.5 509.5 c 2
 273 510.5 l 1
 306.5 700 l 1
 421 700 l 1
 645.5 697.5 779 560.5 747.5 350 c 0
 715 135 544.5 2.5 313.5 0 c 1
518.25 931.5 m 1
 608.75 1010 l 1
 733.75 916.5 l 1
 501.75 780 l 1
 307.25 923.5 l 1
 454.25 1011 l 1
 518.25 931.5 l 1
EndSplineSet
EndChar

StartChar: dcaron
Encoding: 271 271 261
Width: 625
VWidth: 0
Flags: HMW
LayerCount: 2
Fore
SplineSet
493 780 m 1
 685.5 780 l 1
 551.5 0 l 1
 359 0 l 1
 493 780 l 1
39.5 230.5 m 0
 57 368.5 165 470 283 470 c 0
 406.5 470 462 355.5 446.5 229.5 c 0
 429 97.5 335.5 -9.5 213 -9.5 c 0
 94.5 -9.5 23.5 97.5 39.5 230.5 c 0
241.5 229.5 m 0
 235 187 256 142 301 140.5 c 0
 345 139 392 182 400 230.5 c 0
 406.5 275.5 383 318 340.5 319.5 c 0
 294 321 249.5 275.5 241.5 229.5 c 0
794.5 779 m 1
 984.5 744 l 1
 811.5 497 l 1
 665.5 523 l 1
 794.5 779 l 1
EndSplineSet
EndChar

StartChar: Dcroat
Encoding: 272 272 262
Width: 742
VWidth: 0
Flags: HMW
LayerCount: 2
Fore
SplineSet
25 290 m 1
 45.5 405 l 1
 408 405 l 1
 387.5 290 l 1
 25 290 l 1
159 700 m 1
 384.5 700 l 1
 264.5 0 l 1
 39 0 l 1
 159 700 l 1
313.5 0 m 1
 186 0 l 1
 219.5 190 l 1
 324.5 190 l 1
 415.5 192 502.5 230 521.5 350 c 0
 539 466 479 507 390.5 509.5 c 2
 273 510.5 l 1
 306.5 700 l 1
 421 700 l 1
 645.5 697.5 779 560.5 747.5 350 c 0
 715 135 544.5 2.5 313.5 0 c 1
EndSplineSet
EndChar

StartChar: dcroat
Encoding: 273 273 263
Width: 625
VWidth: 0
Flags: HMW
LayerCount: 2
Fore
SplineSet
351 550 m 1
 371.5 665 l 1
 753.5 665 l 1
 733 550 l 1
 351 550 l 1
493 780 m 1
 685.5 780 l 1
 551.5 0 l 1
 359 0 l 1
 493 780 l 1
39.5 230.5 m 0
 57 368.5 165 470 283 470 c 0
 406.5 470 462 355.5 446.5 229.5 c 0
 429 97.5 335.5 -9.5 213 -9.5 c 0
 94.5 -9.5 23.5 97.5 39.5 230.5 c 0
241.5 229.5 m 0
 235 187 256 142 301 140.5 c 0
 345 139 392 182 400 230.5 c 0
 406.5 275.5 383 318 340.5 319.5 c 0
 294 321 249.5 275.5 241.5 229.5 c 0
EndSplineSet
EndChar

StartChar: Emacron
Encoding: 274 274 264
Width: 616
VWidth: 0
Flags: HMW
LayerCount: 2
Fore
SplineSet
186 0 m 1
 217 175 l 1
 563 175 l 1
 532 0 l 1
 186 0 l 1
276 525 m 1
 306.5 700 l 1
 652.5 700 l 1
 622 525 l 1
 276 525 l 1
233 275 m 1
 263 445 l 1
 589.5 445 l 1
 559.5 275 l 1
 233 275 l 1
159 700 m 1
 366 700 l 1
 246 0 l 1
 39 0 l 1
 159 700 l 1
230 780 m 1
 259 945 l 1
 636 945 l 1
 607 780 l 1
 230 780 l 1
EndSplineSet
EndChar

StartChar: emacron
Encoding: 275 275 265
Width: 591
VWidth: 0
Flags: HMW
LayerCount: 2
Fore
SplineSet
138.5 190.5 m 1
 153 283.5 l 1
 376.191 284.5 l 1
 374.482 320.635 368.021 347.5 330.5 349.5 c 0
 277.5 352.5 248.5 302.5 238 249.5 c 1
 231.5 229.5 l 1
 223.5 167 239.5 125 287 121 c 0
 330 118.5 365.5 138.5 388 164.5 c 1
 561.5 135 l 1
 502 46.5 413.5 -10 286 -10 c 0
 116.5 -10 19 86.5 40 230 c 0
 42.5 247 46 263 51 279 c 0
 89 396.5 195.5 470 346 470 c 0
 507 470 592 382.5 573.5 239 c 0
 571.5 227 568.5 209 565 190.5 c 1
 138.5 190.5 l 1
173.25 531 m 1
 202.25 696 l 1
 579.75 696 l 1
 550.25 531 l 1
 173.25 531 l 1
EndSplineSet
EndChar

StartChar: Ebreve
Encoding: 276 276 266
Width: 616
VWidth: 0
Flags: HMW
LayerCount: 2
Fore
SplineSet
186 0 m 1
 217 175 l 1
 563 175 l 1
 532 0 l 1
 186 0 l 1
276 525 m 1
 306.5 700 l 1
 652.5 700 l 1
 622 525 l 1
 276 525 l 1
233 275 m 1
 263 445 l 1
 589.5 445 l 1
 559.5 275 l 1
 233 275 l 1
159 700 m 1
 366 700 l 1
 246 0 l 1
 39 0 l 1
 159 700 l 1
278.5 930 m 1
 390.5 930 l 1
 391.5 899 406 882.5 429.5 880.5 c 0
 454 878.5 482 899.5 490 929.5 c 1
 607 928.5 l 1
 589.5 842 524 781 424 780.5 c 0
 324 780 273 842 278.5 930 c 1
EndSplineSet
EndChar

StartChar: ebreve
Encoding: 277 277 267
Width: 591
VWidth: 0
Flags: HMW
LayerCount: 2
Fore
SplineSet
138.5 190.5 m 1
 153 283.5 l 1
 376.191 284.5 l 1
 374.482 320.635 368.021 347.5 330.5 349.5 c 0
 277.5 352.5 248.5 302.5 238 249.5 c 1
 231.5 229.5 l 1
 223.5 167 239.5 125 287 121 c 0
 330 118.5 365.5 138.5 388 164.5 c 1
 561.5 135 l 1
 502 46.5 413.5 -10 286 -10 c 0
 116.5 -10 19 86.5 40 230 c 0
 42.5 247 46 263 51 279 c 0
 89 396.5 195.5 470 346 470 c 0
 507 470 592 382.5 573.5 239 c 0
 571.5 227 568.5 209 565 190.5 c 1
 138.5 190.5 l 1
222.5 681 m 1
 334.5 681 l 1
 335.5 650 350 633.5 373.5 631.5 c 0
 398 629.5 426 650.5 434 680.5 c 1
 551 679.5 l 1
 533.5 593 468 532 368 531.5 c 0
 268 531 217 593 222.5 681 c 1
EndSplineSet
EndChar

StartChar: Edotaccent
Encoding: 278 278 268
Width: 616
VWidth: 0
Flags: HMW
LayerCount: 2
Fore
SplineSet
186 0 m 1
 217 175 l 1
 563 175 l 1
 532 0 l 1
 186 0 l 1
276 525 m 1
 306.5 700 l 1
 652.5 700 l 1
 622 525 l 1
 276 525 l 1
233 275 m 1
 263 445 l 1
 589.5 445 l 1
 559.5 275 l 1
 233 275 l 1
159 700 m 1
 366 700 l 1
 246 0 l 1
 39 0 l 1
 159 700 l 1
329 879.5 m 0
 336.5 935.5 390.5 975.5 447.5 975.5 c 0
 505 975.5 548.5 933.5 541 876.5 c 0
 533.5 820.5 480 780.5 423 780.5 c 0
 365.5 780.5 321.5 822.5 329 879.5 c 0
EndSplineSet
EndChar

StartChar: edotaccent
Encoding: 279 279 269
Width: 591
VWidth: 0
Flags: HMW
LayerCount: 2
Fore
SplineSet
138.5 190.5 m 1
 153 283.5 l 1
 376.191 284.5 l 1
 374.482 320.635 368.021 347.5 330.5 349.5 c 0
 277.5 352.5 248.5 302.5 238 249.5 c 1
 231.5 229.5 l 1
 223.5 167 239.5 125 287 121 c 0
 330 118.5 365.5 138.5 388 164.5 c 1
 561.5 135 l 1
 502 46.5 413.5 -10 286 -10 c 0
 116.5 -10 19 86.5 40 230 c 0
 42.5 247 46 263 51 279 c 0
 89 396.5 195.5 470 346 470 c 0
 507 470 592 382.5 573.5 239 c 0
 571.5 227 568.5 209 565 190.5 c 1
 138.5 190.5 l 1
273 630.5 m 0
 280.5 686.5 334.5 726.5 391.5 726.5 c 0
 449 726.5 492.5 684.5 485 627.5 c 0
 477.5 571.5 423.5 531.5 366.5 531.5 c 0
 309 531.5 265.5 573.5 273 630.5 c 0
EndSplineSet
EndChar

StartChar: Eogonek
Encoding: 280 280 270
Width: 616
VWidth: 0
Flags: HMW
LayerCount: 2
Fore
SplineSet
186 0 m 1
 217 175 l 1
 563 175 l 1
 532 0 l 1
 186 0 l 1
276 525 m 1
 306.5 700 l 1
 652.5 700 l 1
 622 525 l 1
 276 525 l 1
233 275 m 1
 263 445 l 1
 589.5 445 l 1
 559.5 275 l 1
 233 275 l 1
159 700 m 1
 366 700 l 1
 246 0 l 1
 39 0 l 1
 159 700 l 1
362 -99.5 m 1
 382.5 -181.5 l 1
 358.5 -202.5 326 -220.5 274.5 -220 c 0
 219 -219 169 -183 176.5 -119 c 0
 186.5 -46 268.5 -8 335.5 25 c 1
 376.5 0 l 1
 334 -28.5 297 -55.5 290 -90.5 c 0
 288.5 -105 291.5 -118 308.5 -119.5 c 0
 325 -121 347.5 -109.5 362 -99.5 c 1
EndSplineSet
EndChar

StartChar: eogonek
Encoding: 281 281 271
Width: 591
VWidth: 0
Flags: HMW
LayerCount: 2
Fore
SplineSet
138.5 190.5 m 1
 153 283.5 l 1
 376.191 284.5 l 1
 374.482 320.635 368.021 347.5 330.5 349.5 c 0
 277.5 352.5 248.5 302.5 238 249.5 c 1
 231.5 229.5 l 1
 223.5 167 239.5 125 287 121 c 0
 330 118.5 365.5 138.5 388 164.5 c 1
 561.5 135 l 1
 502 46.5 413.5 -10 286 -10 c 0
 116.5 -10 19 86.5 40 230 c 0
 42.5 247 46 263 51 279 c 0
 89 396.5 195.5 470 346 470 c 0
 507 470 592 382.5 573.5 239 c 0
 571.5 227 568.5 209 565 190.5 c 1
 138.5 190.5 l 1
290.5 -86.4165 m 1
 311 -168.4165 l 1
 287.5 -189.4165 254.5 -206.9165 203 -206.4165 c 0
 147.5 -205.4165 97.5 -169.9165 105 -105.9165 c 0
 115 -32.9165 197 5.583495 264 38.5835 c 1
 304.5 10.5835 l 1
 261 -15.4165 225 -42.9165 218 -76.9165 c 0
 216 -91.4165 220 -104.4165 237 -105.9165 c 0
 253.5 -107.4165 276 -96.4165 290.5 -86.4165 c 1
EndSplineSet
EndChar

StartChar: Ecaron
Encoding: 282 282 272
Width: 616
VWidth: 0
Flags: HMW
LayerCount: 2
Fore
SplineSet
186 0 m 1
 217 175 l 1
 563 175 l 1
 532 0 l 1
 186 0 l 1
276 525 m 1
 306.5 700 l 1
 652.5 700 l 1
 622 525 l 1
 276 525 l 1
233 275 m 1
 263 445 l 1
 589.5 445 l 1
 559.5 275 l 1
 233 275 l 1
159 700 m 1
 366 700 l 1
 246 0 l 1
 39 0 l 1
 159 700 l 1
440 931.5 m 1
 531 1010 l 1
 655.5 916.5 l 1
 423.5 780 l 1
 229 923.5 l 1
 376 1011 l 1
 440 931.5 l 1
EndSplineSet
EndChar

StartChar: ecaron
Encoding: 283 283 273
Width: 591
VWidth: 0
Flags: HMW
LayerCount: 2
Fore
SplineSet
138.5 190.5 m 1
 153 283.5 l 1
 376.191 284.5 l 1
 374.482 320.635 368.021 347.5 330.5 349.5 c 0
 277.5 352.5 248.5 302.5 238 249.5 c 1
 231.5 229.5 l 1
 223.5 167 239.5 125 287 121 c 0
 330 118.5 365.5 138.5 388 164.5 c 1
 561.5 135 l 1
 502 46.5 413.5 -10 286 -10 c 0
 116.5 -10 19 86.5 40 230 c 0
 42.5 247 46 263 51 279 c 0
 89 396.5 195.5 470 346 470 c 0
 507 470 592 382.5 573.5 239 c 0
 571.5 227 568.5 209 565 190.5 c 1
 138.5 190.5 l 1
384 682.5 m 1
 474.5 761 l 1
 599.5 667.5 l 1
 367.5 531 l 1
 173 674.5 l 1
 320 762 l 1
 384 682.5 l 1
EndSplineSet
EndChar

StartChar: Gcircumflex
Encoding: 284 284 274
Width: 813
VWidth: 0
Flags: HMW
LayerCount: 2
Fore
SplineSet
428.5 240 m 1
 457 400 l 1
 818 399.5 l 1
 800 168.5 640.5 -29.5 391.5 -30 c 0
 166.5 -30 29 136.5 60 350 c 0
 93.5 571 287.5 721 516.5 720 c 0
 659 719.5 753 645.5 815.5 542.5 c 1
 604 452 l 1
 585 497 557 533.5 497 534.5 c 0
 394 537 304.5 458.5 286 350 c 0
 269.5 246 311.5 157 420.5 155.5 c 0
 497.312 154.5 547.725 191.6185 584.822 241 c 1
 428.5 240 l 1
550.5 858.5 m 1
 460 780 l 1
 335 873.5 l 1
 567.5 1010 l 1
 761.5 866.5 l 1
 614.5 779 l 1
 550.5 858.5 l 1
EndSplineSet
EndChar

StartChar: gcircumflex
Encoding: 285 285 275
Width: 616
VWidth: 0
Flags: HMW
LayerCount: 2
Fore
SplineSet
3 -34.5 m 1
 183.5 -35.5 l 1
 189.5 -78.5 207 -94 247.5 -94.5 c 0
 308.5 -95.5 349 -48.5 360 10.5 c 1
 438 460 l 1
 621 460 l 1
 544.5 9.5 l 2
 518 -159 402.5 -244 244 -244.5 c 0
 77.5 -245 7.5 -166 3 -34.5 c 1
41.5 240.5 m 0
 59 378.5 166 470 283 470 c 0
 405.5 470 464.5 366.5 448.5 239.5 c 0
 431.5 108 338 10 216.5 10 c 0
 99.5 10 25.5 107 41.5 240.5 c 0
243 239 m 0
 236.5 195 261 162.5 304.5 160.5 c 0
 347 158.5 395 193 402 241 c 0
 408.5 287.5 381.5 317.5 340.5 319.5 c 0
 295.5 321.5 250 284.5 243 239 c 0
424 609.5 m 1
 333 531 l 1
 208 624.5 l 1
 440.5 761 l 1
 635 617.5 l 1
 487.5 530 l 1
 424 609.5 l 1
EndSplineSet
EndChar

StartChar: Gbreve
Encoding: 286 286 276
Width: 813
VWidth: 0
Flags: HMW
LayerCount: 2
Fore
SplineSet
428.5 240 m 1
 457 400 l 1
 818 399.5 l 1
 800 168.5 640.5 -29.5 391.5 -30 c 0
 166.5 -30 29 136.5 60 350 c 0
 93.5 571 287.5 721 516.5 720 c 0
 659 719.5 753 645.5 815.5 542.5 c 1
 604 452 l 1
 585 497 557 533.5 497 534.5 c 0
 394 537 304.5 458.5 286 350 c 0
 269.5 246 311.5 157 420.5 155.5 c 0
 497.312 154.5 547.725 191.6185 584.822 241 c 1
 428.5 240 l 1
393 930 m 1
 505 930 l 1
 506 899 520.5 882.5 544 880.5 c 0
 568.5 878.5 596.5 899.5 604.5 929.5 c 1
 721.5 928.5 l 1
 704 842 638.5 781 538.5 780.5 c 0
 438.5 780 387.5 842 393 930 c 1
EndSplineSet
EndChar

StartChar: gbreve
Encoding: 287 287 277
Width: 616
VWidth: 0
Flags: HMW
LayerCount: 2
Fore
SplineSet
3 -34.5 m 1
 183.5 -35.5 l 1
 189.5 -78.5 207 -94 247.5 -94.5 c 0
 308.5 -95.5 349 -48.5 360 10.5 c 1
 438 460 l 1
 621 460 l 1
 544.5 9.5 l 2
 518 -159 402.5 -244 244 -244.5 c 0
 77.5 -245 7.5 -166 3 -34.5 c 1
41.5 240.5 m 0
 59 378.5 166 470 283 470 c 0
 405.5 470 464.5 366.5 448.5 239.5 c 0
 431.5 108 338 10 216.5 10 c 0
 99.5 10 25.5 107 41.5 240.5 c 0
243 239 m 0
 236.5 195 261 162.5 304.5 160.5 c 0
 347 158.5 395 193 402 241 c 0
 408.5 287.5 381.5 317.5 340.5 319.5 c 0
 295.5 321.5 250 284.5 243 239 c 0
266.5 681 m 1
 378 681 l 1
 379 650 394 633.5 417.5 631.5 c 0
 442 629.5 469.5 650.5 477.5 680.5 c 1
 594.5 679.5 l 1
 577 593 511.5 532 411.5 531.5 c 0
 311.5 531 261 593 266.5 681 c 1
EndSplineSet
EndChar

StartChar: Gdotaccent
Encoding: 288 288 278
Width: 813
VWidth: 0
Flags: HMW
LayerCount: 2
Fore
SplineSet
428.5 240 m 1
 457 400 l 1
 818 399.5 l 1
 800 168.5 640.5 -29.5 391.5 -30 c 0
 166.5 -30 29 136.5 60 350 c 0
 93.5 571 287.5 721 516.5 720 c 0
 659 719.5 753 645.5 815.5 542.5 c 1
 604 452 l 1
 585 497 557 533.5 497 534.5 c 0
 394 537 304.5 458.5 286 350 c 0
 269.5 246 311.5 157 420.5 155.5 c 0
 497.312 154.5 547.725 191.6185 584.822 241 c 1
 428.5 240 l 1
444 879.5 m 0
 451.5 935.5 505 975.5 562 975.5 c 0
 619.5 975.5 663 933.5 655.5 876.5 c 0
 648 820.5 594.5 780.5 537.5 780.5 c 0
 480 780.5 436.5 822.5 444 879.5 c 0
EndSplineSet
EndChar

StartChar: gdotaccent
Encoding: 289 289 279
Width: 616
VWidth: 0
Flags: HMW
LayerCount: 2
Fore
SplineSet
3 -34.5 m 1
 183.5 -35.5 l 1
 189.5 -78.5 207 -94 247.5 -94.5 c 0
 308.5 -95.5 349 -48.5 360 10.5 c 1
 438 460 l 1
 621 460 l 1
 544.5 9.5 l 2
 518 -159 402.5 -244 244 -244.5 c 0
 77.5 -245 7.5 -166 3 -34.5 c 1
41.5 240.5 m 0
 59 378.5 166 470 283 470 c 0
 405.5 470 464.5 366.5 448.5 239.5 c 0
 431.5 108 338 10 216.5 10 c 0
 99.5 10 25.5 107 41.5 240.5 c 0
243 239 m 0
 236.5 195 261 162.5 304.5 160.5 c 0
 347 158.5 395 193 402 241 c 0
 408.5 287.5 381.5 317.5 340.5 319.5 c 0
 295.5 321.5 250 284.5 243 239 c 0
287.5 630.5 m 0
 295 686.5 349 726.5 406 726.5 c 0
 463.5 726.5 507 684.5 499.5 627.5 c 0
 492 571.5 438 531.5 381 531.5 c 0
 323.5 531.5 280 573.5 287.5 630.5 c 0
EndSplineSet
EndChar

StartChar: uni0122
Encoding: 290 290 280
Width: 813
VWidth: 0
Flags: HMW
LayerCount: 2
Fore
SplineSet
428.5 240 m 1
 457 400 l 1
 818 399.5 l 1
 800 168.5 640.5 -29.5 391.5 -30 c 0
 166.5 -30 29 136.5 60 350 c 0
 93.5 571 287.5 721 516.5 720 c 0
 659 719.5 753 645.5 815.5 542.5 c 1
 604 452 l 1
 585 497 557 533.5 497 534.5 c 0
 394 537 304.5 458.5 286 350 c 0
 269.5 246 311.5 157 420.5 155.5 c 0
 497.312 154.5 547.725 191.6185 584.822 241 c 1
 428.5 240 l 1
271.25 -91 m 1
 461.25 -126 l 1
 288.25 -373 l 1
 141.75 -347 l 1
 271.25 -91 l 1
EndSplineSet
EndChar

StartChar: Hcircumflex
Encoding: 292 292 281
Width: 805
VWidth: 0
Flags: HMW
LayerCount: 2
Fore
SplineSet
129.5 265 m 1
 163.5 460 l 1
 710.5 460 l 1
 676.5 265 l 1
 129.5 265 l 1
615 700 m 1
 832 700 l 1
 712 0 l 1
 495 0 l 1
 615 700 l 1
159 700 m 1
 376 700 l 1
 255.5 0 l 1
 39 0 l 1
 159 700 l 1
526.5 858.5 m 1
 435.5 780 l 1
 310.5 873.5 l 1
 543 1010 l 1
 737.5 866.5 l 1
 590.5 779 l 1
 526.5 858.5 l 1
EndSplineSet
EndChar

StartChar: hcircumflex
Encoding: 293 293 282
Width: 577
VWidth: 0
Flags: HMW
LayerCount: 2
Fore
SplineSet
346 780 m 1
 212 0 l 1
 19.5 0 l 1
 153 780 l 1
 346 780 l 1
361 280 m 1
 364 311.5 365.5 341 329.5 345 c 0
 294 349 268.5 315 260.5 280.5 c 1
 232.5 281 l 1
 250.5 384.5 304.5 480 425 481 c 0
 542 482 568.5 410 555.5 310 c 1
 503 0 l 1
 310.5 0 l 1
 361 280 l 1
423 918.5 m 1
 332.5 840 l 1
 207.5 933.5 l 1
 439.5 1070 l 1
 634 926.5 l 1
 487 839 l 1
 423 918.5 l 1
EndSplineSet
EndChar

StartChar: Itilde
Encoding: 296 296 283
Width: 354
VWidth: 0
Flags: HMW
LayerCount: 2
Fore
SplineSet
159 700 m 1
 380.5 700 l 1
 260.5 0 l 1
 39 0 l 1
 159 700 l 1
88 865 m 1
 109.5 914 155.5 966 225 964.5 c 0
 281.5 963.5 303.5 909.5 355.5 911 c 0
 387.5 912 413.5 939 436 966 c 1
 509.5 871 l 1
 481.5 831 417 778 350.5 780.5 c 0
 300.5 782.5 264 840 215 836 c 0
 182.5 833.5 168 804 159.5 786 c 1
 88 865 l 1
EndSplineSet
EndChar

StartChar: itilde
Encoding: 297 297 284
Width: 277
VWidth: 0
Flags: HMW
LayerCount: 2
Fore
SplineSet
97.5 460 m 1
 282.5 460 l 1
 203.5 0 l 1
 18.5 0 l 1
 97.5 460 l 1
6.5 616 m 1
 28 665 74.5 717 144 715.5 c 0
 200.5 714.5 222 660.5 274 662 c 0
 306 663 332.5 690 355 717 c 1
 428 622 l 1
 400 582 335.5 529 269 531.5 c 0
 219 533.5 182.5 591 133.5 587 c 0
 101 584.5 87 555 78.5 537 c 1
 6.5 616 l 1
EndSplineSet
EndChar

StartChar: Imacron
Encoding: 298 298 285
Width: 354
VWidth: 0
Flags: HMW
LayerCount: 2
Fore
SplineSet
159 700 m 1
 380.5 700 l 1
 260.5 0 l 1
 39 0 l 1
 159 700 l 1
94 780 m 1
 123 945 l 1
 500 945 l 1
 471 780 l 1
 94 780 l 1
EndSplineSet
EndChar

StartChar: imacron
Encoding: 299 299 286
Width: 277
VWidth: 0
Flags: HMW
LayerCount: 2
Fore
SplineSet
97.5 460 m 1
 282.5 460 l 1
 203.5 0 l 1
 18.5 0 l 1
 97.5 460 l 1
13 531 m 1
 42 696 l 1
 419 696 l 1
 390 531 l 1
 13 531 l 1
EndSplineSet
EndChar

StartChar: Ibreve
Encoding: 300 300 287
Width: 354
VWidth: 0
Flags: HMW
LayerCount: 2
Fore
SplineSet
159 700 m 1
 380.5 700 l 1
 260.5 0 l 1
 39 0 l 1
 159 700 l 1
143 930 m 1
 254.5 930 l 1
 255.5 899 270.5 882.5 294 880.5 c 0
 318.5 878.5 346.5 899.5 354.5 929.5 c 1
 471 928.5 l 1
 453.5 842 388 781 288 780.5 c 0
 188 780 137.5 842 143 930 c 1
EndSplineSet
EndChar

StartChar: ibreve
Encoding: 301 301 288
Width: 277
VWidth: 0
Flags: HMW
LayerCount: 2
Fore
SplineSet
97.5 460 m 1
 282.5 460 l 1
 203.5 0 l 1
 18.5 0 l 1
 97.5 460 l 1
61.5 681 m 1
 173 681 l 1
 174 650 189 633.5 212.5 631.5 c 0
 237 629.5 265 650.5 273 680.5 c 1
 390 679.5 l 1
 372.5 593 307 532 207 531.5 c 0
 107 531 56 593 61.5 681 c 1
EndSplineSet
EndChar

StartChar: Iogonek
Encoding: 302 302 289
Width: 354
VWidth: 0
Flags: HMW
LayerCount: 2
Fore
SplineSet
159 700 m 1
 380.5 700 l 1
 260.5 0 l 1
 39 0 l 1
 159 700 l 1
205 -96.5 m 1
 227 -178.5 l 1
 203 -199.5 170.5 -217.5 119 -217 c 0
 63.5 -216 12 -180 19.5 -116 c 0
 29 -43 111.5 -5 178.5 28 c 1
 220.5 0.5 l 1
 176.5 -25.5 140 -53 133 -87.5 c 0
 131 -102 135 -115 152 -116.5 c 0
 168.5 -118 190.5 -106.5 205 -96.5 c 1
EndSplineSet
EndChar

StartChar: iogonek
Encoding: 303 303 290
Width: 277
VWidth: 0
Flags: HMW
LayerCount: 2
Fore
SplineSet
112 623.5 m 0
 119.5 679.5 173 719.5 230 719.5 c 0
 287.5 719.5 331.5 677.5 324 620.5 c 0
 316.5 564.5 262.5 524.5 205.5 524.5 c 0
 148 524.5 104.5 566.5 112 623.5 c 0
97.5 460 m 1
 282.5 460 l 1
 203.5 0 l 1
 18.5 0 l 1
 97.5 460 l 1
149.5 -99.5 m 1
 170 -181.5 l 1
 146 -202.5 113.5 -220.5 62 -220 c 0
 6.5 -219 -43.5 -183 -36 -119 c 0
 -26 -46 56 -8 123 25 c 1
 164 0 l 1
 121.5 -28.5 84 -55.5 77 -90.5 c 0
 75.5 -105 79 -118 96 -119.5 c 0
 112.5 -121 135 -109.5 149.5 -99.5 c 1
EndSplineSet
EndChar

StartChar: Idotaccent
Encoding: 304 304 291
Width: 354
VWidth: 0
Flags: HMW
LayerCount: 2
Fore
SplineSet
159 700 m 1
 380.5 700 l 1
 260.5 0 l 1
 39 0 l 1
 159 700 l 1
193.5 879.5 m 0
 201 935.5 255 975.5 312 975.5 c 0
 369.5 975.5 413 933.5 405.5 876.5 c 0
 398 820.5 344 780.5 287 780.5 c 0
 229.5 780.5 186 822.5 193.5 879.5 c 0
EndSplineSet
EndChar

StartChar: uni0136
Encoding: 310 310 292
Width: 757
VWidth: 0
Flags: HMW
LayerCount: 2
Fore
SplineSet
159 700 m 1
 385.5 700 l 1
 265.5 0 l 1
 39 0 l 1
 159 700 l 1
587.5 699.5 m 1
 846 699.5 l 1
 519 367.5 l 1
 733.5 0 l 1
 480 0 l 1
 265.5 370 l 1
 587.5 699.5 l 1
283.5 -61 m 1
 474.5 -96 l 1
 300.5 -343 l 1
 154 -317 l 1
 283.5 -61 l 1
EndSplineSet
EndChar

StartChar: uni0137
Encoding: 311 311 293
Width: 640
VWidth: 0
Flags: HMW
LayerCount: 2
Fore
SplineSet
153 780 m 1
 336 780 l 1
 202.5 0 l 1
 19.5 0 l 1
 153 780 l 1
435.5 459.5 m 1
 668.5 459.5 l 1
 440 266 l 1
 601 0 l 1
 388 0 l 1
 219 275 l 1
 435.5 459.5 l 1
208 -61 m 1
 398.5 -96 l 1
 225 -343 l 1
 78.5 -317 l 1
 208 -61 l 1
EndSplineSet
EndChar

StartChar: Lacute
Encoding: 313 313 294
Width: 558
VWidth: 0
Flags: HMW
LayerCount: 2
Fore
SplineSet
159 700 m 1
 376 700 l 1
 287.5 185 l 1
 564.5 185 l 1
 532 0 l 1
 39 0 l 1
 159 700 l 1
620.75 926.5 m 1
 424.25 780.5 l 1
 319.25 833.5 l 1
 488.75 989 l 1
 620.75 926.5 l 1
EndSplineSet
EndChar

StartChar: lacute
Encoding: 314 314 295
Width: 286
VWidth: 0
Flags: HMW
LayerCount: 2
Fore
SplineSet
153 780 m 1
 346 780 l 1
 212 0 l 1
 19.5 0 l 1
 153 780 l 1
461.5 986.5 m 1
 265 840.5 l 1
 160 893.5 l 1
 329.5 1049 l 1
 461.5 986.5 l 1
EndSplineSet
EndChar

StartChar: uni013B
Encoding: 315 315 296
Width: 558
VWidth: 0
Flags: HMW
LayerCount: 2
Fore
SplineSet
159 700 m 1
 376 700 l 1
 287.5 185 l 1
 564.5 185 l 1
 532 0 l 1
 39 0 l 1
 159 700 l 1
220.5 -61 m 1
 410.5 -96 l 1
 237.5 -343 l 1
 91 -317 l 1
 220.5 -61 l 1
EndSplineSet
EndChar

StartChar: uni013C
Encoding: 316 316 297
Width: 286
VWidth: 0
Flags: HMW
LayerCount: 2
Fore
SplineSet
153 780 m 1
 346 780 l 1
 212 0 l 1
 19.5 0 l 1
 153 780 l 1
50.5 -61 m 1
 240.5 -96 l 1
 67.5 -343 l 1
 -79 -317 l 1
 50.5 -61 l 1
EndSplineSet
EndChar

StartChar: Lcaron
Encoding: 317 317 298
Width: 558
VWidth: 0
Flags: HMW
LayerCount: 2
Fore
SplineSet
159 700 m 1
 376 700 l 1
 287.5 185 l 1
 564.5 185 l 1
 532 0 l 1
 39 0 l 1
 159 700 l 1
542 719 m 1
 731.5 684 l 1
 559 437 l 1
 412.5 463 l 1
 542 719 l 1
EndSplineSet
EndChar

StartChar: lcaron
Encoding: 318 318 299
Width: 286
VWidth: 0
Flags: HMW
LayerCount: 2
Fore
SplineSet
153 780 m 1
 346 780 l 1
 212 0 l 1
 19.5 0 l 1
 153 780 l 1
474.5 779 m 1
 664.5 744 l 1
 491.5 497 l 1
 345 523 l 1
 474.5 779 l 1
EndSplineSet
EndChar

StartChar: Ldot
Encoding: 319 319 300
Width: 558
VWidth: 0
Flags: HMW
LayerCount: 2
Fore
SplineSet
159 700 m 1
 376 700 l 1
 287.5 185 l 1
 564.5 185 l 1
 532 0 l 1
 39 0 l 1
 159 700 l 1
400.25 441 m 0
 408.75 502.5 464.75 554.5 531.25 554.5 c 0
 598.25 554.5 640.75 500 632.25 439 c 0
 623.75 377.5 567.75 325.5 501.25 325.5 c 0
 434.25 325.5 391.75 380 400.25 441 c 0
EndSplineSet
EndChar

StartChar: ldot
Encoding: 320 320 301
Width: 525
VWidth: 0
Flags: HMW
LayerCount: 2
Fore
SplineSet
153 780 m 1
 346 780 l 1
 212 0 l 1
 19.5 0 l 1
 153 780 l 1
307.5 406 m 0
 316 467.5 372 519.5 438.5 519.5 c 0
 505.5 519.5 547.5 465 539 404 c 0
 530.5 342.5 475 290.5 408.5 290.5 c 0
 341.5 290.5 299 345 307.5 406 c 0
EndSplineSet
EndChar

StartChar: eth
Encoding: 240 240 302
Width: 704
VWidth: 0
Flags: HMW
LayerCount: 2
Fore
SplineSet
459.5 255.5 m 0
 467.5 304 440.5 345.5 389 346.5 c 0
 336 348 287 306 278 254.5 c 0
 270 205.5 297.5 166.5 348.5 165.5 c 0
 401 164.5 450.5 204 459.5 255.5 c 0
468 695 m 1
 607.5 480 l 2
 652 410 685.5 337.5 674 255 c 0
 650 78.5 497.5 -20 328 -20 c 0
 163 -20 38 81.5 63 255.5 c 0
 81.5 389 200.5 481.5 313.5 483.5 c 0
 364.5 484.5 394 469.5 433.5 435 c 1
 388 463 l 1
 203.5 695 l 1
 468 695 l 1
184 520.5 m 1
 197 605 l 1
 704.5 605 l 1
 691 520.5 l 1
 184 520.5 l 1
EndSplineSet
EndChar

StartChar: racute
Encoding: 341 341 303
Width: 439
VWidth: 0
Flags: HMW
LayerCount: 2
Fore
SplineSet
286.5 460 m 1
 207 0 l 1
 19.5 0 l 1
 98.5 460 l 1
 286.5 460 l 1
380.5 262.5 m 1
 368.5 277 353.5 289.5 330.5 290 c 0
 287 291 252 247 241 195 c 1
 218 281 l 1
 235 377 310.5 475 405 472 c 0
 438.5 471 466 451.5 482 428 c 1
 380.5 262.5 l 1
507 678.5 m 1
 310.5 532.5 l 1
 205.5 585.5 l 1
 375 741 l 1
 507 678.5 l 1
EndSplineSet
EndChar

StartChar: rcaron
Encoding: 345 345 304
Width: 439
VWidth: 0
Flags: HMW
LayerCount: 2
Fore
SplineSet
286.5 460 m 1
 207 0 l 1
 19.5 0 l 1
 98.5 460 l 1
 286.5 460 l 1
380.5 262.5 m 1
 368.5 277 353.5 289.5 330.5 290 c 0
 287 291 252 247 241 195 c 1
 217.5 281 l 1
 234.5 377 310.5 475 405 472 c 0
 438.5 471 466 451.5 482 428 c 1
 380.5 262.5 l 1
327 683.5 m 1
 417.5 762 l 1
 542.5 668.5 l 1
 310.5 532 l 1
 116 675.5 l 1
 263 763 l 1
 327 683.5 l 1
EndSplineSet
EndChar

StartChar: Rcaron
Encoding: 344 344 305
Width: 679
VWidth: 0
Flags: HMW
LayerCount: 2
Fore
SplineSet
292.5 300 m 1
 507.5 300 l 1
 650 0 l 1
 406 0 l 1
 292.5 300 l 1
159 700 m 1
 376 700 l 1
 255.5 0 l 1
 39 0 l 1
 159 700 l 1
266 515.5 m 1
 297 700 l 1
 440.5 700 l 1
 614.5 698 714 606.5 691.5 460 c 0
 668.5 313 550 222 370.5 220 c 1
 214 220 l 1
 243.5 385 l 1
 368 385 l 1
 416.5 386.5 456.5 408 464.5 450.5 c 0
 471.5 490.5 446 512.5 400 514.5 c 1
 266 515.5 l 1
465.5 931.5 m 1
 556 1010 l 1
 681 916.5 l 1
 448.5 780 l 1
 254 923.5 l 1
 401.5 1011 l 1
 465.5 931.5 l 1
EndSplineSet
EndChar

StartChar: uni0213
Encoding: 531 531 306
Width: 439
VWidth: 0
Flags: HMW
LayerCount: 2
Fore
SplineSet
286.5 460 m 1
 207 0 l 1
 19.5 0 l 1
 98.5 460 l 1
 286.5 460 l 1
380.5 262.5 m 1
 368.5 277 353.5 289.5 330.5 290 c 0
 287 291 252 247 241 195 c 1
 217.5 281 l 1
 234.5 377 310.5 475 405 472 c 0
 438.5 471 466 451.5 482 428 c 1
 380.5 262.5 l 1
141 531 m 1
 249.5 532 l 1
 257 562 284 583.5 308.5 582 c 0
 334 580.5 350.5 564.5 352.5 531.5 c 1
 465.5 532 l 1
 476.5 616.5 436.5 680.5 336.5 681.5 c 0
 233 682.5 165 616.5 141 531 c 1
EndSplineSet
EndChar

StartChar: uni0212
Encoding: 530 530 307
Width: 679
VWidth: 0
Flags: HMW
LayerCount: 2
Fore
SplineSet
292.5 300 m 1
 507.5 300 l 1
 650 0 l 1
 406 0 l 1
 292.5 300 l 1
159 700 m 1
 376 700 l 1
 255.5 0 l 1
 39 0 l 1
 159 700 l 1
266 515.5 m 1
 297 700 l 1
 440.5 700 l 1
 614.5 698 714 606.5 691.5 460 c 0
 668.5 313 550 222 370.5 220 c 1
 214 220 l 1
 243.5 385 l 1
 368 385 l 1
 416.5 386.5 456.5 408 464.5 450.5 c 0
 471.5 490.5 446 512.5 400 514.5 c 1
 266 515.5 l 1
289 779 m 1
 397.5 780 l 1
 405 810 432 831 456.5 829.5 c 0
 482 828 498.5 812.5 500.5 779.5 c 1
 613.5 780 l 1
 624.5 864.5 584.5 928.5 484.5 929.5 c 0
 381 930.5 313 864.5 289 779 c 1
EndSplineSet
EndChar

StartChar: OE
Encoding: 338 338 308
Width: 955
VWidth: 0
Flags: HMW
LayerCount: 2
Fore
SplineSet
563 275 m 1
 593 445 l 1
 973 445 l 1
 943 275 l 1
 563 275 l 1
537 670 m 1
 744.5 670 l 1
 634.5 30 l 1
 427 30 l 1
 537 670 l 1
944 174.5 m 1
 916.5 0 l 1
 357.5 0 l 1
 159 3.5 32.5 155.5 60 350 c 0
 90 551.5 260.5 697 464.5 700 c 1
 1036 700 l 1
 1005 525 l 1
 620 525 l 1
 600.5 510 l 1
 493 510 l 1
 375.5 508 306 457.5 286 350 c 0
 267.5 246 312.5 193 426.5 190.5 c 1
 531.5 190 l 1
 552.5 175 l 1
 944 174.5 l 1
EndSplineSet
EndChar

StartChar: oe
Encoding: 339 339 309
Width: 873
VWidth: 0
Flags: HMW
LayerCount: 2
Fore
SplineSet
657.5 250 m 2
 662 297.5 661.5 345.5 618 349 c 0
 573 353 536 311 526.5 259.5 c 1
 518.5 230 l 1
 511 174 517.5 118.5 571.5 116 c 0
 615 114 645 139.5 671.5 165.5 c 1
 843 135 l 1
 794 57 697.5 -10.5 596.5 -10 c 0
 467.5 -9.5 412.5 107.5 428 230 c 0
 430.5 247 434 263 439 279 c 0
 472.5 386 567.5 470.5 685.5 470 c 0
 805 469.5 869 358.5 854.5 234 c 0
 852.5 223 848.5 201.5 845.5 190.5 c 1
 654.5 231 l 1
 657.5 250 l 2
473 190.5 m 1
 487.5 283 l 1
 842 283 l 1
 845 190 l 1
 473 190.5 l 1
44.5 230.5 m 0
 63 366.5 172.5 470.5 302.5 470 c 0
 432.5 469.5 482 358 466 230 c 0
 448 97 361.5 -9 232.5 -9.5 c 0
 103 -10 27.5 99 44.5 230.5 c 0
232 229.5 m 0
 225.5 184.5 242.5 147 287.5 145.5 c 0
 337 144 372.5 181.5 380.5 230.5 c 0
 387.5 276 373.5 313.5 325 314.5 c 0
 278.5 315.5 240 278 232 229.5 c 0
EndSplineSet
EndChar

StartChar: a.alt
Encoding: 65536 -1 310
Width: 562
VWidth: 0
Flags: HMW
LayerCount: 2
Fore
SplineSet
206 138 m 0
 204.5 117 222.5 107.5 242.5 106.5 c 0
 288.5 104 327 138 339.5 189.5 c 1
 346.5 129 l 1
 328 44 257.5 -9 164 -9.5 c 0
 70 -10 0.5 41.5 13 130.5 c 0
 27 222.5 121.5 274 228.5 274.5 c 0
 284.5 275 346 259.5 380 232 c 1
 367.5 147.5 l 1
 341 168.5 315.5 180.5 274.5 180 c 0
 242 179.5 208 164.5 206 138 c 0
144 297.5 m 1
 103.5 425 l 1
 172 450.5 252 475 332.5 475 c 0
 446.5 475 556 427 542.5 320 c 1
 488.5 0 l 1
 305.5 0 l 1
 355 272.5 l 1
 359 307 341.5 329.5 299 332 c 0
 240 335.5 179 311.5 144 297.5 c 1
EndSplineSet
EndChar

StartChar: Jcircumflex
Encoding: 308 308 312
Width: 373
VWidth: 0
Flags: HMW
LayerCount: 2
Fore
SplineSet
-112 -39.5 m 1
 -90.5 -54 -63.5 -71 -38 -70.5 c 0
 -2 -70 31 -40 39 5.5 c 1
 159 700 l 1
 400 700 l 1
 272.5 -50.5 l 2
 247.5 -193 113.5 -250 -28 -250 c 0
 -113 -250 -190 -222 -250.5 -188 c 1
 -112 -39.5 l 1
310 858.5 m 1
 219.5 780 l 1
 94.5 873.5 l 1
 326.5 1010 l 1
 521 866.5 l 1
 374 779 l 1
 310 858.5 l 1
EndSplineSet
EndChar

StartChar: jcircumflex
Encoding: 309 309 313
Width: 276
VWidth: 0
Flags: HMW
LayerCount: 2
Fore
SplineSet
-83 -55.5 m 1
 -72.5 -68.5 -61.5 -80 -44 -80.5 c 0
 -14 -81 8.5 -54.5 14.5 -24.5 c 1
 98.5 460 l 1
 281.5 460 l 1
 190 -80.5 l 2
 171 -180.5 94 -250 -28 -249.5 c 0
 -97 -249.5 -139 -219.5 -171.5 -191.5 c 1
 -83 -55.5 l 1
219 609.5 m 1
 128.5 531 l 1
 3.5 624.5 l 1
 235.5 761 l 1
 430 617.5 l 1
 283 530 l 1
 219 609.5 l 1
EndSplineSet
EndChar

StartChar: Nacute
Encoding: 323 323 314
Width: 781
VWidth: 0
Flags: HMW
LayerCount: 2
Fore
SplineSet
600.5 700 m 1
 807.5 700 l 1
 682.5 -33 l 1
 301 318.2955 l 1
 246 0 l 1
 39 0 l 1
 164 733 l 1
 545 381.7045 l 1
 600.5 700 l 1
654.5 911.5 m 1
 458 765.5 l 1
 353 818.5 l 1
 522.5 974 l 1
 654.5 911.5 l 1
EndSplineSet
EndChar

StartChar: nacute
Encoding: 324 324 315
Width: 587
VWidth: 0
Flags: HMW
LayerCount: 2
Fore
SplineSet
291 460 m 1
 212 0 l 1
 19.5 0 l 1
 98.5 460 l 1
 291 460 l 1
361 280 m 1
 364 311.5 365 341 329 345 c 0
 293.5 349 268 315 260 280.5 c 1
 231.5 271 l 1
 249 374.5 302.5 470 423 471 c 0
 539.5 472 576.5 401.5 563.5 300 c 1
 513 0 l 1
 310.5 0 l 1
 361 280 l 1
558 677.5 m 1
 361.5 531.5 l 1
 257 584.5 l 1
 426.5 740 l 1
 558 677.5 l 1
EndSplineSet
EndChar

StartChar: uni0145
Encoding: 325 325 316
Width: 781
VWidth: 0
Flags: HMW
LayerCount: 2
Fore
SplineSet
290.5 -66 m 1
 479.5 -101 l 1
 307.5 -348 l 1
 161 -322 l 1
 290.5 -66 l 1
600.5 700 m 1
 807.5 700 l 1
 682.5 -33 l 1
 301 318.2955 l 1
 246 0 l 1
 39 0 l 1
 164 733 l 1
 545 381.7045 l 1
 600.5 700 l 1
EndSplineSet
EndChar

StartChar: uni0146
Encoding: 326 326 317
Width: 587
VWidth: 0
Flags: HMW
LayerCount: 2
Fore
SplineSet
291 460 m 1
 212 0 l 1
 19.5 0 l 1
 98.5 460 l 1
 291 460 l 1
361 280 m 1
 364 311.5 365 341 329 345 c 0
 293.5 349 268 315 260 280.5 c 1
 231.5 271 l 1
 249 374.5 302.5 470 423 471 c 0
 539.5 472 576.5 401.5 563.5 300 c 1
 513 0 l 1
 310.5 0 l 1
 361 280 l 1
201 -61 m 1
 391 -96 l 1
 218 -343 l 1
 71.5 -317 l 1
 201 -61 l 1
EndSplineSet
EndChar

StartChar: Ncaron
Encoding: 327 327 318
Width: 781
VWidth: 0
Flags: HMW
LayerCount: 2
Fore
SplineSet
474.5 916.5 m 1
 565 995 l 1
 690 901.5 l 1
 458 765 l 1
 263.5 908.5 l 1
 410.5 996 l 1
 474.5 916.5 l 1
600.5 700 m 1
 807.5 700 l 1
 682.5 -33 l 1
 301 318.2955 l 1
 246 0 l 1
 39 0 l 1
 164 733 l 1
 545 381.7045 l 1
 600.5 700 l 1
EndSplineSet
EndChar

StartChar: ncaron
Encoding: 328 328 319
Width: 587
VWidth: 0
Flags: HMW
LayerCount: 2
Fore
SplineSet
291 460 m 1
 212 0 l 1
 19.5 0 l 1
 98.5 460 l 1
 291 460 l 1
361 280 m 1
 364 311.5 365 341 329 345 c 0
 293.5 349 268 315 260 280.5 c 1
 231.5 271 l 1
 249 374.5 302.5 470 423 471 c 0
 539.5 472 576.5 401.5 563.5 300 c 1
 513 0 l 1
 310.5 0 l 1
 361 280 l 1
378 682.5 m 1
 469 761 l 1
 594 667.5 l 1
 361.5 531 l 1
 167 674.5 l 1
 314 762 l 1
 378 682.5 l 1
EndSplineSet
EndChar

StartChar: Omacron
Encoding: 332 332 320
Width: 815
VWidth: 0
Flags: HMW
LayerCount: 2
Fore
SplineSet
289 350 m 0
 275 262 307.5 180 405 178.5 c 0
 503.5 177 574.5 255.5 591.5 350 c 0
 606 438.5 576 520.5 475.5 521.5 c 0
 377 522.5 305.5 444.5 289 350 c 0
60 350 m 0
 92 564.5 278.5 720 497 720 c 0
 714 720 850.5 558.5 820.5 350 c 0
 788.5 134.5 607 -30.5 381.5 -30 c 0
 160 -29.5 30 141.5 60 350 c 0
325 780 m 1
 354 945 l 1
 730 945 l 1
 701 780 l 1
 325 780 l 1
EndSplineSet
EndChar

StartChar: omacron
Encoding: 333 333 321
Width: 597
VWidth: 0
Flags: HMW
LayerCount: 2
Fore
SplineSet
39.5 230.5 m 0
 60.5 376.5 192.5 471 346 471 c 0
 495 471 603 373.5 582.5 229.5 c 0
 561.5 83.5 429 -10 276 -10 c 0
 127 -10 19 86.5 39.5 230.5 c 0
236.5 229.5 m 0
 230 185 250 147 292 145.5 c 0
 335.5 144 377.5 182.5 385.5 230.5 c 0
 392 275 372 314 330 315.5 c 0
 286.5 317 244.5 277.5 236.5 229.5 c 0
174 531 m 1
 203 696 l 1
 579 696 l 1
 550 531 l 1
 174 531 l 1
EndSplineSet
EndChar

StartChar: Obreve
Encoding: 334 334 322
Width: 815
VWidth: 0
Flags: HMW
LayerCount: 2
Fore
SplineSet
289 350 m 0
 275 262 307.5 180 405 178.5 c 0
 503.5 177 574.5 255.5 591.5 350 c 0
 606 438.5 576 520.5 475.5 521.5 c 0
 377 522.5 305.5 444.5 289 350 c 0
60 350 m 0
 92 564.5 278.5 720 497 720 c 0
 714 720 850.5 558.5 820.5 350 c 0
 788.5 134.5 607 -30.5 381.5 -30 c 0
 160 -29.5 30 141.5 60 350 c 0
374 930 m 1
 485.5 930 l 1
 486.5 899 501.5 882.5 525 880.5 c 0
 549.5 878.5 577 899.5 585 929.5 c 1
 702 928.5 l 1
 684.5 842 619 781 519 780.5 c 0
 419 780 368.5 842 374 930 c 1
EndSplineSet
EndChar

StartChar: obreve
Encoding: 335 335 323
Width: 597
VWidth: 0
Flags: HMW
LayerCount: 2
Fore
SplineSet
39.5 230.5 m 0
 60.5 376.5 192.5 471 346 471 c 0
 495 471 603 373.5 582.5 229.5 c 0
 561.5 83.5 429 -10 276 -10 c 0
 127 -10 19 86.5 39.5 230.5 c 0
236.5 229.5 m 0
 230 185 250 147 292 145.5 c 0
 335.5 144 377.5 182.5 385.5 230.5 c 0
 392 275 372 314 330 315.5 c 0
 286.5 317 244.5 277.5 236.5 229.5 c 0
222.5 681 m 1
 334.5 681 l 1
 335.5 650 350 633.5 373.5 631.5 c 0
 398 629.5 426 650.5 434 680.5 c 1
 551 679.5 l 1
 533.5 593 468 532 368 531.5 c 0
 268 531 217 593 222.5 681 c 1
EndSplineSet
EndChar

StartChar: Racute
Encoding: 340 340 324
Width: 679
VWidth: 0
Flags: HMW
LayerCount: 2
Fore
SplineSet
292.5 300 m 1
 507.5 300 l 1
 650 0 l 1
 406 0 l 1
 292.5 300 l 1
159 700 m 1
 376 700 l 1
 255.5 0 l 1
 39 0 l 1
 159 700 l 1
266 515.5 m 1
 297 700 l 1
 440.5 700 l 1
 614.5 698 714 606.5 691.5 460 c 0
 668.5 313 550 222 370.5 220 c 1
 214 220 l 1
 243.5 385 l 1
 368 385 l 1
 416.5 386.5 456.5 408 464.5 450.5 c 0
 471.5 490.5 446 512.5 400 514.5 c 1
 266 515.5 l 1
626 926.5 m 1
 429.5 780.5 l 1
 324.5 833.5 l 1
 494 989 l 1
 626 926.5 l 1
EndSplineSet
EndChar

StartChar: uni0156
Encoding: 342 342 325
Width: 679
VWidth: 0
Flags: HMW
LayerCount: 2
Fore
SplineSet
292.5 300 m 1
 507.5 300 l 1
 650 0 l 1
 406 0 l 1
 292.5 300 l 1
159 700 m 1
 376 700 l 1
 255.5 0 l 1
 39 0 l 1
 159 700 l 1
266 515.5 m 1
 297 700 l 1
 440.5 700 l 1
 614.5 698 714 606.5 691.5 460 c 0
 668.5 313 550 222 370.5 220 c 1
 214 220 l 1
 243.5 385 l 1
 368 385 l 1
 416.5 386.5 456.5 408 464.5 450.5 c 0
 471.5 490.5 446 512.5 400 514.5 c 1
 266 515.5 l 1
281.5 -61 m 1
 470.5 -96 l 1
 298.5 -343 l 1
 152 -317 l 1
 281.5 -61 l 1
EndSplineSet
EndChar

StartChar: uni0157
Encoding: 343 343 326
Width: 439
VWidth: 0
Flags: HMW
LayerCount: 2
Fore
SplineSet
286.5 460 m 1
 207 0 l 1
 19.5 0 l 1
 98.5 460 l 1
 286.5 460 l 1
380.5 262.5 m 1
 368.5 277 353.5 289.5 330.5 290 c 0
 287 291 252 247 241 195 c 1
 217.5 281 l 1
 234.5 377 310.5 475 405 472 c 0
 438.5 471 466 451.5 482 428 c 1
 380.5 262.5 l 1
48.5 -61 m 1
 237.5 -96 l 1
 65.5 -343 l 1
 -80.5 -317 l 1
 48.5 -61 l 1
EndSplineSet
EndChar

StartChar: Scedilla
Encoding: 350 350 327
Width: 652
VWidth: 0
Flags: HMW
LayerCount: 2
Fore
SplineSet
186.5 266 m 1
 223 201 258.5 158 325 158.5 c 0
 359.5 158.5 392 170 398.5 200 c 0
 408.5 243.5 343.5 256.5 289 280 c 0
 209 316 115.5 385.5 130.5 510.5 c 0
 150.5 641 277.5 720 426.5 720 c 0
 568 720 651.5 653.5 679 562.5 c 1
 509 474.5 l 1
 485.5 516 458.5 538.5 417 538.5 c 0
 387 538.5 354.5 525.5 348.5 503 c 0
 337.5 462 431 443 485 423 c 0
 587.5 383.5 641 306.5 626.5 199.5 c 0
 604 45 465 -30.5 300 -30 c 0
 171.5 -29.5 62 42 27.5 159.5 c 1
 186.5 266 l 1
256.5 61.5 m 1
 401 55.5 l 1
 276.0705 -72.2561 l 1
 290.95 -68.63 307.6475 -66 324.5 -66.5 c 0
 376 -68.5 419.5 -114 411.5 -179 c 0
 401 -254.5 323 -293.5 254 -295.5 c 0
 191 -297 138 -283 83 -254 c 1
 145 -171 l 1
 171.5 -187.5 208 -197 230.5 -196.5 c 0
 256.5 -196 293.5 -185.5 295 -162 c 0
 296.5 -137.5 259.5 -134.5 239 -134 c 0
 217 -133 177.5 -137.5 139 -147.5 c 1
 256.5 61.5 l 1
EndSplineSet
EndChar

StartChar: scedilla
Encoding: 351 351 328
Width: 473
VWidth: 0
Flags: HMW
LayerCount: 2
Fore
SplineSet
75 182 m 1
 144.5 130 194.5 106 230 110 c 0
 244 111 260.5 121 262.5 134.5 c 0
 267 165 219.5 173 184 185.5 c 0
 118.5 210 68.5 253.5 79 334.5 c 0
 92.5 423 177.5 469 278.5 469.5 c 0
 355.5 470 420 444.5 485 413.5 c 1
 419 283 l 1
 381.5 317.5 334 347 292.5 346 c 0
 272.5 346 254 337.5 251 326 c 0
 244 294 305.5 286 346 270.5 c 0
 409 246 459.5 207 450.5 129.5 c 0
 437.5 25 359.5 -23.5 251 -24.5 c 0
 154.5 -25.5 74 3 -5.5 47.5 c 1
 75 182 l 1
198.5 65.9668 m 1
 342.5 60.4668 l 1
 218.0705 -67.28955 l 1
 232.9495 -63.66355 249.1475 -61.5332 266 -62.0332 c 0
 317.5 -64.0332 361.5 -109.0332 353.5 -174.033 c 0
 343 -249.533 264.5 -288.533 195.5 -290.533 c 0
 132.5 -292.033 79.5 -278.033 24.5 -249.033 c 1
 86.5 -166.033 l 1
 113 -182.533 149.5 -192.033 172 -191.533 c 0
 198 -191.033 235.5 -180.533 237 -157.033 c 0
 238.5 -132.533 201 -129.533 180.5 -129.033 c 0
 158.5 -128.033 119 -132.533 80.5 -142.533 c 1
 198.5 65.9668 l 1
EndSplineSet
EndChar

StartChar: Zcaron
Encoding: 381 381 329
Width: 645
VWidth: 0
Flags: HMW
LayerCount: 2
Fore
SplineSet
125 505 m 1
 159 700 l 1
 732.5 699.5 l 1
 345.5 185.5 l 1
 598.5 185 l 1
 566 0 l 1
 -27 0 l 1
 352 504.5 l 1
 125 505 l 1
479 931.5 m 1
 569.5 1010 l 1
 694.5 916.5 l 1
 462.5 780 l 1
 268 923.5 l 1
 415 1011 l 1
 479 931.5 l 1
EndSplineSet
EndChar

StartChar: zcaron
Encoding: 382 382 330
Width: 533
VWidth: 0
Flags: HMW
LayerCount: 2
Fore
SplineSet
381 682.5 m 1
 471.5 760 l 1
 596.5 666.5 l 1
 364.5 530 l 1
 170 673.5 l 1
 317 761 l 1
 381 682.5 l 1
241.924 284.5 m 1
 82.5 285.5 l 1
 113 460 l 1
 585 459.5 l 1
 343.8695 175.5 l 1
 495 175 l 1
 464.5 0 l 1
 -17.5 0 l 1
 241.924 284.5 l 1
EndSplineSet
EndChar

StartChar: Ydieresis
Encoding: 376 376 331
Width: 698
VWidth: 0
Flags: HMW
LayerCount: 2
Fore
SplineSet
209 896.5 m 0
 216.5 952.5 270.5 992.5 327.5 992.5 c 0
 385 992.5 428.5 950.5 421 893.5 c 0
 413.5 837.5 359.5 797.5 302.5 797.5 c 0
 245 797.5 201.5 839.5 209 896.5 c 0
529 896.5 m 0
 536.5 952.5 590.5 992.5 647.5 992.5 c 0
 705 992.5 748.5 950.5 741 893.5 c 0
 733.5 837.5 679.5 797.5 622.5 797.5 c 0
 565 797.5 521.5 839.5 529 896.5 c 0
545 699.5 m 1
 800.5 699.5 l 1
 479 269.8535 l 1
 433.5 0 l 1
 211.5 0 l 1
 261 279.0095 l 1
 89 700 l 1
 334 700 l 1
 401 477.5 l 1
 545 699.5 l 1
EndSplineSet
EndChar

StartChar: Scaron
Encoding: 352 352 332
Width: 652
VWidth: 0
Flags: HMW
LayerCount: 2
Fore
SplineSet
186.5 266 m 1
 223 201 258.5 158 325 158.5 c 0
 359.5 158.5 392 170 398.5 200 c 0
 408.5 243.5 343.5 256.5 289 280 c 0
 209 316 115.5 385.5 130.5 510.5 c 0
 150.5 641 277.5 720 426.5 720 c 0
 568 720 651.5 653.5 679 562.5 c 1
 509 474.5 l 1
 485.5 516 458.5 538.5 417 538.5 c 0
 387 538.5 354.5 525.5 348.5 503 c 0
 337.5 462 431 443 485 423 c 0
 587.5 383.5 641 306.5 626.5 199.5 c 0
 604 45 465 -30.5 300 -30 c 0
 171.5 -29.5 62 42 27.5 159.5 c 1
 186.5 266 l 1
464.5 931.5 m 1
 555 1010 l 1
 680 916.5 l 1
 447.5 780 l 1
 253.5 923.5 l 1
 400.5 1011 l 1
 464.5 931.5 l 1
EndSplineSet
EndChar

StartChar: scaron
Encoding: 353 353 333
Width: 473
VWidth: 0
Flags: HMW
LayerCount: 2
Fore
SplineSet
75 182 m 1
 146.5 136 196 116 231 117 c 0
 242.5 117 260.5 120 262 132.5 c 0
 265.5 158 180 168 145 185.5 c 0
 88 214.5 52 260 60.5 330 c 0
 75 427 175 469 278.5 469.5 c 0
 355.5 469.5 420 444.5 485 413.5 c 1
 419.5 283 l 1
 379 317.5 324.5 339 281.5 339 c 0
 262 339 242.5 335 240.5 322.5 c 0
 236.5 297.5 307 285.5 346 270.5 c 0
 409 246 459.5 207 450.5 129.5 c 0
 437.5 25.5 359.5 -23.5 251 -24.5 c 0
 154.5 -25.5 74 3 -5.5 47.5 c 1
 75 182 l 1
312.5 662.5 m 1
 403.5 741 l 1
 528.5 647.5 l 1
 296 511 l 1
 101.5 654.5 l 1
 248.5 742 l 1
 312.5 662.5 l 1
EndSplineSet
EndChar

StartChar: Lslash
Encoding: 321 321 334
Width: 567
VWidth: 0
Flags: HMW
LayerCount: 2
Fore
SplineSet
31 290 m 1
 -5.5 379.5 l 1
 449 666.5 l 1
 486 578.5 l 1
 31 290 l 1
159 700 m 1
 376 700 l 1
 287.5 185 l 1
 564.5 185 l 1
 532 0 l 1
 39 0 l 1
 159 700 l 1
EndSplineSet
EndChar

StartChar: lslash
Encoding: 322 322 335
Width: 286
VWidth: 0
Flags: HMW
LayerCount: 2
Fore
SplineSet
12 290 m 1
 -25 379.5 l 1
 386 636.5 l 1
 422.5 548.5 l 1
 12 290 l 1
153 780 m 1
 346 780 l 1
 212 0 l 1
 19.5 0 l 1
 153 780 l 1
EndSplineSet
EndChar

StartChar: uni0218
Encoding: 536 536 336
Width: 652
VWidth: 0
Flags: HMW
LayerCount: 2
Fore
SplineSet
186.5 266 m 1
 223 201 258.5 158 325 158.5 c 0
 359.5 158.5 392 170 398.5 200 c 0
 408.5 243.5 343.5 256.5 289 280 c 0
 209 316 115.5 385.5 130.5 510.5 c 0
 150.5 641 277.5 720 426.5 720 c 0
 568 720 651.5 653.5 679 562.5 c 1
 509 474.5 l 1
 485.5 516 458.5 538.5 417 538.5 c 0
 387 538.5 354.5 525.5 348.5 503 c 0
 337.5 462 431 443 485 423 c 0
 587.5 383.5 641 306.5 626.5 199.5 c 0
 604 45 465 -30.5 300 -30 c 0
 171.5 -29.5 62 42 27.5 159.5 c 1
 186.5 266 l 1
192.5 -71 m 1
 383.5 -106 l 1
 209.5 -353 l 1
 63 -327 l 1
 192.5 -71 l 1
EndSplineSet
EndChar

StartChar: uni0219
Encoding: 537 537 337
Width: 473
VWidth: 0
Flags: HMW
LayerCount: 2
Fore
SplineSet
75 182 m 1
 146.5 136 196 116 231 117 c 0
 242.5 117 260.5 120 262 132.5 c 0
 265.5 158 180 168 145 185.5 c 0
 88 214.5 52 260 60.5 330 c 0
 75 427 175 469 278.5 469.5 c 0
 355.5 469.5 420 444.5 485 413.5 c 1
 419.5 283 l 1
 379 317.5 324.5 339 281.5 339 c 0
 262 339 242.5 335 240.5 322.5 c 0
 236.5 297.5 307 285.5 346 270.5 c 0
 409 246 459.5 207 450.5 129.5 c 0
 437.5 25.5 359.5 -23.5 251 -24.5 c 0
 154.5 -25.5 74 3 -5.5 47.5 c 1
 75 182 l 1
145 -66 m 1
 334 -101 l 1
 162 -348 l 1
 15.5 -322 l 1
 145 -66 l 1
EndSplineSet
EndChar

StartChar: pi
Encoding: 960 960 338
Width: 621
VWidth: 0
Flags: HMW
LayerCount: 2
Fore
SplineSet
132.5 430 m 1
 310.5 430 l 1
 236 0 l 1
 58 0 l 1
 132.5 430 l 1
79 460 m 1
 636 460 l 1
 608.5 305 l 1
 52 305 l 1
 79 460 l 1
375 430 m 1
 553 430 l 1
 512 200.5 l 1
 506 147.5 518.5 138.5 552.5 131 c 1
 530.5 -8.5 l 1
 406 -9 306.5 -8 323 121 c 1
 375 430 l 1
EndSplineSet
EndChar

StartChar: trademark
Encoding: 8482 8482 339
Width: 771
VWidth: 0
Flags: HMW
LayerCount: 2
Fore
SplineSet
101 602 m 1
 118 700 l 1
 422.5 700 l 1
 405 602 l 1
 308.5 602 l 1
 264.5 350 l 1
 154.5 350 l 1
 198.5 602 l 1
 101 602 l 1
681 593 m 1
 785.5 724.5 l 1
 783 350 l 1
 668 350 l 1
 681 593 l 1
480 719 m 1
 539.5 582 l 1
 471 350.5 l 1
 352.5 350.5 l 1
 480 719 l 1
788.5 726 m 1
 760 580.5 l 1
 577.5 380.5 l 1
 458.5 591 l 1
 480 717 l 1
 596 530 l 1
 788.5 726 l 1
EndSplineSet
EndChar

StartChar: uni2219
Encoding: 8729 8729 340
Width: 326
VWidth: 0
Flags: HMW
LayerCount: 2
Fore
SplineSet
98.5 461 m 0
 107 522.5 163 574.5 229.5 574.5 c 0
 296.5 574.5 339 520 330.5 459 c 0
 322 397.5 266 345.5 199.5 345.5 c 0
 132.5 345.5 90 400 98.5 461 c 0
EndSplineSet
EndChar

StartChar: agrave.alt
Encoding: 65537 -1 341
Width: 562
VWidth: 0
Flags: HMW
LayerCount: 2
Fore
SplineSet
206 138 m 0
 204 117 222.5 107.5 242.5 106.5 c 0
 288.5 104 327 138 339.5 189.5 c 1
 346.5 129 l 1
 328 44 257.5 -9 164 -9.5 c 0
 70 -10 0.5 41.5 13 130.5 c 0
 27 222.5 121.5 274 228.5 274.5 c 0
 284.5 275 346 259.5 380 232 c 1
 367.5 147.5 l 1
 341 168.5 315.5 181 274.5 180 c 0
 245.5 179 209.5 163.5 206 138 c 0
144 297.5 m 1
 103.5 425 l 1
 172 450.5 252 475 332.5 475 c 0
 446.5 475 556 427 542.5 320 c 1
 488.5 0 l 1
 305.5 0 l 1
 355 272.5 l 1
 359 307 341.5 329.5 299 332 c 0
 240 335.5 179 311.5 144 297.5 c 1
200.5 688 m 1
 342 745.5 l 1
 463 581.5 l 1
 353 535 l 1
 200.5 688 l 1
EndSplineSet
EndChar

StartChar: aacute.alt
Encoding: 65538 -1 342
Width: 562
VWidth: 0
Flags: HMW
LayerCount: 2
Fore
SplineSet
206 138 m 0
 204 117 222.5 107.5 242.5 106.5 c 0
 288.5 104 327 138 339.5 189.5 c 1
 346.5 129 l 1
 328 44 257.5 -9 164 -9.5 c 0
 70 -10 0.5 41.5 13 130.5 c 0
 27 222.5 121.5 274 228.5 274.5 c 0
 284.5 275 346 259.5 380 232 c 1
 367.5 147.5 l 1
 341 168.5 315.5 181 274.5 180 c 0
 245.5 179 209.5 163.5 206 138 c 0
144 297.5 m 1
 103.5 425 l 1
 172 450.5 252 475 332.5 475 c 0
 446.5 475 556 427 542.5 320 c 1
 488.5 0 l 1
 305.5 0 l 1
 355 272.5 l 1
 359 307 341.5 329.5 299 332 c 0
 240 335.5 179 311.5 144 297.5 c 1
550 681.5 m 1
 353.5 535.5 l 1
 249 588.5 l 1
 418.5 744 l 1
 550 681.5 l 1
EndSplineSet
EndChar

StartChar: acircumflex.alt
Encoding: 65539 -1 343
Width: 562
VWidth: 0
Flags: HMW
LayerCount: 2
Fore
SplineSet
206 138 m 0
 204 117 222.5 107.5 242.5 106.5 c 0
 288.5 104 327 138 339.5 189.5 c 1
 346.5 129 l 1
 328 44 257.5 -9 164 -9.5 c 0
 70 -10 0.5 41.5 13 130.5 c 0
 27 222.5 121.5 274 228.5 274.5 c 0
 284.5 275 346 259.5 380 232 c 1
 367.5 147.5 l 1
 341 168.5 315.5 181 274.5 180 c 0
 245.5 179 209.5 163.5 206 138 c 0
144 297.5 m 1
 103.5 425 l 1
 172 450.5 252 475 332.5 475 c 0
 446.5 475 556 427 542.5 320 c 1
 488.5 0 l 1
 305.5 0 l 1
 355 272.5 l 1
 359 307 341.5 329.5 299 332 c 0
 240 335.5 179 311.5 144 297.5 c 1
366 613.5 m 1
 275.5 535 l 1
 150.5 628.5 l 1
 383 765 l 1
 577.5 621.5 l 1
 430 534 l 1
 366 613.5 l 1
EndSplineSet
EndChar

StartChar: atilde.alt
Encoding: 65540 -1 344
Width: 562
VWidth: 0
Flags: HMW
LayerCount: 2
Fore
SplineSet
206 138 m 0
 204 117 222.5 107.5 242.5 106.5 c 0
 288.5 104 327 138 339.5 189.5 c 1
 346.5 129 l 1
 328 44 257.5 -9 164 -9.5 c 0
 70 -10 0.5 41.5 13 130.5 c 0
 27 222.5 121.5 274 228.5 274.5 c 0
 284.5 275 346 259.5 380 232 c 1
 367.5 147.5 l 1
 341 168.5 315.5 181 274.5 180 c 0
 245.5 179 209.5 163.5 206 138 c 0
144 297.5 m 1
 103.5 425 l 1
 172 450.5 252 475 332.5 475 c 0
 446.5 475 556 427 542.5 320 c 1
 488.5 0 l 1
 305.5 0 l 1
 355 272.5 l 1
 359 307 341.5 329.5 299 332 c 0
 240 335.5 179 311.5 144 297.5 c 1
153 620 m 1
 174.5 669 221.5 721 291 719.5 c 0
 347 718.5 370 664.5 421.5 666 c 0
 453.5 667 478.5 694 501 721 c 1
 574 626 l 1
 546.5 586 483 533 416.5 535.5 c 0
 366.5 537.5 328.5 595 279.5 591 c 0
 247 588.5 234 559 225.5 541 c 1
 153 620 l 1
EndSplineSet
EndChar

StartChar: adieresis.alt
Encoding: 65541 -1 345
Width: 562
VWidth: 0
Flags: HMW
LayerCount: 2
Fore
SplineSet
206 138 m 0
 204 117 222.5 107.5 242.5 106.5 c 0
 288.5 104 327 138 339.5 189.5 c 1
 346.5 129 l 1
 328 44 257.5 -9 164 -9.5 c 0
 70 -10 0.5 41.5 13 130.5 c 0
 27 222.5 121.5 274 228.5 274.5 c 0
 284.5 275 346 259.5 380 232 c 1
 367.5 147.5 l 1
 341 168.5 315.5 181 274.5 180 c 0
 245.5 179 209.5 163.5 206 138 c 0
144 297.5 m 1
 103.5 425 l 1
 172 450.5 252 475 332.5 475 c 0
 446.5 475 556 427 542.5 320 c 1
 488.5 0 l 1
 305.5 0 l 1
 355 272.5 l 1
 359 307 341.5 329.5 299 332 c 0
 240 335.5 179 311.5 144 297.5 c 1
390.5 634.5 m 0
 398 690.5 451.5 730.5 508.5 730.5 c 0
 566 730.5 609.5 688.5 602 631.5 c 0
 594.5 575.5 541 535.5 484 535.5 c 0
 426.5 535.5 383 577.5 390.5 634.5 c 0
128.5 634.5 m 0
 136 690.5 189.5 730.5 246.5 730.5 c 0
 304 730.5 347.5 688.5 340 631.5 c 0
 332.5 575.5 279 535.5 222 535.5 c 0
 164.5 535.5 121 577.5 128.5 634.5 c 0
EndSplineSet
EndChar

StartChar: aring.alt
Encoding: 65542 -1 346
Width: 562
VWidth: 0
Flags: HMW
LayerCount: 2
Fore
SplineSet
206 138 m 0
 204 117 222.5 107.5 242.5 106.5 c 0
 288.5 104 327 138 339.5 189.5 c 1
 346.5 129 l 1
 328 44 257.5 -9 164 -9.5 c 0
 70 -10 0.5 41.5 13 130.5 c 0
 27 222.5 121.5 274 228.5 274.5 c 0
 284.5 275 346 259.5 380 232 c 1
 367.5 147.5 l 1
 341 168.5 315.5 181 274.5 180 c 0
 245.5 179 209.5 163.5 206 138 c 0
144 297.5 m 1
 103.5 425 l 1
 172 450.5 252 475 332.5 475 c 0
 446.5 475 556 427 542.5 320 c 1
 488.5 0 l 1
 305.5 0 l 1
 355 272.5 l 1
 359 307 341.5 329.5 299 332 c 0
 240 335.5 179 311.5 144 297.5 c 1
233.5 661 m 0
 243 732.5 309.5 784.5 385 784.5 c 0
 460.5 784.5 516 731.5 506 659 c 0
 496.5 587 428.5 535.5 352.5 535.5 c 0
 277 535.5 223.5 589 233.5 661 c 0
327 659 m 0
 324.5 637.5 336.5 617.5 358.5 616.5 c 0
 382 615.5 408 637.5 411.5 661 c 0
 414 682.5 401.5 703.5 379.5 704.5 c 0
 356 705.5 330.5 682.5 327 659 c 0
EndSplineSet
EndChar

StartChar: amacron.alt
Encoding: 65543 -1 347
Width: 562
VWidth: 0
Flags: HMW
LayerCount: 2
Fore
SplineSet
206 138 m 0
 204 117 222.5 107.5 242.5 106.5 c 0
 288.5 104 327 138 339.5 189.5 c 1
 346.5 129 l 1
 328 44 257.5 -9 164 -9.5 c 0
 70 -10 0.5 41.5 13 130.5 c 0
 27 222.5 121.5 274 228.5 274.5 c 0
 284.5 275 346 259.5 380 232 c 1
 367.5 147.5 l 1
 341 168.5 315.5 181 274.5 180 c 0
 245.5 179 209.5 163.5 206 138 c 0
144 297.5 m 1
 103.5 425 l 1
 172 450.5 252 475 332.5 475 c 0
 446.5 475 556 427 542.5 320 c 1
 488.5 0 l 1
 305.5 0 l 1
 355 272.5 l 1
 359 307 341.5 329.5 299 332 c 0
 240 335.5 179 311.5 144 297.5 c 1
159 535 m 1
 188 700 l 1
 566 700 l 1
 537 535 l 1
 159 535 l 1
EndSplineSet
EndChar

StartChar: abreve.alt
Encoding: 65544 -1 348
Width: 562
VWidth: 0
Flags: HMW
LayerCount: 2
Fore
SplineSet
206 138 m 0
 204 117 222.5 107.5 242.5 106.5 c 0
 288.5 104 327 138 339.5 189.5 c 1
 346.5 129 l 1
 328 44 257.5 -9 164 -9.5 c 0
 70 -10 0.5 41.5 13 130.5 c 0
 27 222.5 121.5 274 228.5 274.5 c 0
 284.5 275 346 259.5 380 232 c 1
 367.5 147.5 l 1
 341 168.5 315.5 181 274.5 180 c 0
 245.5 179 209.5 163.5 206 138 c 0
144 297.5 m 1
 103.5 425 l 1
 172 450.5 252 475 332.5 475 c 0
 446.5 475 556 427 542.5 320 c 1
 488.5 0 l 1
 305.5 0 l 1
 355 272.5 l 1
 359 307 341.5 329.5 299 332 c 0
 240 335.5 179 311.5 144 297.5 c 1
209 685 m 1
 320.5 685 l 1
 321.5 654 336.5 637.5 360 635.5 c 0
 384.5 633.5 412 654.5 420 684.5 c 1
 537 683.5 l 1
 519.5 597 454 536 354 535.5 c 0
 254 535 203.5 597 209 685 c 1
EndSplineSet
EndChar

StartChar: aogonek.alt
Encoding: 65545 -1 349
Width: 562
VWidth: 0
Flags: HMW
LayerCount: 2
Fore
SplineSet
206 138 m 0
 204 117 222.5 107.5 242.5 106.5 c 0
 288.5 104 327 138 339.5 189.5 c 1
 346.5 129 l 1
 328 44 257.5 -9 164 -9.5 c 0
 70 -10 0.5 41.5 13 130.5 c 0
 27 222.5 121.5 274 228.5 274.5 c 0
 284.5 275 346 259.5 380 232 c 1
 367.5 147.5 l 1
 341 168.5 315.5 181 274.5 180 c 0
 245.5 179 209.5 163.5 206 138 c 0
144 297.5 m 1
 103.5 425 l 1
 172 450.5 252 475 332.5 475 c 0
 446.5 475 556 427 542.5 320 c 1
 488.5 0 l 1
 305.5 0 l 1
 355 272.5 l 1
 359 307 341.5 329.5 299 332 c 0
 240 335.5 179 311.5 144 297.5 c 1
425 -99.5 m 1
 445.5 -181.5 l 1
 421.5 -202.5 389 -220.5 337.5 -220 c 0
 282 -219 232 -183 239.5 -119 c 0
 249.5 -46 331.5 -8 398.5 25 c 1
 439.5 0 l 1
 397 -28.5 360 -55.5 353 -90.5 c 0
 351.5 -105 355 -118 372 -119.5 c 0
 388.5 -121 410.5 -109.5 425 -99.5 c 1
EndSplineSet
EndChar

StartChar: dagger
Encoding: 8224 8224 350
Width: 650
VWidth: 0
Flags: HMW
LayerCount: 2
Fore
SplineSet
152 540 m 1
 631 540 l 1
 606 385 l 1
 127.5 385 l 1
 152 540 l 1
327 700 m 1
 505 700 l 1
 373.5 -150 l 1
 195.5 -150 l 1
 327 700 l 1
EndSplineSet
EndChar

StartChar: daggerdbl
Encoding: 8225 8225 351
Width: 650
VWidth: 0
Flags: HMW
LayerCount: 2
Fore
SplineSet
96.5 180 m 1
 575.5 180 l 1
 551 25 l 1
 72 25 l 1
 96.5 180 l 1
152 540 m 1
 631 540 l 1
 606 385 l 1
 127.5 385 l 1
 152 540 l 1
327 700 m 1
 505 700 l 1
 373.5 -150 l 1
 195.5 -150 l 1
 327 700 l 1
EndSplineSet
EndChar

StartChar: ellipsis
Encoding: 8230 8230 352
Width: 912
VWidth: 0
Flags: HMW
LayerCount: 2
Fore
SplineSet
34.5 86 m 0
 43 147.5 99 199.5 165.5 199.5 c 0
 232.5 199.5 275 145 266.5 84 c 0
 258 22.5 202 -29.5 135.5 -29.5 c 0
 68.5 -29.5 26 25 34.5 86 c 0
325.5 86 m 0
 334 147.5 390 199.5 456.5 199.5 c 0
 523.5 199.5 566 145 557.5 84 c 0
 549 22.5 493 -29.5 426.5 -29.5 c 0
 359.5 -29.5 317 25 325.5 86 c 0
617 86 m 0
 625.5 147.5 681 199.5 747.5 199.5 c 0
 814.5 199.5 857 145 848.5 84 c 0
 840 22.5 784 -29.5 717.5 -29.5 c 0
 650.5 -29.5 608.5 25 617 86 c 0
EndSplineSet
EndChar

StartChar: uniFF10
Encoding: 65296 65296 353
Width: 640
VWidth: 0
Flags: HMW
LayerCount: 2
Fore
SplineSet
256 350 m 0
 248 272 246.5 173 315.5 170.5 c 0
 386.5 168 436 261.5 448 350 c 0
 456 428 457 527 388 529.5 c 0
 317 532 268 438.5 256 350 c 0
49.5 350 m 0
 78 559.5 213.5 715 408 715 c 0
 610 715 680 550.5 654.5 350 c 0
 626 139.5 496.5 -15.5 296 -15 c 0
 100.5 -14.5 24 150.5 49.5 350 c 0
EndSplineSet
EndChar

StartChar: uniFF11
Encoding: 65297 65297 354
Width: 640
VWidth: 0
Flags: HMW
LayerCount: 2
Fore
SplineSet
150.5 457.5 m 1
 183.5 643 l 1
 582.5 716.5 l 1
 459.5 0 l 1
 252.5 0 l 1
 337.5 498 l 1
 150.5 457.5 l 1
EndSplineSet
EndChar

StartChar: uniFF12
Encoding: 65298 65298 355
Width: 640
VWidth: 0
Flags: HMW
LayerCount: 2
Fore
SplineSet
-27.5 0 m 1
 317 305 l 2
 375 359.5 435.5 403 446.5 465.5 c 0
 451.5 498.5 436.5 529 392.5 530.5 c 0
 339.5 532.5 304 479 293 430 c 1
 81 431 l 1
 109 585.5 230.5 716.5 421 716 c 0
 579.5 716 692 610.5 671.5 480.5 c 0
 660 402.5 607 344 541.5 297 c 2
 402.5 200.5 l 1
 648.5 199.5 l 1
 614 0 l 1
 -27.5 0 l 1
EndSplineSet
EndChar

StartChar: uniFF13
Encoding: 65299 65299 356
Width: 640
VWidth: 0
Flags: HMW
LayerCount: 2
Fore
SplineSet
297.5 335.5 m 1
 310.5 423.5 l 1
 368 427 438.5 453 444.5 501.5 c 0
 447 527.5 428.5 543.5 395 544.5 c 0
 350.5 546 319.5 513 308.5 476 c 1
 110 477 l 1
 136 614 253.5 714.5 414 715 c 0
 562 715.5 677.5 641 657.5 515.5 c 0
 634.5 369 459 336.5 297.5 335.5 c 1
291 -20 m 0
 118 -19 24.5 104 38 245 c 1
 248 244.5 l 1
 245 186.5 268 152.5 318.5 150.5 c 0
 362.5 149 405.5 170 413.5 216 c 0
 426.5 271 368 293 289.5 295 c 1
 304.5 398.5 l 1
 473.5 397 646.5 352.5 622 194.5 c 0
 601 58.5 462 -21 291 -20 c 0
EndSplineSet
EndChar

StartChar: uniFF14
Encoding: 65300 65300 357
Width: 640
VWidth: 0
Flags: HMW
LayerCount: 2
Fore
SplineSet
-5.5 115.5 m 1
 195 264.5 l 1
 449.5 265.5 l 1
 472.5 300 l 1
 653 300 l 1
 620.5 115 l 1
 -5.5 115.5 l 1
211.5 194.5 m 1
 -10.5 110 l 1
 453 699.5 l 1
 634 700 l 1
 514 0 l 1
 287 0 l 1
 312.5 150.5 l 1
 343 161.5 l 1
 385.5 410.5 l 1
 211.5 194.5 l 1
EndSplineSet
EndChar

StartChar: uniFF15
Encoding: 65301 65301 358
Width: 640
VWidth: 0
Flags: HMW
LayerCount: 2
Fore
SplineSet
619.5 219.5 m 0
 596.5 59.5 430 -14 288 -15 c 0
 175.5 -15.5 83.5 10 1.5 43 c 1
 89.5 235.5 l 1
 148 201.5 206.5 185.5 252.5 185 c 0
 314.5 184.5 378.5 196.5 387 250.5 c 0
 395 302.5 330 309 284.5 309.5 c 0
 224.5 310.5 143 300.5 72 278.5 c 1
 236.5 373 l 1
 298 422.5 362 446 441.5 445 c 0
 555.5 443 636 348.5 619.5 219.5 c 0
367.5 509.5 m 1
 281 356 l 1
 65.5 273.5 l 1
 239 699.5 l 1
 680.5 700 l 1
 647.5 510 l 1
 367.5 509.5 l 1
EndSplineSet
EndChar

StartChar: uniFF16
Encoding: 65302 65302 359
Width: 640
VWidth: 0
Flags: HMW
LayerCount: 2
Fore
SplineSet
245 254.5 m 0
 237 205.5 264.5 166.5 315.5 165.5 c 0
 368 164.5 417.5 204 426.5 255.5 c 0
 434.5 304 407.5 345.5 356 346.5 c 0
 303 348 254 306 245 254.5 c 0
379 694.5 m 1
 660 694.5 l 1
 395.5 465.5 l 1
 336.5 439 l 1
 376.5 469.5 408.5 482.5 457 482.5 c 0
 568.5 482.5 656.5 383 641 254.5 c 0
 617.5 77.5 464 -20 295 -20 c 0
 130 -20 6 81 30.5 255 c 0
 44.5 344 103.5 415 166.5 480 c 2
 379 694.5 l 1
EndSplineSet
EndChar

StartChar: uniFF17
Encoding: 65303 65303 360
Width: 640
VWidth: 0
Flags: HMW
LayerCount: 2
Fore
SplineSet
81.5 495 m 1
 117 700 l 1
 724.5 699.5 l 1
 274.5 0 l 1
 34.5 0 l 1
 370 494.5 l 1
 81.5 495 l 1
EndSplineSet
EndChar

StartChar: uniFF18
Encoding: 65304 65304 361
Width: 640
VWidth: 0
Flags: HMW
LayerCount: 2
Fore
SplineSet
146.5 531.5 m 0
 165 660 298 720 429.5 720 c 0
 555 720 678.5 660 660 530.5 c 0
 642 397.5 495 335 376 335 c 0
 263 335 128.5 398.5 146.5 531.5 c 0
344.5 510 m 0
 340.5 480.5 354 452.5 386 450.5 c 0
 419 448 450.5 480.5 455 512 c 0
 459 542 445.5 567.5 413.5 569.5 c 0
 380.5 571.5 349 541.5 344.5 510 c 0
64 190.5 m 0
 84 339.5 249.5 400 374.5 400 c 0
 492 400 646 339 626 189.5 c 0
 606 51 454.5 -20 315 -20 c 0
 182.5 -20 44 51.5 64 190.5 c 0
286 224 m 0
 280.5 186.5 297.5 157 335.5 155.5 c 0
 374.5 154 410 186 416 226 c 0
 420.5 258 402.5 288 366 289.5 c 0
 328 291 292.5 258 286 224 c 0
EndSplineSet
EndChar

StartChar: uniFF19
Encoding: 65305 65305 362
Width: 640
VWidth: 0
Flags: HMW
LayerCount: 2
Fore
SplineSet
459 445.5 m 0
 467 494.5 439 533.5 388 534.5 c 0
 335.5 535.5 286.5 496 277.5 444.5 c 0
 269.5 396 296.5 354.5 348 353.5 c 0
 401 352 450 394 459 445.5 c 0
325 5.5 m 1
 44 5.5 l 1
 308.5 234.5 l 1
 367.5 261 l 1
 327.5 230.5 295 217.5 246.5 217.5 c 0
 135 217.5 47.5 317 63 445.5 c 0
 86.5 622.5 240 720 409 720 c 0
 574 720 698 619 673.5 445 c 0
 659.5 356 600.5 285 537.5 220 c 2
 325 5.5 l 1
EndSplineSet
EndChar

StartChar: caron
Encoding: 711 711 363
Width: 465
VWidth: 0
Flags: HMW
LayerCount: 2
Fore
SplineSet
319.5 690.5 m 1
 410 769 l 1
 535 675.5 l 1
 302.5 539 l 1
 108.5 682.5 l 1
 255.5 770 l 1
 319.5 690.5 l 1
EndSplineSet
EndChar

StartChar: napostrophe
Encoding: 329 329 364
Width: 790
VWidth: 0
Flags: HMW
LayerCount: 2
Fore
SplineSet
495 460 m 1
 416 0 l 1
 223 0 l 1
 302.5 460 l 1
 495 460 l 1
564.5 280 m 1
 567.5 311.5 569 341 533 345 c 0
 497.5 349 472 315 464 280.5 c 1
 435.5 271 l 1
 453 374.5 506.5 470 627 471 c 0
 743.5 472 780 401.5 767 300 c 1
 716.5 0 l 1
 514 0 l 1
 564.5 280 l 1
187 700 m 1
 383 699.5 l 1
 234 430.5 l 1
 91.5 430.5 l 1
 187 700 l 1
EndSplineSet
EndChar

StartChar: IJ
Encoding: 306 306 365
Width: 684
VWidth: 0
Flags: HMW
LayerCount: 2
Fore
SplineSet
198.5 -39.5 m 1
 220 -54 247 -71 272.5 -70.5 c 0
 308.5 -70 341.5 -40 349.5 5.5 c 1
 469.5 700 l 1
 710.5 700 l 1
 583 -50.5 l 2
 558 -193 424 -250 282.5 -250 c 0
 197.5 -250 120.5 -222 60 -188 c 1
 198.5 -39.5 l 1
159 700 m 1
 380.5 700 l 1
 260.5 0 l 1
 39 0 l 1
 159 700 l 1
EndSplineSet
EndChar

StartChar: ij
Encoding: 307 307 366
Width: 549
VWidth: 0
Flags: HMW
LayerCount: 2
Fore
SplineSet
383.5 623.5 m 0
 391 679.5 445 719.5 502 719.5 c 0
 559.5 719.5 603 677.5 595.5 620.5 c 0
 588 564.5 534 524.5 477 524.5 c 0
 419.5 524.5 376 566.5 383.5 623.5 c 0
189 -55.5 m 1
 199.5 -62.5 213.5 -80 228 -80.5 c 0
 257.5 -82.5 280.5 -53.5 286 -24.5 c 1
 370.5 460 l 1
 553 460 l 1
 461.5 -80.5 l 2
 442.5 -180.5 365.5 -250 243.5 -249.5 c 0
 174.5 -249.5 133 -219.5 100.5 -191.5 c 1
 189 -55.5 l 1
112 623.5 m 0
 119.5 679.5 173 719.5 230 719.5 c 0
 287.5 719.5 331.5 677.5 324 620.5 c 0
 316.5 564.5 262.5 524.5 205.5 524.5 c 0
 148 524.5 104.5 566.5 112 623.5 c 0
97.5 460 m 1
 282.5 460 l 1
 203.5 0 l 1
 18.5 0 l 1
 97.5 460 l 1
EndSplineSet
EndChar

StartChar: uni0237
Encoding: 567 567 367
Width: 276
VWidth: 0
Flags: HMW
LayerCount: 2
Fore
SplineSet
-83 -55.5 m 1
 -72.5 -68.5 -61.5 -80 -44 -80.5 c 0
 -14 -81 8.5 -54.5 14.5 -24.5 c 1
 98.5 460 l 1
 281.5 460 l 1
 190 -80.5 l 2
 171 -180.5 94 -250 -28 -249.5 c 0
 -97 -249.5 -139 -219.5 -171.5 -191.5 c 1
 -83 -55.5 l 1
EndSplineSet
EndChar

StartChar: Sacute
Encoding: 346 346 368
Width: 652
VWidth: 0
Flags: HMW
LayerCount: 2
Fore
SplineSet
186.5 266 m 1
 223 201 258.5 158 325 158.5 c 0
 359.5 158.5 392 170 398.5 200 c 0
 408.5 243.5 343.5 256.5 289 280 c 0
 209 316 115.5 385.5 130.5 510.5 c 0
 150.5 641 277.5 720 426.5 720 c 0
 568 720 651.5 653.5 679 562.5 c 1
 509 474.5 l 1
 485.5 516 458.5 538.5 417 538.5 c 0
 387 538.5 354.5 525.5 348.5 503 c 0
 337.5 462 431 443 485 423 c 0
 587.5 383.5 641 306.5 626.5 199.5 c 0
 604 45 465 -30.5 300 -30 c 0
 171.5 -29.5 62 42 27.5 159.5 c 1
 186.5 266 l 1
644.5 926.5 m 1
 448 780.5 l 1
 343 833.5 l 1
 512.5 989 l 1
 644.5 926.5 l 1
EndSplineSet
EndChar

StartChar: sacute
Encoding: 347 347 369
Width: 473
VWidth: 0
Flags: HMW
LayerCount: 2
Fore
SplineSet
75 182 m 1
 146.5 136 196 116 231 117 c 0
 242.5 117 260.5 120 262 132.5 c 0
 265.5 158 180 168 145 185.5 c 0
 88 214.5 52 260 60.5 330 c 0
 75 427 175 469 278.5 469.5 c 0
 355.5 469.5 420 444.5 485 413.5 c 1
 419.5 283 l 1
 379 317.5 324.5 339 281.5 339 c 0
 262 339 242.5 335 240.5 322.5 c 0
 236.5 297.5 307 285.5 346 270.5 c 0
 409 246 459.5 207 450.5 129.5 c 0
 437.5 25.5 359.5 -23.5 251 -24.5 c 0
 154.5 -25.5 74 3 -5.5 47.5 c 1
 75 182 l 1
496 677.5 m 1
 299.5 531.5 l 1
 194.5 584.5 l 1
 364 740 l 1
 496 677.5 l 1
EndSplineSet
EndChar

StartChar: Scircumflex
Encoding: 348 348 370
Width: 652
VWidth: 0
Flags: HMW
LayerCount: 2
Fore
SplineSet
186.5 266 m 1
 223 201 258.5 158 325 158.5 c 0
 359.5 158.5 392 170 398.5 200 c 0
 408.5 243.5 343.5 256.5 289 280 c 0
 209 316 115.5 385.5 130.5 510.5 c 0
 150.5 641 277.5 720 426.5 720 c 0
 568 720 651.5 653.5 679 562.5 c 1
 509 474.5 l 1
 485.5 516 458.5 538.5 417 538.5 c 0
 387 538.5 354.5 525.5 348.5 503 c 0
 337.5 462 431 443 485 423 c 0
 587.5 383.5 641 306.5 626.5 199.5 c 0
 604 45 465 -30.5 300 -30 c 0
 171.5 -29.5 62 42 27.5 159.5 c 1
 186.5 266 l 1
460.5 858.5 m 1
 369.5 780 l 1
 244.5 873.5 l 1
 477 1010 l 1
 671.5 866.5 l 1
 524.5 779 l 1
 460.5 858.5 l 1
EndSplineSet
EndChar

StartChar: scircumflex
Encoding: 349 349 371
Width: 473
VWidth: 0
Flags: HMW
LayerCount: 2
Fore
SplineSet
75 182 m 1
 146.5 136 196 116 231 117 c 0
 242.5 117 260.5 120 262 132.5 c 0
 265.5 158 180 168 145 185.5 c 0
 88 214.5 52 260 60.5 330 c 0
 75 427 175 469 278.5 469.5 c 0
 355.5 469.5 420 444.5 485 413.5 c 1
 419.5 283 l 1
 379 317.5 324.5 339 281.5 339 c 0
 262 339 242.5 335 240.5 322.5 c 0
 236.5 297.5 307 285.5 346 270.5 c 0
 409 246 459.5 207 450.5 129.5 c 0
 437.5 25.5 359.5 -23.5 251 -24.5 c 0
 154.5 -25.5 74 3 -5.5 47.5 c 1
 75 182 l 1
331.5 609.5 m 1
 241 531 l 1
 116 624.5 l 1
 348 761 l 1
 542.5 617.5 l 1
 395.5 530 l 1
 331.5 609.5 l 1
EndSplineSet
EndChar

StartChar: uni1E9E
Encoding: 7838 7838 372
Width: 966
VWidth: 0
Flags: HMW
LayerCount: 2
Fore
SplineSet
580 -20 m 0
 393.5 -19 332 119 346.5 245 c 1
 527.5 244.5 l 1
 524.5 194.5 542 153 598 150.5 c 0
 649.5 148.5 684.5 172 692 216 c 0
 704.5 279 638 293 569 295 c 1
 581 379.5 l 1
 742 378.5 923 337.5 899.5 184.5 c 0
 880 55.5 734 -21 580 -20 c 0
578.5 345.5 m 1
 590 424.5 l 1
 648.5 427 702.5 442 711 491.5 c 0
 720 537 661.5 548 594 547.5 c 0
 458.5 546.5 344 457.5 318.5 306 c 1
 265.5 0 l 1
 48.5 0 l 1
 107.5 346 l 2
 147 563 345 709 599.5 710 c 0
 782 710.5 961 655 936.5 513.5 c 0
 914.5 382.5 746 346.5 578.5 345.5 c 1
EndSplineSet
EndChar

StartChar: Zacute
Encoding: 377 377 373
Width: 645
VWidth: 0
Flags: HW
LayerCount: 2
Fore
SplineSet
125 505 m 1
 159 700 l 1
 732.5 699.5 l 1
 345.5 185.5 l 1
 598.5 185 l 1
 566 0 l 1
 -27 0 l 1
 352 504.5 l 1
 125 505 l 1
659 926.5 m 1
 462.5 780.5 l 1
 357.5 833.5 l 1
 527 989 l 1
 659 926.5 l 1
EndSplineSet
EndChar

StartChar: zacute
Encoding: 378 378 374
Width: 543
VWidth: 0
Flags: HW
LayerCount: 2
Fore
SplineSet
240 284.5 m 1
 82.5 285.5 l 1
 113 460 l 1
 585 459.5 l 1
 346 175.5 l 1
 495 174.5 l 1
 464.5 0 l 1
 -17.5 0 l 1
 240 284.5 l 1
561 677.5 m 1
 364.5 531.5 l 1
 259.5 584.5 l 1
 429 740 l 1
 561 677.5 l 1
EndSplineSet
EndChar

StartChar: Zdotaccent
Encoding: 379 379 375
Width: 645
VWidth: 0
Flags: HW
LayerCount: 2
Fore
SplineSet
125 505 m 1
 159 700 l 1
 732.5 699.5 l 1
 345.5 185.5 l 1
 598.5 185 l 1
 566 0 l 1
 -27 0 l 1
 352 504.5 l 1
 125 505 l 1
368 879.5 m 0
 375.5 935.5 429.5 975.5 486.5 975.5 c 0
 544 975.5 587.5 933.5 580 876.5 c 0
 572.5 820.5 518.5 780.5 461.5 780.5 c 0
 404 780.5 360.5 822.5 368 879.5 c 0
EndSplineSet
EndChar

StartChar: zdotaccent
Encoding: 380 380 376
Width: 543
VWidth: 0
Flags: HW
LayerCount: 2
Fore
SplineSet
240 284.5 m 1
 82.5 285.5 l 1
 113 460 l 1
 585 459.5 l 1
 346 175.5 l 1
 495 174.5 l 1
 464.5 0 l 1
 -17.5 0 l 1
 240 284.5 l 1
270 630.5 m 0
 277.5 686.5 331.5 726.5 388.5 726.5 c 0
 446 726.5 489.5 684.5 482 627.5 c 0
 474.5 571.5 421 531.5 364 531.5 c 0
 306.5 531.5 262.5 573.5 270 630.5 c 0
EndSplineSet
EndChar

StartChar: Tcaron
Encoding: 356 356 377
Width: 601
VWidth: 0
Flags: HW
LayerCount: 2
Fore
SplineSet
57 505 m 1
 91 700 l 1
 696 700 l 1
 662 505 l 1
 468.5 505 l 1
 382 0 l 1
 165 0 l 1
 251.5 505 l 1
 57 505 l 1
428.5 931.5 m 1
 519 1010 l 1
 644 916.5 l 1
 412 780 l 1
 217.5 923.5 l 1
 364.5 1011 l 1
 428.5 931.5 l 1
EndSplineSet
EndChar

StartChar: tcaron
Encoding: 357 357 378
Width: 548
VWidth: 0
Flags: HW
LayerCount: 2
Fore
SplineSet
55 460 m 1
 403 460 l 1
 375.5 305 l 1
 27.5 305 l 1
 55 460 l 1
164.5 620 m 1
 347.5 620 l 1
 241 0 l 1
 58 0 l 1
 164.5 620 l 1
520.5 771 m 1
 710.5 736 l 1
 537.5 489 l 1
 391 515 l 1
 520.5 771 l 1
EndSplineSet
EndChar

StartChar: Uring
Encoding: 366 366 379
Width: 723
VWidth: 0
Flags: HW
LayerCount: 2
Fore
SplineSet
154 700 m 1
 371 700 l 1
 292 250 l 2
 286 201.5 299 157 356 155.5 c 0
 414 154 450.5 199 460.5 250.5 c 1
 538.5 700 l 1
 755 700 l 1
 675.5 230 l 2
 646.5 49.5 503.5 -40 334 -40 c 0
 170 -40 51 50 74.5 230 c 1
 154 700 l 1
353 906 m 0
 362.5 977.5 429 1029.5 504.5 1029.5 c 0
 580 1029.5 635.5 976.5 625.5 904 c 0
 616 832 548 780.5 472 780.5 c 0
 396.5 780.5 343 834 353 906 c 0
446.5 904 m 0
 444 882.5 455.5 862.5 477.5 861.5 c 0
 501 860.5 527.5 882.5 531 906 c 0
 533.5 927.5 521 948.5 499 949.5 c 0
 475.5 950.5 450 927.5 446.5 904 c 0
EndSplineSet
EndChar

StartChar: uring
Encoding: 367 367 380
Width: 587
VWidth: 0
Flags: HW
LayerCount: 2
Fore
SplineSet
320 0 m 1
 399.5 460 l 1
 592 460 l 1
 513 0 l 1
 320 0 l 1
250.5 180 m 1
 247.5 148.5 246 119 282 115 c 0
 317.5 111 343.5 145 351.5 179.5 c 1
 380 189 l 1
 362.5 85.5 308.5 -10 188 -11 c 0
 71.5 -12 35 58.5 48 160 c 1
 98.5 460 l 1
 301 460 l 1
 250.5 180 l 1
242.25 657 m 0
 251.75 728.5 318.25 780.5 393.75 780.5 c 0
 469.25 780.5 524.75 727.5 514.75 655 c 0
 505.25 583 437.25 531.5 361.25 531.5 c 0
 285.75 531.5 232.25 585 242.25 657 c 0
335.75 655 m 0
 333.25 633.5 344.75 613.5 366.75 612.5 c 0
 390.25 611.5 416.75 633.5 420.25 657 c 0
 422.75 678.5 410.25 699.5 388.25 700.5 c 0
 364.75 701.5 339.25 678.5 335.75 655 c 0
EndSplineSet
EndChar

StartChar: uni0400
Encoding: 1024 1024 381
Width: 533
VWidth: 0
Flags: HW
LayerCount: 2
Fore
SplineSet
185 0 m 1
 215.5 175 l 1
 564 175 l 1
 533.5 0 l 1
 185 0 l 1
274.5 525 m 1
 305.5 700 l 1
 653.5 700 l 1
 623 525 l 1
 274.5 525 l 1
232 275 m 1
 262 445 l 1
 591 445 l 1
 561 275 l 1
 232 275 l 1
157.5 700 m 1
 367 700 l 1
 247 0 l 1
 37.5 0 l 1
 157.5 700 l 1
271.75 934.5 m 1
 410.75 991 l 1
 532.75 825 l 1
 425.25 779.5 l 1
 271.75 934.5 l 1
EndSplineSet
EndChar

StartChar: uni0401
Encoding: 1025 1025 382
Width: 533
VWidth: 0
Flags: HW
LayerCount: 2
Fore
SplineSet
185 0 m 1
 215.5 175 l 1
 564 175 l 1
 533.5 0 l 1
 185 0 l 1
274.5 525 m 1
 305.5 700 l 1
 653.5 700 l 1
 623 525 l 1
 274.5 525 l 1
232 275 m 1
 262 445 l 1
 591 445 l 1
 561 275 l 1
 232 275 l 1
157.5 700 m 1
 367 700 l 1
 247 0 l 1
 37.5 0 l 1
 157.5 700 l 1
460.25 880 m 0
 466.75 936 519.75 975.5 576.75 975.5 c 0
 634.75 975.5 680.25 934 673.25 876 c 0
 666.75 820 613.75 780.5 556.75 780.5 c 0
 498.75 780.5 453.25 822 460.25 880 c 0
198.25 880 m 0
 204.75 936 257.75 975.5 314.75 975.5 c 0
 372.75 975.5 418.25 934 411.25 876 c 0
 404.75 820 351.75 780.5 294.75 780.5 c 0
 236.75 780.5 191.25 822 198.25 880 c 0
EndSplineSet
EndChar

StartChar: uni0403
Encoding: 1027 1027 383
Width: 533
VWidth: 0
Flags: HW
LayerCount: 2
Fore
SplineSet
167.5 700 m 1
 619.5 700 l 1
 585.5 505 l 1
 353 505 l 1
 266.5 0 l 1
 47.5 0 l 1
 167.5 700 l 1
609 925 m 1
 414.5 780.5 l 1
 306.5 835.5 l 1
 474 989.5 l 1
 609 925 l 1
EndSplineSet
EndChar

StartChar: uni040C
Encoding: 1036 1036 384
Width: 548
VWidth: 0
Flags: HW
LayerCount: 2
Fore
SplineSet
157.5 700 m 1
 386.5 700 l 1
 266.5 0 l 1
 37.5 0 l 1
 157.5 700 l 1
584.5 699.5 m 1
 848.5 699.5 l 1
 518.5 365 l 1
 732 0 l 1
 481 0 l 1
 265.5 372.5 l 1
 584.5 699.5 l 1
636.75 905 m 1
 442.75 760.5 l 1
 334.75 815.5 l 1
 502.25 969.5 l 1
 636.75 905 l 1
EndSplineSet
EndChar

StartChar: uni040D
Encoding: 1037 1037 385
Width: 781
VWidth: 0
Flags: HW
LayerCount: 2
Fore
SplineSet
763.5 470.5 m 1
 27.5 -45.5 l 1
 83 229.5 l 1
 819.5 746 l 1
 763.5 470.5 l 1
367 700 m 1
 274 159.5 l 1
 27.5 -45.5 l 1
 157.5 700 l 1
 367 700 l 1
819.5 746 m 1
 688.5 0 l 1
 479 0 l 1
 571 530.5 l 1
 819.5 746 l 1
368.5 919.5 m 1
 507.5 976 l 1
 629.5 810 l 1
 522.5 764.5 l 1
 368.5 919.5 l 1
EndSplineSet
EndChar

StartChar: uni040E
Encoding: 1038 1038 386
Width: 611
VWidth: 0
Flags: HW
LayerCount: 2
Fore
SplineSet
724.5 699.5 m 1
 285.5 0 l 1
 69.5 0 l 1
 208 225 l 1
 79 700 l 1
 301 700 l 1
 361 315 l 1
 272.5 315.5 l 1
 504 699.5 l 1
 724.5 699.5 l 1
270.5 930.5 m 1
 382 929.5 l 1
 383 899.5 397.5 883 420 881 c 0
 444.5 878.5 473 899.5 481 929.5 c 1
 600 928.5 l 1
 584.5 841.5 519.5 780.5 420 780 c 0
 320 779.5 266.5 841.5 270.5 930.5 c 1
EndSplineSet
EndChar

StartChar: uni0410
Encoding: 1040 1040 387
Width: 756
VWidth: 0
Flags: HW
LayerCount: 2
Fore
SplineSet
186 90 m 1
 213.5 248 l 1
 578.5 248 l 1
 550.5 90 l 1
 186 90 l 1
422 383 m 1
 304 188 l 1
 312.5 137.5 l 1
 216.5 0 l 1
 -38.5 0 l 1
 477.5 754.5 l 1
 733 0 l 1
 493.5 0 l 1
 442.5 133 l 1
 467.5 189 l 1
 422 383 l 1
EndSplineSet
EndChar

StartChar: uni0411
Encoding: 1041 1041 388
Width: 725
VWidth: 0
Flags: HW
LayerCount: 2
Fore
SplineSet
145 275.5 m 1
 170 445 l 1
 496 445 l 2
 624.5 445 717 350.5 700.5 224.5 c 0
 683.5 96.5 570 0 438 0 c 2
 93 0 l 1
 123.5 175 l 1
 398 175 l 2
 441.5 175 470.5 189 479 226 c 0
 486.5 260.5 462.5 274.5 423 274.5 c 2
 145 275.5 l 1
167.5 700 m 1
 731 700 l 1
 700.5 525 l 1
 361.5 525 l 1
 271.5 0 l 1
 47.5 0 l 1
 167.5 700 l 1
EndSplineSet
EndChar

StartChar: uni0412
Encoding: 1042 1042 389
Width: 707
VWidth: 0
Flags: HW
LayerCount: 2
Fore
SplineSet
253 335 m 1
 270 424 l 1
 374 425 l 2
 418 425 453 446 461 484 c 0
 467 519 446 535 406 535 c 2
 352 536 l 1
 283 164 l 1
 349 164 l 2
 397 165 449 175 457 228 c 0
 464 272 425 279 383 280 c 2
 243 280 l 1
 265 400 l 1
 417 400 l 2
 545 398 695 339 677 192 c 0
 659 48 527 1 367 0 c 2
 39 0 l 1
 159 700 l 1
 448 700 l 2
 578 698 711 647 694 520 c 0
 678 394 542 337 404 335 c 2
 253 335 l 1
EndSplineSet
EndChar

StartChar: uni0413
Encoding: 1043 1043 390
Width: 533
VWidth: 0
Flags: HW
LayerCount: 2
Fore
SplineSet
167.5 700 m 1
 619.5 700 l 1
 585.5 505 l 1
 353 505 l 1
 266.5 0 l 1
 47.5 0 l 1
 167.5 700 l 1
EndSplineSet
EndChar

StartChar: uni0414
Encoding: 1044 1044 391
Width: 907
VWidth: 0
Flags: HW
LayerCount: 2
Fore
SplineSet
486.5 354 m 1
 323 30.5 l 1
 58.5 30.5 l 1
 547.5 739.5 l 1
 791.5 30 l 1
 541 30 l 1
 486.5 354 l 1
616 0 m 1
 233.5 0 l 1
 213.5 -110 l 1
 -10.5 -110 l 1
 41 185 l 1
 871.5 185 l 1
 820 -110 l 1
 596 -110 l 1
 616 0 l 1
EndSplineSet
EndChar

StartChar: uni0415
Encoding: 1045 1045 392
Width: 619
VWidth: 0
Flags: HW
LayerCount: 2
Fore
SplineSet
186 0 m 1
 217 175 l 1
 566 175 l 1
 535 0 l 1
 186 0 l 1
276 525 m 1
 307 700 l 1
 655 700 l 1
 624 525 l 1
 276 525 l 1
234 275 m 1
 264 445 l 1
 592 445 l 1
 562 275 l 1
 234 275 l 1
159 700 m 1
 368 700 l 1
 248 0 l 1
 39 0 l 1
 159 700 l 1
EndSplineSet
EndChar

StartChar: uni0416
Encoding: 1046 1046 393
Width: 1164
VWidth: 0
Flags: HW
LayerCount: 2
Fore
SplineSet
345.5 700 m 1
 565.5 362.5 l 1
 223 0 l 1
 -39.5 0 l 1
 321.5 379 l 1
 106 700 l 1
 345.5 700 l 1
560.5 700 m 1
 789.5 700 l 1
 669.5 0 l 1
 440.5 0 l 1
 560.5 700 l 1
982.5 699.5 m 1
 1255 699.5 l 1
 915.5 365 l 1
 1138.5 0 l 1
 888.5 0 l 1
 671 377.5 l 1
 982.5 699.5 l 1
EndSplineSet
EndChar

StartChar: uni0417
Encoding: 1047 1047 394
Width: 685
VWidth: 0
Flags: HW
LayerCount: 2
Fore
SplineSet
336.5 334.5 m 1
 347.5 423.5 l 1
 417.5 425.5 484.5 442.5 493.5 492.5 c 0
 498.5 525 471 543.5 429.5 544.5 c 0
 371.5 546 337.5 516.5 324 476 c 1
 123 477 l 1
 147 620 265 714.5 443 715 c 0
 601.5 715.5 729 646 709.5 515.5 c 0
 687.5 366.5 498 335.5 336.5 334.5 c 1
345.5 -20 m 0
 143.5 -19.5 36 92.5 49 245 c 1
 259 244 l 1
 256.5 181.5 290 152 347.5 150.5 c 0
 399.5 149 453 166.5 464 216 c 0
 480.5 273 414.5 293.5 331.5 295 c 1
 344.5 398.5 l 1
 513.5 397.5 696 353 674 194.5 c 0
 655 56.5 521.5 -20 345.5 -20 c 0
EndSplineSet
EndChar

StartChar: uni0418
Encoding: 1048 1048 395
Width: 781
VWidth: 0
Flags: HW
LayerCount: 2
Fore
SplineSet
763.5 470.5 m 1
 27.5 -45.5 l 1
 83 229.5 l 1
 819.5 746 l 1
 763.5 470.5 l 1
367 700 m 1
 274 159.5 l 1
 27.5 -45.5 l 1
 157.5 700 l 1
 367 700 l 1
819.5 746 m 1
 688.5 0 l 1
 479 0 l 1
 571 530.5 l 1
 819.5 746 l 1
EndSplineSet
EndChar

StartChar: uni0419
Encoding: 1049 1049 396
Width: 781
VWidth: 0
Flags: HW
LayerCount: 2
Fore
SplineSet
763.5 470.5 m 1
 27.5 -45.5 l 1
 83 229.5 l 1
 819.5 746 l 1
 763.5 470.5 l 1
367 700 m 1
 274 159.5 l 1
 27.5 -45.5 l 1
 157.5 700 l 1
 367 700 l 1
819.5 746 m 1
 688.5 0 l 1
 479 0 l 1
 571 530.5 l 1
 819.5 746 l 1
366.5 930.505859375 m 1
 478 930.505859375 l 1
 479.5 899.505859375 495 883.005859375 518.5 881.005859375 c 0
 543 879.005859375 570.5 900.005859375 578 930.005859375 c 1
 694.5 929.505859375 l 1
 678 843.005859375 613.5 781.505859375 513.5 781.005859375 c 0
 414 780.505859375 362 842.005859375 366.5 930.505859375 c 1
EndSplineSet
EndChar

StartChar: uni041A
Encoding: 1050 1050 397
Width: 759
VWidth: 0
Flags: HW
LayerCount: 2
Fore
SplineSet
157 700 m 1
 386 700 l 1
 266 0 l 1
 37 0 l 1
 157 700 l 1
584 700 m 1
 848 700 l 1
 518 365 l 1
 732 0 l 1
 480 0 l 1
 265 372 l 1
 584 700 l 1
EndSplineSet
EndChar

StartChar: uni041B
Encoding: 1051 1051 398
Width: 813
VWidth: 0
Flags: HW
LayerCount: 2
Fore
SplineSet
831 700 m 1
 711 0 l 1
 487 0 l 1
 574 505 l 1
 400 505 l 1
 370.5 330 l 2
 334.5 105 218.5 5 -15.5 0.5 c 1
 9 184.5 l 1
 79.5 191 126 231 140 302.5 c 1
 209 700 l 1
 831 700 l 1
EndSplineSet
EndChar

StartChar: uni041C
Encoding: 1052 1052 399
Width: 913
VWidth: 0
Flags: HW
LayerCount: 2
Fore
SplineSet
318 285 m 1
 234 0 l 1
 -2 0 l 1
 250 736 l 1
 485 360 l 1
 859 744 l 1
 857 0 l 1
 626 0 l 1
 638 274 l 1
 444 62 l 1
 318 285 l 1
EndSplineSet
EndChar

StartChar: uni041D
Encoding: 1053 1053 400
Width: 806
VWidth: 0
Flags: HW
LayerCount: 2
Fore
SplineSet
128 265 m 1
 162 460 l 1
 712 460 l 1
 678 265 l 1
 128 265 l 1
614 700 m 1
 833 700 l 1
 713 0 l 1
 494 0 l 1
 614 700 l 1
158 700 m 1
 377 700 l 1
 257 0 l 1
 38 0 l 1
 158 700 l 1
EndSplineSet
EndChar

StartChar: uni041E
Encoding: 1054 1054 401
Width: 466
VWidth: 0
Flags: HW
LayerCount: 2
Fore
SplineSet
290 350 m 0
 276 264 305 180 403 178 c 0
 501 176 573 256 591 350 c 0
 606 437 578 520 478 522 c 0
 380 524 308 444 290 350 c 0
59 350 m 0
 89 564 276 720 494 720 c 0
 710 720 849 560 821 350 c 0
 791 134 610 -30 385 -30 c 0
 164 -30 30 140 59 350 c 0
EndSplineSet
EndChar

StartChar: uni041F
Encoding: 1055 1055 402
Width: 781
VWidth: 0
Flags: HW
LayerCount: 2
Fore
SplineSet
542 505 m 1
 358 505 l 1
 271.5 0 l 1
 47.5 0 l 1
 167.5 700 l 1
 799 700 l 1
 679 0 l 1
 455 0 l 1
 542 505 l 1
EndSplineSet
EndChar

